<?xml version="1.0" encoding="utf-8"?>
<!-- Generator: Adobe Illustrator 23.0.6, SVG Export Plug-In . SVG Version: 6.00 Build 0)  -->
<svg version="1.1" id="Ebene_1" xmlns="http://www.w3.org/2000/svg" xmlns:xlink="http://www.w3.org/1999/xlink" x="0px" y="0px"
	 viewBox="0 0 166.68 41.67" style="enable-background:new 0 0 166.68 41.67;" xml:space="preserve">
<style type="text/css">
	.st0{fill:#378ADC;}
</style>
<g>
	<path class="st0" d="M78.87,22.99c0,3.8-1.21,8.34-6.98,8.34h-2.41c-4.55,0-7.05-2.97-7.05-8.37V10.33h-4.47v12.62
		c0,7.87,4.4,12.76,11.48,12.76h2.41c7.08,0,11.48-4.89,11.48-12.76V10.33h-4.47V22.99z"/>
	<path class="st0" d="M28.67,21.82v2.41c0,7.08,4.89,11.48,12.76,11.48h12.62v-4.47H41.4c-3.8,0-8.34-1.21-8.34-6.98v-2.41
		c0-4.55,2.97-7.05,8.37-7.05h12.62v-4.47H41.43C33.56,10.33,28.67,14.73,28.67,21.82z"/>
	<path class="st0" d="M13.9,10.33h-2.42C4.4,10.33,0,15.22,0,23.09v12.62h4.47V23.06c0-3.8,1.21-8.34,6.98-8.34h2.42
		c4.55,0,7.05,2.97,7.05,8.37v12.62h4.47V23.09C25.38,15.22,20.98,10.33,13.9,10.33z"/>
	<path class="st0" d="M4.52,10.33V0H0.09v15.6C1.12,13.14,2.73,11.35,4.52,10.33z"/>
	<path class="st0" d="M134.89,18.36h0.92c0.12,0,0.21-0.02,0.26-0.06c0.06-0.04,0.1-0.11,0.14-0.19l2.5-5.89h-0.99
		c-0.07,0-0.14,0.02-0.21,0.06s-0.11,0.1-0.13,0.16l-0.82,2.21c-0.07,0.18-0.13,0.35-0.18,0.53c-0.02-0.09-0.05-0.17-0.07-0.26
		s-0.05-0.18-0.09-0.26l-0.88-2.22c-0.02-0.06-0.06-0.11-0.12-0.16c-0.05-0.04-0.13-0.07-0.23-0.07h-1.09l1.86,4.27L134.89,18.36z"
		/>
	<path class="st0" d="M130.47,13.11h0.44v2.5c0,0.2,0.03,0.39,0.09,0.55s0.14,0.3,0.25,0.41c0.11,0.11,0.25,0.2,0.41,0.26
		s0.35,0.09,0.56,0.09c0.23,0,0.45-0.04,0.67-0.1c0.22-0.07,0.41-0.17,0.58-0.31l-0.37-0.59c-0.02-0.04-0.05-0.07-0.07-0.08
		s-0.05-0.02-0.09-0.02c-0.03,0-0.05,0.01-0.08,0.02c-0.03,0.01-0.05,0.03-0.08,0.04c-0.03,0.02-0.07,0.03-0.11,0.04
		c-0.04,0.01-0.09,0.02-0.15,0.02c-0.11,0-0.2-0.04-0.26-0.11s-0.09-0.18-0.09-0.31v-2.42h1.2v-0.86h-1.2v-1.41h-0.65
		c-0.15,0-0.24,0.07-0.27,0.2l-0.25,1.2l-0.74,0.13v0.49c0,0.08,0.02,0.15,0.07,0.19C130.35,13.09,130.41,13.11,130.47,13.11z"/>
	<path class="st0" d="M127.97,11.44c0.07,0.07,0.15,0.12,0.24,0.16s0.19,0.06,0.29,0.06c0.11,0,0.21-0.02,0.3-0.06
		c0.09-0.04,0.18-0.09,0.25-0.16c0.07-0.07,0.13-0.15,0.17-0.24c0.04-0.09,0.06-0.19,0.06-0.29c0-0.1-0.02-0.2-0.06-0.29
		c-0.04-0.09-0.1-0.17-0.17-0.24c-0.07-0.07-0.15-0.12-0.25-0.16c-0.09-0.04-0.2-0.06-0.3-0.06c-0.1,0-0.2,0.02-0.29,0.06
		s-0.17,0.09-0.24,0.16c-0.07,0.07-0.12,0.15-0.16,0.24c-0.04,0.09-0.06,0.19-0.06,0.29c0,0.11,0.02,0.2,0.06,0.29
		C127.85,11.29,127.9,11.37,127.97,11.44z"/>
	<rect x="127.9" y="12.22" class="st0" width="1.24" height="4.64"/>
	<path class="st0" d="M122.16,15.99c0.27,0.3,0.6,0.53,0.99,0.7c0.39,0.17,0.83,0.25,1.32,0.25c0.54,0,1.01-0.09,1.4-0.26
		c0.39-0.17,0.72-0.43,0.98-0.76l-0.54-0.57c-0.05-0.05-0.11-0.08-0.19-0.08c-0.04,0-0.08,0.01-0.12,0.03
		c-0.04,0.02-0.07,0.04-0.1,0.07c-0.1,0.09-0.19,0.16-0.29,0.22c-0.09,0.06-0.19,0.1-0.3,0.14s-0.22,0.06-0.35,0.08
		s-0.26,0.02-0.42,0.02c-0.26,0-0.5-0.05-0.73-0.15c-0.23-0.1-0.42-0.24-0.59-0.43c-0.17-0.19-0.3-0.42-0.4-0.7
		c-0.1-0.27-0.15-0.59-0.15-0.94c0-0.35,0.04-0.66,0.14-0.93c0.09-0.27,0.22-0.5,0.38-0.69c0.16-0.19,0.36-0.33,0.59-0.43
		c0.23-0.1,0.48-0.15,0.75-0.15c0.25,0,0.45,0.03,0.61,0.08c0.16,0.05,0.29,0.11,0.4,0.17c0.11,0.06,0.2,0.12,0.27,0.17
		c0.07,0.05,0.15,0.08,0.22,0.08c0.07,0,0.13-0.01,0.17-0.04s0.08-0.06,0.1-0.1l0.45-0.62c-0.13-0.13-0.27-0.24-0.43-0.35
		c-0.16-0.11-0.33-0.2-0.52-0.27c-0.19-0.07-0.39-0.13-0.6-0.17c-0.21-0.04-0.44-0.06-0.68-0.06c-0.32,0-0.62,0.04-0.91,0.11
		c-0.28,0.07-0.54,0.18-0.79,0.32c-0.24,0.14-0.46,0.31-0.65,0.51c-0.19,0.2-0.35,0.42-0.49,0.67c-0.14,0.25-0.24,0.51-0.31,0.81
		c-0.07,0.29-0.11,0.6-0.11,0.92c0,0.48,0.07,0.93,0.22,1.34S121.89,15.69,122.16,15.99z"/>
	<path class="st0" d="M119.79,12.65c-0.13-0.16-0.3-0.28-0.49-0.36c-0.19-0.09-0.42-0.13-0.67-0.13c-0.15,0-0.29,0.02-0.43,0.05
		c-0.13,0.03-0.25,0.07-0.36,0.13c-0.11,0.05-0.22,0.12-0.32,0.19c-0.1,0.07-0.2,0.16-0.29,0.25l-0.08-0.32
		c-0.05-0.14-0.15-0.22-0.31-0.22h-0.76v4.64h1.24v-3.33c0.14-0.13,0.28-0.24,0.44-0.31c0.15-0.08,0.32-0.11,0.49-0.11
		c0.23,0,0.41,0.07,0.53,0.21s0.18,0.34,0.18,0.6v2.95h1.24v-2.95c0-0.26-0.03-0.5-0.1-0.71S119.93,12.8,119.79,12.65z"/>
	<path class="st0" d="M114.27,15.6c-0.07,0-0.15,0.02-0.23,0.06c-0.08,0.04-0.16,0.09-0.26,0.14c-0.09,0.05-0.2,0.09-0.33,0.13
		c-0.12,0.04-0.27,0.06-0.44,0.06c-0.34,0-0.61-0.1-0.82-0.3c-0.21-0.2-0.33-0.52-0.37-0.95h2.78c0.06,0,0.1-0.01,0.14-0.02
		c0.04-0.01,0.06-0.04,0.09-0.07s0.04-0.08,0.05-0.14c0.01-0.06,0.01-0.14,0.01-0.23c0-0.34-0.05-0.63-0.15-0.9
		c-0.1-0.26-0.24-0.48-0.42-0.66c-0.18-0.18-0.4-0.32-0.65-0.41c-0.25-0.09-0.52-0.14-0.82-0.14c-0.35,0-0.67,0.06-0.94,0.18
		c-0.28,0.12-0.52,0.29-0.71,0.49c-0.2,0.21-0.34,0.45-0.45,0.73s-0.16,0.58-0.16,0.89c0,0.41,0.06,0.77,0.18,1.08
		c0.12,0.31,0.28,0.57,0.49,0.78c0.21,0.21,0.45,0.37,0.73,0.47c0.28,0.11,0.58,0.16,0.91,0.16c0.16,0,0.33-0.01,0.5-0.03
		s0.35-0.06,0.52-0.12s0.34-0.14,0.5-0.24c0.16-0.1,0.3-0.23,0.44-0.38l-0.36-0.45C114.45,15.63,114.37,15.6,114.27,15.6z
		 M112.18,13.27c0.17-0.17,0.4-0.25,0.7-0.25c0.16,0,0.3,0.03,0.41,0.08c0.11,0.05,0.21,0.12,0.28,0.21
		c0.07,0.09,0.13,0.19,0.16,0.31c0.03,0.12,0.05,0.24,0.05,0.37h-1.94C111.9,13.68,112.01,13.44,112.18,13.27z"/>
	<path class="st0" d="M107.61,13.11v3.75h1.24v-3.75h1.11v-0.86h-1.15v-0.27c0-0.16,0.02-0.3,0.05-0.41s0.09-0.2,0.16-0.26
		c0.07-0.06,0.15-0.11,0.25-0.14c0.1-0.03,0.21-0.04,0.34-0.04c0.09,0,0.17-0.01,0.25-0.04c0.07-0.03,0.11-0.09,0.12-0.18l0.03-0.61
		c-0.1-0.03-0.2-0.05-0.29-0.06s-0.2-0.02-0.31-0.02c-0.28,0-0.53,0.04-0.75,0.12c-0.22,0.08-0.41,0.2-0.56,0.34
		c-0.15,0.15-0.27,0.33-0.35,0.54c-0.08,0.21-0.12,0.45-0.12,0.72v0.31h-0.68v0.5c0,0.09,0.03,0.16,0.09,0.21s0.13,0.08,0.23,0.1
		L107.61,13.11z"/>
	<path class="st0" d="M102.4,16.61c0.12,0.11,0.27,0.19,0.43,0.24c0.17,0.05,0.35,0.08,0.56,0.08c0.17,0,0.31-0.01,0.45-0.04
		c0.13-0.03,0.26-0.07,0.38-0.12c0.12-0.05,0.23-0.12,0.34-0.2s0.22-0.17,0.34-0.27l0.1,0.3c0.04,0.11,0.09,0.17,0.15,0.21
		c0.06,0.03,0.15,0.05,0.27,0.05h0.57v-2.92c0-0.26-0.04-0.51-0.12-0.73c-0.08-0.22-0.2-0.41-0.35-0.57s-0.34-0.29-0.55-0.38
		c-0.22-0.09-0.46-0.13-0.74-0.13c-0.38,0-0.74,0.06-1.07,0.18c-0.33,0.12-0.63,0.3-0.9,0.55l0.22,0.4
		c0.04,0.06,0.09,0.11,0.15,0.16c0.06,0.04,0.13,0.06,0.22,0.06c0.1,0,0.19-0.02,0.26-0.06c0.08-0.04,0.16-0.08,0.24-0.13
		c0.09-0.05,0.19-0.09,0.3-0.13c0.11-0.04,0.26-0.06,0.43-0.06c0.23,0,0.41,0.07,0.53,0.2c0.12,0.14,0.18,0.35,0.18,0.64v0.24
		c-0.53,0.01-0.97,0.06-1.33,0.16c-0.35,0.09-0.63,0.21-0.85,0.35s-0.36,0.29-0.45,0.47s-0.13,0.34-0.13,0.51
		c0,0.21,0.03,0.39,0.1,0.55C102.18,16.37,102.28,16.51,102.4,16.61z M103.28,15.35c0.05-0.08,0.13-0.14,0.25-0.21
		c0.12-0.06,0.28-0.11,0.48-0.15c0.2-0.04,0.45-0.06,0.76-0.08v0.72c-0.15,0.16-0.3,0.27-0.45,0.34s-0.33,0.11-0.54,0.11
		c-0.18,0-0.32-0.04-0.42-0.11c-0.1-0.07-0.15-0.2-0.15-0.38C103.2,15.51,103.23,15.43,103.28,15.35z"/>
	<polygon class="st0" points="99.48,13.1 96.6,13.1 96.6,10.33 95.24,10.33 95.24,16.86 96.6,16.86 96.6,14.05 99.48,14.05 
		99.48,16.86 100.84,16.86 100.84,10.33 99.48,10.33 	"/>
	<path class="st0" d="M132.42,31.32l-0.05,0.32c-0.16-0.18-0.34-0.33-0.54-0.43s-0.45-0.15-0.75-0.15c-0.31,0-0.58,0.06-0.82,0.18
		c-0.24,0.12-0.45,0.28-0.62,0.49s-0.3,0.45-0.39,0.73c-0.09,0.28-0.13,0.58-0.13,0.91c0,0.37,0.04,0.69,0.12,0.97
		s0.2,0.52,0.36,0.72c0.15,0.2,0.34,0.34,0.56,0.45c0.22,0.1,0.47,0.15,0.75,0.15c0.15,0,0.29-0.01,0.42-0.04
		c0.13-0.03,0.25-0.07,0.36-0.12c0.11-0.05,0.22-0.12,0.32-0.21c0.1-0.08,0.2-0.18,0.3-0.29v0.48c0,0.17-0.03,0.33-0.08,0.48
		c-0.05,0.15-0.13,0.28-0.24,0.39c-0.11,0.11-0.24,0.2-0.41,0.26s-0.35,0.09-0.57,0.09c-0.19,0-0.35-0.02-0.47-0.06
		s-0.23-0.09-0.32-0.14c-0.09-0.05-0.16-0.09-0.23-0.14s-0.12-0.06-0.18-0.06s-0.1,0.01-0.14,0.03s-0.07,0.05-0.09,0.1l-0.2,0.34
		c0.18,0.16,0.41,0.3,0.68,0.41s0.6,0.16,0.98,0.16c0.34,0,0.65-0.05,0.91-0.14c0.27-0.09,0.49-0.23,0.68-0.39
		c0.18-0.17,0.33-0.37,0.42-0.6c0.1-0.23,0.15-0.49,0.15-0.76v-4.29h-0.53C132.52,31.15,132.45,31.2,132.42,31.32z M132.29,34.3
		c-0.16,0.21-0.34,0.37-0.52,0.48s-0.4,0.17-0.65,0.17c-0.18,0-0.34-0.03-0.47-0.09c-0.14-0.06-0.26-0.16-0.35-0.29
		c-0.09-0.13-0.17-0.29-0.22-0.49c-0.05-0.2-0.07-0.44-0.07-0.71c0-0.53,0.11-0.93,0.33-1.21c0.22-0.28,0.53-0.42,0.93-0.42
		c0.2,0,0.39,0.04,0.56,0.12c0.17,0.08,0.32,0.2,0.46,0.38V34.3z"/>
	<path class="st0" d="M127.94,31.06c-0.29,0-0.54,0.08-0.75,0.26s-0.38,0.41-0.53,0.71l-0.05-0.64c-0.02-0.09-0.04-0.15-0.07-0.18
		c-0.03-0.03-0.1-0.05-0.2-0.05h-0.5v4.57h0.88v-2.86c0.06-0.15,0.12-0.28,0.18-0.39c0.07-0.12,0.14-0.21,0.23-0.29
		c0.09-0.08,0.18-0.14,0.29-0.18c0.11-0.04,0.23-0.06,0.37-0.06c0.1,0,0.19,0.01,0.27,0.02c0.08,0.02,0.15,0.03,0.19,0.03
		c0.08,0,0.13-0.04,0.15-0.12l0.06-0.66c-0.07-0.04-0.14-0.08-0.23-0.1C128.13,31.07,128.04,31.06,127.94,31.06z"/>
	<path class="st0" d="M123.35,34.49c-0.17,0.19-0.35,0.33-0.55,0.44c-0.2,0.11-0.41,0.16-0.63,0.16c-0.31,0-0.54-0.09-0.69-0.27
		c-0.15-0.18-0.22-0.44-0.22-0.76v-2.91h-0.88v2.91c0,0.26,0.03,0.49,0.1,0.71s0.16,0.4,0.29,0.55s0.29,0.27,0.48,0.35
		c0.19,0.08,0.41,0.13,0.66,0.13c0.16,0,0.31-0.02,0.45-0.05c0.14-0.04,0.27-0.08,0.39-0.14s0.24-0.14,0.35-0.22
		c0.11-0.09,0.21-0.18,0.31-0.29l0.06,0.46c0.04,0.12,0.11,0.18,0.23,0.18h0.53v-4.57h-0.88V34.49z"/>
	<path class="st0" d="M118.6,31.67c-0.15-0.19-0.33-0.34-0.55-0.45s-0.46-0.16-0.72-0.16c-0.31,0-0.58,0.06-0.82,0.19
		c-0.24,0.13-0.45,0.3-0.64,0.51v-2.7h-0.88v6.64h0.57c0.13,0,0.2-0.06,0.23-0.18l0.04-0.38c0.08,0.1,0.16,0.19,0.25,0.27
		c0.09,0.08,0.18,0.14,0.29,0.2s0.22,0.1,0.34,0.12s0.26,0.04,0.41,0.04c0.3,0,0.58-0.06,0.82-0.18c0.24-0.12,0.45-0.29,0.62-0.5
		s0.3-0.48,0.39-0.78c0.09-0.3,0.14-0.64,0.14-1.01c0-0.35-0.04-0.66-0.12-0.94C118.86,32.1,118.75,31.87,118.6,31.67z
		 M117.82,34.67c-0.22,0.29-0.53,0.44-0.94,0.44c-0.2,0-0.38-0.04-0.55-0.11c-0.17-0.08-0.32-0.21-0.47-0.4v-2.16
		c0.16-0.21,0.33-0.37,0.52-0.49s0.4-0.17,0.65-0.17c0.36,0,0.63,0.13,0.83,0.38c0.19,0.25,0.29,0.65,0.29,1.2
		C118.16,33.93,118.04,34.37,117.82,34.67z"/>
	<path class="st0" d="M113.02,31.52c-0.13-0.15-0.29-0.26-0.48-0.33c-0.19-0.08-0.41-0.11-0.65-0.11c-0.15,0-0.3,0.02-0.44,0.05
		s-0.28,0.09-0.41,0.17c-0.13,0.08-0.25,0.17-0.35,0.29s-0.19,0.26-0.26,0.42c-0.09-0.29-0.23-0.51-0.41-0.68
		c-0.19-0.17-0.44-0.25-0.74-0.25c-0.28,0-0.52,0.06-0.72,0.19c-0.21,0.13-0.39,0.29-0.56,0.49l-0.06-0.44
		c-0.03-0.12-0.11-0.18-0.23-0.18h-0.53v4.57h0.88v-3.39c0.13-0.17,0.28-0.31,0.45-0.41c0.16-0.1,0.34-0.15,0.53-0.15
		c0.27,0,0.48,0.08,0.62,0.25s0.21,0.43,0.21,0.78v2.91h0.88v-2.91c0-0.17,0.02-0.32,0.07-0.45c0.05-0.13,0.12-0.24,0.2-0.32
		c0.09-0.09,0.19-0.15,0.3-0.2c0.11-0.04,0.23-0.07,0.36-0.07c0.28,0,0.5,0.09,0.65,0.26s0.22,0.43,0.22,0.77v2.91h0.88v-2.91
		c0-0.28-0.03-0.52-0.1-0.74C113.26,31.85,113.16,31.67,113.02,31.52z"/>
	<path class="st0" d="M105.2,31.55c-0.14-0.15-0.31-0.27-0.51-0.36c-0.2-0.09-0.43-0.13-0.69-0.13c-0.36,0-0.68,0.06-0.98,0.18
		c-0.3,0.12-0.58,0.3-0.83,0.54l0.16,0.28c0.03,0.04,0.06,0.08,0.11,0.12s0.1,0.05,0.16,0.05c0.08,0,0.15-0.02,0.22-0.07
		s0.15-0.1,0.25-0.16c0.09-0.06,0.21-0.11,0.34-0.16c0.13-0.05,0.29-0.07,0.48-0.07c0.28,0,0.5,0.08,0.65,0.26
		c0.15,0.17,0.22,0.43,0.22,0.77v0.33c-0.52,0.01-0.96,0.06-1.31,0.14c-0.36,0.08-0.64,0.19-0.86,0.32
		c-0.22,0.13-0.38,0.28-0.48,0.45c-0.1,0.17-0.15,0.34-0.15,0.52c0,0.2,0.03,0.38,0.1,0.54c0.07,0.15,0.16,0.28,0.28,0.38
		c0.12,0.1,0.25,0.18,0.41,0.23c0.16,0.05,0.33,0.07,0.51,0.07c0.17,0,0.33-0.02,0.47-0.04c0.14-0.03,0.27-0.07,0.4-0.13
		s0.24-0.13,0.36-0.21c0.11-0.08,0.23-0.18,0.35-0.29l0.09,0.4c0.03,0.08,0.06,0.13,0.11,0.16c0.05,0.03,0.11,0.04,0.2,0.04h0.39
		V32.8c0-0.26-0.04-0.49-0.11-0.71C105.45,31.88,105.34,31.7,105.2,31.55z M104.76,34.59c-0.09,0.09-0.18,0.18-0.27,0.25
		c-0.09,0.07-0.18,0.13-0.28,0.18c-0.1,0.05-0.2,0.09-0.32,0.12c-0.11,0.03-0.24,0.04-0.37,0.04c-0.1,0-0.2-0.01-0.28-0.04
		c-0.09-0.02-0.16-0.06-0.23-0.12s-0.12-0.12-0.15-0.2c-0.04-0.08-0.06-0.18-0.06-0.29c0-0.12,0.03-0.23,0.1-0.33
		c0.07-0.1,0.18-0.18,0.34-0.25c0.16-0.07,0.36-0.13,0.61-0.17c0.25-0.04,0.55-0.07,0.91-0.08V34.59z"/>
	<polygon class="st0" points="99.68,32.11 96.31,32.11 96.31,29.26 95.35,29.26 95.35,35.72 96.31,35.72 96.31,32.81 99.68,32.81 
		99.68,35.72 100.64,35.72 100.64,29.26 99.68,29.26 	"/>
	<path class="st0" d="M99.4,23.92c0,0.24-0.03,0.46-0.09,0.65c-0.06,0.19-0.15,0.36-0.27,0.49c-0.12,0.13-0.27,0.24-0.44,0.31
		c-0.17,0.07-0.37,0.11-0.59,0.11c-0.22,0-0.42-0.04-0.59-0.11c-0.17-0.07-0.32-0.18-0.44-0.31c-0.12-0.14-0.21-0.3-0.27-0.49
		c-0.06-0.19-0.09-0.41-0.09-0.65v-3.89h-1.35v3.89c0,0.4,0.06,0.76,0.19,1.09c0.13,0.33,0.31,0.62,0.55,0.86
		c0.24,0.24,0.53,0.43,0.87,0.56c0.34,0.13,0.72,0.2,1.15,0.2s0.81-0.07,1.15-0.2c0.34-0.14,0.63-0.32,0.86-0.56
		c0.24-0.24,0.42-0.53,0.55-0.86c0.13-0.33,0.19-0.7,0.19-1.09v-3.89H99.4V23.92z"/>
	<path class="st0" d="M105.81,22.35c-0.13-0.16-0.3-0.28-0.49-0.36c-0.19-0.09-0.42-0.13-0.67-0.13c-0.15,0-0.29,0.02-0.43,0.04
		s-0.25,0.07-0.36,0.13c-0.11,0.05-0.22,0.12-0.32,0.19c-0.1,0.08-0.2,0.16-0.29,0.25l-0.08-0.32c-0.05-0.14-0.15-0.22-0.31-0.22
		h-0.76v4.64h1.24v-3.33c0.14-0.14,0.28-0.24,0.44-0.31c0.15-0.08,0.32-0.11,0.49-0.11c0.23,0,0.41,0.07,0.53,0.21
		s0.18,0.34,0.18,0.6v2.95h1.24v-2.95c0-0.26-0.03-0.5-0.1-0.71C106.05,22.69,105.95,22.5,105.81,22.35z"/>
	<rect x="107.62" y="21.93" class="st0" width="1.24" height="4.64"/>
	<path class="st0" d="M109.01,20.61c0-0.1-0.02-0.2-0.06-0.29c-0.04-0.09-0.1-0.17-0.17-0.24c-0.07-0.07-0.15-0.12-0.25-0.16
		c-0.09-0.04-0.2-0.06-0.3-0.06c-0.1,0-0.2,0.02-0.29,0.06c-0.09,0.04-0.17,0.09-0.24,0.16c-0.07,0.07-0.12,0.15-0.16,0.24
		c-0.04,0.09-0.06,0.19-0.06,0.29s0.02,0.2,0.06,0.29s0.1,0.17,0.16,0.24c0.07,0.07,0.15,0.12,0.24,0.16
		c0.09,0.04,0.19,0.06,0.29,0.06c0.11,0,0.21-0.02,0.3-0.06c0.09-0.04,0.18-0.09,0.25-0.16c0.07-0.07,0.13-0.15,0.17-0.24
		S109.01,20.71,109.01,20.61z"/>
	<path class="st0" d="M113.39,21.99c-0.06,0.04-0.1,0.1-0.12,0.16l-0.81,2.29c-0.05,0.16-0.1,0.31-0.14,0.46s-0.08,0.3-0.11,0.45
		c-0.03-0.15-0.06-0.3-0.1-0.45s-0.08-0.3-0.14-0.46l-0.78-2.29c-0.02-0.07-0.07-0.12-0.13-0.16s-0.14-0.06-0.23-0.06h-1.03
		l1.82,4.64h1.13l1.82-4.64h-0.98C113.52,21.93,113.45,21.95,113.39,21.99z"/>
	<path class="st0" d="M118.83,22.41c-0.18-0.18-0.4-0.32-0.65-0.41c-0.25-0.09-0.52-0.14-0.82-0.14c-0.35,0-0.67,0.06-0.94,0.18
		c-0.28,0.12-0.52,0.29-0.71,0.49c-0.2,0.21-0.34,0.45-0.45,0.73c-0.1,0.28-0.16,0.58-0.16,0.89c0,0.41,0.06,0.77,0.18,1.08
		c0.12,0.31,0.28,0.57,0.49,0.78c0.21,0.21,0.45,0.37,0.73,0.47c0.28,0.11,0.58,0.16,0.91,0.16c0.16,0,0.33-0.01,0.5-0.03
		s0.35-0.06,0.52-0.12s0.34-0.14,0.5-0.24c0.16-0.1,0.3-0.23,0.44-0.38l-0.36-0.45c-0.05-0.07-0.13-0.11-0.23-0.11
		c-0.07,0-0.15,0.02-0.23,0.06s-0.16,0.09-0.26,0.13c-0.09,0.05-0.2,0.09-0.33,0.14s-0.27,0.06-0.44,0.06c-0.34,0-0.61-0.1-0.82-0.3
		c-0.21-0.2-0.33-0.52-0.37-0.95h2.78c0.06,0,0.1-0.01,0.14-0.02c0.04-0.01,0.06-0.04,0.09-0.07c0.02-0.04,0.04-0.08,0.05-0.14
		c0.01-0.06,0.01-0.14,0.01-0.23c0-0.34-0.05-0.64-0.15-0.9C119.15,22.81,119.01,22.59,118.83,22.41z M116.36,23.7
		c0.05-0.31,0.16-0.55,0.33-0.72s0.4-0.25,0.7-0.25c0.16,0,0.3,0.03,0.41,0.08c0.11,0.05,0.21,0.12,0.28,0.21
		c0.07,0.09,0.13,0.19,0.16,0.31c0.03,0.12,0.05,0.24,0.05,0.37H116.36z"/>
	<path class="st0" d="M121.8,23.73c0.05-0.11,0.1-0.21,0.16-0.3c0.06-0.09,0.12-0.16,0.19-0.22c0.07-0.06,0.15-0.11,0.24-0.14
		c0.09-0.03,0.19-0.05,0.3-0.05c0.08,0,0.16,0.01,0.25,0.02c0.09,0.01,0.16,0.02,0.21,0.02c0.05,0,0.1-0.01,0.13-0.03
		c0.03-0.02,0.05-0.06,0.07-0.12l0.08-0.92c-0.13-0.1-0.3-0.15-0.51-0.15c-0.26,0-0.48,0.08-0.67,0.23s-0.36,0.36-0.51,0.63
		l-0.07-0.46c-0.02-0.11-0.06-0.19-0.1-0.23c-0.05-0.05-0.13-0.07-0.26-0.07h-0.73v4.64h1.24V23.73z"/>
	<path class="st0" d="M127.04,26.2c0.16-0.14,0.28-0.3,0.36-0.49s0.12-0.4,0.12-0.62c0-0.19-0.03-0.35-0.09-0.48
		s-0.15-0.25-0.25-0.34c-0.1-0.09-0.22-0.17-0.35-0.24s-0.27-0.12-0.41-0.17s-0.28-0.09-0.41-0.13c-0.13-0.04-0.25-0.08-0.35-0.13
		c-0.1-0.05-0.19-0.1-0.25-0.16s-0.09-0.14-0.09-0.23c0-0.13,0.06-0.24,0.17-0.33c0.11-0.08,0.27-0.12,0.47-0.12
		c0.13,0,0.25,0.02,0.35,0.05c0.1,0.03,0.19,0.06,0.27,0.1c0.08,0.03,0.15,0.07,0.21,0.1s0.12,0.04,0.18,0.04s0.11-0.01,0.14-0.03
		c0.03-0.02,0.07-0.06,0.1-0.11l0.28-0.44c-0.17-0.17-0.4-0.31-0.67-0.42c-0.27-0.11-0.57-0.16-0.9-0.16
		c-0.29,0-0.55,0.04-0.78,0.12c-0.22,0.08-0.41,0.18-0.56,0.32c-0.15,0.13-0.26,0.28-0.34,0.46c-0.07,0.17-0.11,0.35-0.11,0.55
		c0,0.21,0.03,0.39,0.1,0.54c0.06,0.15,0.15,0.27,0.25,0.37s0.22,0.18,0.36,0.25s0.27,0.12,0.41,0.17c0.14,0.05,0.28,0.09,0.41,0.13
		s0.25,0.08,0.36,0.13s0.19,0.1,0.25,0.17s0.1,0.15,0.1,0.25c0,0.06-0.01,0.12-0.04,0.18c-0.03,0.06-0.07,0.11-0.12,0.16
		c-0.05,0.05-0.12,0.08-0.21,0.11c-0.09,0.03-0.19,0.04-0.31,0.04c-0.16,0-0.29-0.02-0.4-0.06c-0.11-0.04-0.2-0.08-0.28-0.12
		s-0.15-0.08-0.21-0.12s-0.13-0.06-0.21-0.06c-0.08,0-0.14,0.01-0.19,0.04c-0.05,0.03-0.09,0.07-0.12,0.13L124,26.07
		c0.09,0.08,0.2,0.16,0.32,0.23s0.25,0.13,0.4,0.18c0.14,0.05,0.29,0.09,0.45,0.12c0.16,0.03,0.31,0.04,0.47,0.04
		c0.31,0,0.58-0.04,0.82-0.12C126.69,26.44,126.89,26.33,127.04,26.2z"/>
	<rect x="128.73" y="21.93" class="st0" width="1.24" height="4.64"/>
	<path class="st0" d="M129.05,21.3c0.09,0.04,0.19,0.06,0.29,0.06c0.11,0,0.21-0.02,0.3-0.06c0.09-0.04,0.18-0.09,0.25-0.16
		c0.07-0.07,0.13-0.15,0.17-0.24s0.06-0.19,0.06-0.29s-0.02-0.2-0.06-0.29c-0.04-0.09-0.1-0.17-0.17-0.24
		c-0.07-0.07-0.15-0.12-0.25-0.16c-0.09-0.04-0.2-0.06-0.3-0.06c-0.1,0-0.2,0.02-0.29,0.06c-0.09,0.04-0.17,0.09-0.24,0.16
		c-0.07,0.07-0.12,0.15-0.16,0.24c-0.04,0.09-0.06,0.19-0.06,0.29s0.02,0.2,0.06,0.29s0.1,0.17,0.16,0.24
		C128.88,21.21,128.96,21.26,129.05,21.3z"/>
	<path class="st0" d="M133.83,25.55c-0.02-0.02-0.05-0.02-0.09-0.02c-0.03,0-0.05,0.01-0.08,0.02c-0.03,0.01-0.05,0.03-0.08,0.04
		s-0.07,0.03-0.11,0.04s-0.09,0.02-0.15,0.02c-0.11,0-0.2-0.04-0.26-0.11s-0.09-0.18-0.09-0.31v-2.42h1.2v-0.86h-1.2v-1.41h-0.65
		c-0.15,0-0.24,0.07-0.27,0.2l-0.25,1.2l-0.74,0.14v0.49c0,0.08,0.02,0.15,0.07,0.19c0.05,0.04,0.1,0.06,0.17,0.06h0.44v2.5
		c0,0.2,0.03,0.39,0.09,0.55c0.06,0.16,0.14,0.3,0.25,0.41c0.11,0.11,0.25,0.2,0.41,0.26c0.16,0.06,0.35,0.09,0.56,0.09
		c0.23,0,0.45-0.03,0.67-0.1c0.22-0.07,0.41-0.17,0.58-0.31l-0.37-0.59C133.88,25.59,133.85,25.57,133.83,25.55z"/>
	<path class="st0" d="M138.15,20.13c-0.08-0.03-0.17-0.05-0.26-0.05c-0.09,0-0.18,0.02-0.26,0.05c-0.08,0.03-0.15,0.08-0.21,0.14
		c-0.06,0.06-0.11,0.13-0.14,0.21c-0.03,0.08-0.05,0.17-0.05,0.26c0,0.09,0.02,0.17,0.05,0.25c0.03,0.08,0.08,0.15,0.14,0.2
		s0.13,0.1,0.21,0.14s0.17,0.05,0.26,0.05c0.09,0,0.18-0.02,0.26-0.05s0.15-0.08,0.21-0.14s0.11-0.13,0.14-0.2
		c0.04-0.08,0.05-0.16,0.05-0.25c0-0.09-0.02-0.18-0.05-0.26c-0.04-0.08-0.08-0.15-0.14-0.21
		C138.31,20.21,138.24,20.16,138.15,20.13z"/>
	<path class="st0" d="M138.37,22.35c-0.15-0.16-0.34-0.29-0.55-0.38c-0.22-0.09-0.46-0.13-0.74-0.13c-0.38,0-0.74,0.06-1.07,0.18
		s-0.63,0.31-0.9,0.55l0.22,0.4c0.04,0.06,0.09,0.11,0.15,0.16s0.13,0.07,0.22,0.07c0.1,0,0.19-0.02,0.26-0.06
		c0.08-0.04,0.16-0.08,0.24-0.13s0.19-0.09,0.3-0.13c0.11-0.04,0.26-0.06,0.43-0.06c0.23,0,0.41,0.07,0.53,0.21
		c0.12,0.14,0.18,0.35,0.18,0.64v0.24c-0.53,0.01-0.97,0.06-1.33,0.16c-0.35,0.09-0.63,0.21-0.85,0.35s-0.36,0.29-0.45,0.47
		s-0.13,0.34-0.13,0.51c0,0.21,0.03,0.39,0.1,0.55s0.16,0.29,0.28,0.4c0.12,0.11,0.27,0.19,0.43,0.24c0.17,0.05,0.35,0.08,0.56,0.08
		c0.17,0,0.31-0.01,0.45-0.04c0.13-0.03,0.26-0.07,0.38-0.12c0.12-0.05,0.23-0.12,0.34-0.2c0.11-0.08,0.22-0.17,0.34-0.27l0.1,0.3
		c0.04,0.1,0.09,0.17,0.15,0.21c0.06,0.03,0.15,0.05,0.27,0.05h0.57v-2.92c0-0.26-0.04-0.51-0.12-0.73S138.52,22.51,138.37,22.35z
		 M137.63,25.35c-0.15,0.16-0.3,0.27-0.45,0.34c-0.15,0.07-0.33,0.11-0.54,0.11c-0.18,0-0.32-0.04-0.42-0.11s-0.15-0.2-0.15-0.38
		c0-0.09,0.02-0.17,0.07-0.25c0.05-0.08,0.13-0.14,0.25-0.2s0.28-0.11,0.48-0.15c0.2-0.04,0.45-0.06,0.76-0.08V25.35z"/>
	<path class="st0" d="M136.28,20.13c-0.08-0.03-0.17-0.05-0.26-0.05c-0.09,0-0.17,0.02-0.25,0.05c-0.08,0.03-0.15,0.08-0.21,0.14
		c-0.06,0.06-0.11,0.13-0.14,0.21s-0.05,0.17-0.05,0.26c0,0.09,0.02,0.17,0.05,0.25c0.04,0.08,0.08,0.15,0.14,0.2
		s0.13,0.1,0.21,0.14s0.16,0.05,0.25,0.05c0.09,0,0.18-0.02,0.26-0.05s0.15-0.08,0.22-0.14s0.11-0.13,0.15-0.2
		c0.04-0.08,0.05-0.16,0.05-0.25c0-0.09-0.02-0.18-0.05-0.26c-0.04-0.08-0.08-0.15-0.15-0.21
		C136.44,20.21,136.36,20.16,136.28,20.13z"/>
	<path class="st0" d="M142.62,25.63c-0.02-0.04-0.05-0.07-0.07-0.08s-0.05-0.02-0.09-0.02c-0.03,0-0.05,0.01-0.08,0.02
		c-0.03,0.01-0.05,0.03-0.08,0.04s-0.07,0.03-0.11,0.04c-0.04,0.01-0.09,0.02-0.15,0.02c-0.11,0-0.2-0.04-0.26-0.11
		c-0.06-0.08-0.09-0.18-0.09-0.31v-2.42h1.2v-0.86h-1.2v-1.41h-0.65c-0.15,0-0.24,0.07-0.28,0.2l-0.25,1.2l-0.74,0.14v0.49
		c0,0.08,0.02,0.15,0.07,0.19c0.05,0.04,0.1,0.06,0.17,0.06h0.44v2.5c0,0.2,0.03,0.39,0.09,0.55c0.06,0.16,0.14,0.3,0.25,0.41
		c0.11,0.11,0.25,0.2,0.41,0.26c0.16,0.06,0.35,0.09,0.56,0.09c0.23,0,0.46-0.03,0.67-0.1c0.22-0.07,0.41-0.17,0.58-0.31
		L142.62,25.63z"/>
</g>
</svg>
