<?xml version="1.0" encoding="UTF-8" standalone="no"?>
<!--
Font Awesome Free 5.0.13 by @fontawesome - https://fontawesome.com
License - https://fontawesome.com/license (Icons: CC BY 4.0, Fonts: SIL OFL 1.1, Code: MIT License)
-->

<svg
   xmlns:dc="http://purl.org/dc/elements/1.1/"
   xmlns:cc="http://creativecommons.org/ns#"
   xmlns:rdf="http://www.w3.org/1999/02/22-rdf-syntax-ns#"
   xmlns:svg="http://www.w3.org/2000/svg"
   xmlns="http://www.w3.org/2000/svg"
   xmlns:sodipodi="http://sodipodi.sourceforge.net/DTD/sodipodi-0.dtd"
   xmlns:inkscape="http://www.inkscape.org/namespaces/inkscape"
   version="1.1"
   width="24"
   height="25"
   id="svg2"
   inkscape:version="0.91 r13725"
   sodipodi:docname="novideo-dark.svg">
  <metadata
     id="metadata12">
    <rdf:RDF>
      <cc:Work
         rdf:about="">
        <dc:format>image/svg+xml</dc:format>
        <dc:type
           rdf:resource="http://purl.org/dc/dcmitype/StillImage" />
      </cc:Work>
    </rdf:RDF>
  </metadata>
  <defs
     id="defs10" />
  <sodipodi:namedview
     pagecolor="#ffffff"
     bordercolor="#666666"
     borderopacity="1"
     objecttolerance="10"
     gridtolerance="10"
     guidetolerance="10"
     inkscape:pageopacity="0"
     inkscape:pageshadow="2"
     inkscape:window-width="1920"
     inkscape:window-height="1031"
     id="namedview8"
     showgrid="false"
     inkscape:zoom="9.44"
     inkscape:cx="12.211864"
     inkscape:cy="12.5"
     inkscape:window-x="0"
     inkscape:window-y="25"
     inkscape:window-maximized="1"
     inkscape:current-layer="svg2" />
  <path
     d="m 21.942711,8.321457 0,8.609795 c 0,1.649082 -1.99498,2.460605 -3.15061,1.305061 l -4.231648,-4.230124 0,2.92667 c 0,1.019294 -0.826273,1.845573 -1.845564,1.845573 l -8.6126335,0 c -1.0192897,0 -1.8455641,-0.826279 -1.8455641,-1.845573 l 0,-8.6126324 c 0,-1.0192683 0.8262744,-1.8455563 1.8455641,-1.8455563 l 8.6126335,0 c 1.019291,0 1.845564,0.826288 1.845564,1.8455563 l 0,2.9266974 4.231648,-4.2304286 c 1.154324,-1.1542489 3.15061,-0.3453502 3.15061,1.3049616 z"
     style="fill:#000000;fill-opacity:1;stroke:#000000;stroke-width:1.64050162;stroke-linecap:round;stroke-opacity:1"
     id="path4" />
  <path
     d="M 2.764884,1.202462 18.219269,23.90347"
     style="stroke:#000000;stroke-width:2;stroke-linecap:round;stroke-opacity:1;fill:none"
     id="path6" />
</svg>
