<svg xmlns="http://www.w3.org/2000/svg" version="1.1" xmlns:xlink="http://www.w3.org/1999/xlink" xmlns:svgjs="http://svgjs.dev/svgjs" viewBox="0 0 19.75603151257579 7.059322358897181"><g transform="matrix(1,0,0,1,5.733752199189953,1.7290942216737077)"><g><path d=" M 0.2622215694908132 0.021098287200410404 L 1.2455524550813628 0.021098287200410404 L 1.1558847344796193 0.41066309015084257 L 0.8936631649888059 0.41066309015084257 L 0.935106229132469 0.22831360791872535 L 0.6412372288410404 0.22831360791872535 L 0.5802028980112821 0.49053517740953856 L 0.8537271213594579 0.49053517740953856 L 0.8024884238727473 0.7098066622423738 L 0.5289642005245715 0.7098066622423738 L 0.4716974209806008 0.9569580265900368 L 0.6035617159831649 0.9569580265900368 L 0.5553370595250843 1.1634198370511943 L 0.045964125686608064 1.1634198370511943 L 0.09418878214468866 0.9569580265900368 L 0.20796883097547256 0.9569580265900368 L 0.37675512857875465 0.22831360791872535 L 0.21475042328989014 0.22831360791872535 L 0.2622215694908132 0.021098287200410404 M 1.3887194039412896 0.021098287200410404 L 2.366022207474579 0.021098287200410404 L 2.276354486872836 0.41066309015084257 L 2.012625896867707 0.41066309015084257 L 2.05406896101137 0.22831360791872535 L 1.7368411427480588 0.22831360791872535 L 1.6795743632040883 0.47395795175207334 L 1.9335073198661687 0.47395795175207334 L 1.8830221326366157 0.6924759263277511 L 1.629089175974535 0.6924759263277511 L 1.5673013348876192 0.9569580265900368 L 1.865691396721993 0.9569580265900368 L 1.911655522408601 0.7542637674146668 L 2.176137622670887 0.7542637674146668 L 2.081948840526198 1.1634198370511943 L 1.1385539985649966 1.1634198370511943 L 1.1867786550230772 0.9569580265900368 L 1.3035727448824912 0.9569580265900368 L 1.472359042485773 0.22831360791872535 L 1.3412482577403666 0.22831360791872535 L 1.3887194039412896 0.021098287200410404 M 2.5227523409633412 0.021098287200410404 L 3.5000551444966304 0.021098287200410404 L 3.4103874238948872 0.41066309015084257 L 3.1466588338897585 0.41066309015084257 L 3.1881018980334215 0.22831360791872535 L 2.87087407977011 0.22831360791872535 L 2.8136073002261397 0.47395795175207334 L 3.06754025688822 0.47395795175207334 L 3.0170550696586673 0.6924759263277511 L 2.7631221129965864 0.6924759263277511 L 2.701334271909671 0.9569580265900368 L 2.9997243337440445 0.9569580265900368 L 3.0456884594306524 0.7542637674146668 L 3.3101705596929385 0.7542637674146668 L 3.2159817775482495 1.1634198370511943 L 2.272586935587048 1.1634198370511943 L 2.3208115920451284 0.9569580265900368 L 2.4376056819045426 0.9569580265900368 L 2.6063919795078245 0.22831360791872535 L 2.475281194762418 0.22831360791872535 L 2.5227523409633412 0.021098287200410404 M 3.6567852779853927 0.021098287200410404 L 4.166158211823869 0.021098287200410404 L 4.118687065622946 0.22831360791872535 L 4.003399996277847 0.22831360791872535 L 3.833860188417407 0.9569580265900368 L 4.050117632221612 0.9569580265900368 Q 4.077244001479283 0.9569580265900368 4.096458513036799 0.9392505355468354 Q 4.115673024594315 0.9215430445036339 4.12320812716589 0.8951701855031211 L 4.160130129766609 0.7437146238144616 L 4.414816596685847 0.7437146238144616 L 4.319120794026843 1.1634198370511943 L 3.4066198726090993 1.1634198370511943 L 3.45484452906718 0.9569580265900368 L 3.570131598412279 0.9569580265900368 L 3.738917896015561 0.22831360791872535 L 3.6093141317844695 0.22831360791872535 L 3.6567852779853927 0.021098287200410404 M 5.206755876958389 1.1634198370511943 L 5.246691920587737 0.9916194984192822 Q 5.216551510301437 1.039844154877363 5.168703608971935 1.0854315254353921 Q 5.120855707642433 1.1310188959934215 5.051156008855363 1.1588987755082494 Q 4.981456310068294 1.1867786550230772 4.908365815124015 1.1867786550230772 Q 4.809655971436381 1.1867786550230772 4.725262822634741 1.151740428065253 Q 4.6408696738331 1.1167022011074288 4.578705077617605 1.053407339506198 Q 4.51654048140211 0.9901124779049673 4.4811254993157075 0.9015750226889598 Q 4.445710517229305 0.8130375674729525 4.445710517229305 0.7052856006994287 Q 4.445710517229305 0.5982871441830624 4.472836886486975 0.5044751171669525 Q 4.499963255744645 0.41066309015084257 4.547811157074147 0.33229802340646164 Q 4.595659058403649 0.2539329566620807 4.660837695647774 0.1921451155751649 Q 4.7260163328918985 0.13035727448824908 4.802120868864806 0.08778394495884978 Q 4.878225404837715 0.04521061542945071 4.962241798510777 0.022605307714725242 Q 5.046258192183839 0 5.132158361499796 0 Q 5.190932161558082 0 5.246691920587737 0.012432919243098972 Q 5.302451679617393 0.024865838486197944 5.351053091204053 0.04709439107234448 Q 5.399654502790711 0.06932294365849101 5.437706770777165 0.09908659881621262 Q 5.47575903876362 0.12885025397393424 5.501378387506975 0.16200470528886446 L 5.635503213281012 0.16200470528886446 L 5.587278556822931 0.3684665157500221 L 5.29416306678866 0.3684665157500221 Q 5.284367433445612 0.3451076977781393 5.266659942402411 0.3232559003205715 Q 5.24895245135921 0.3014041028630038 5.224086612873012 0.28482687720553856 Q 5.199220774386814 0.26824965154807334 5.167950098714777 0.2584540182050258 Q 5.13667942304274 0.2486583848619781 5.099757420442023 0.2486583848619781 Q 5.022899374211957 0.2486583848619781 4.953576430553466 0.28482687720553856 Q 4.884253486894975 0.320995369549099 4.832261279151107 0.3812761901216998 Q 4.780269071407239 0.4415570106943004 4.749375150863781 0.5191685671815239 Q 4.718481230320323 0.5967801236687473 4.718481230320323 0.6804197622132309 Q 4.718481230320323 0.7369330315000441 4.733928190592052 0.7844041777009672 Q 4.749375150863781 0.8318753239018903 4.778385295764345 0.8669135508597144 Q 4.8073954406649095 0.9019517778175385 4.849215259937151 0.9215430445036339 Q 4.891035079209392 0.9411343111897291 4.943780797210418 0.9411343111897291 Q 4.992758963925656 0.9411343111897291 5.039853354998001 0.9264408611751577 Q 5.086947746070345 0.9117474111605863 5.126507034571114 0.8857513072886523 Q 5.166066323071884 0.8597552034167182 5.193569447458133 0.8269775072303664 Q 5.221072571844382 0.7941998110440148 5.235389266730374 0.7602918494719269 L 4.995019494697129 0.7602918494719269 L 5.042490640898052 0.5538300390107693 L 5.573715372194096 0.5538300390107693 L 5.432055443848484 1.1634198370511943 L 5.206755876958389 1.1634198370511943 M 6.103433082975825 1.1867786550230772 Q 6.000955688002404 1.1867786550230772 5.914678763557869 1.151740428065253 Q 5.828401839113334 1.1167022011074288 5.765483732640682 1.053407339506198 Q 5.70256562616803 0.9901124779049673 5.667527399210206 0.9015750226889598 Q 5.632489172252382 0.8130375674729525 5.632489172252382 0.7052856006994287 Q 5.632489172252382 0.5982871441830624 5.659615541510052 0.5044751171669525 Q 5.686741910767722 0.41066309015084257 5.734589812097224 0.33229802340646164 Q 5.782437713426726 0.2539329566620807 5.847616350670851 0.1921451155751649 Q 5.9127949879149755 0.13035727448824908 5.988899523887883 0.08778394495884978 Q 6.065004059860792 0.04521061542945071 6.149020453533854 0.022605307714725242 Q 6.233036847206916 0 6.318937016522873 0 Q 6.425935473039239 0 6.512965907740932 0.035414982086402924 Q 6.599996342442624 0.07082996417280585 6.661407428400961 0.13450158090261555 Q 6.722818514359298 0.19817319763242502 6.756349720802807 0.28708740797701104 Q 6.789880927246315 0.3760016183215972 6.789880927246315 0.4830000748379635 Q 6.789880927246315 0.5877380005828573 6.76463833363154 0.6804197622132309 Q 6.739395740016763 0.7731015238436045 6.693431614330155 0.8514665905879855 Q 6.647467488643547 0.9298316573323665 6.5841726270423155 0.991996253547861 Q 6.520877765441085 1.0541608497633554 6.444396474339598 1.0974876895499124 Q 6.367915183238111 1.140814529336469 6.281638258793576 1.163796592179773 Q 6.195361334349041 1.1867786550230772 6.103433082975825 1.1867786550230772 M 6.132066472747811 0.933599208618154 Q 6.182551659977364 0.933599208618154 6.230776316435444 0.9173987380892675 Q 6.279000972893525 0.9011982675603811 6.321197547294346 0.8725648777883958 Q 6.3633941216951655 0.8439314880164104 6.398809103781568 0.8039954443870625 Q 6.434224085867972 0.7640594007577144 6.459466679482748 0.7165882545567914 Q 6.484709273097525 0.6691171083558682 6.499025967983517 0.6156178800976851 Q 6.51334266286951 0.5621186518395019 6.51334266286951 0.5063588928098463 Q 6.51334266286951 0.44984562352303303 6.4978957025977815 0.4035047427078463 Q 6.482448742326052 0.3571638618926595 6.4530618422969095 0.3236326554491503 Q 6.423674942267766 0.29010144900564117 6.381478367866946 0.2716404477052822 Q 6.339281793466125 0.2531794464049232 6.2865360754651 0.2531794464049232 Q 6.209678029235034 0.2531794464049232 6.140355085576543 0.2885944284913261 Q 6.071032141918052 0.32400941057772903 6.019039934174184 0.38353672089317226 Q 5.967047726430316 0.4430640312086155 5.936153805886858 0.5199220774386815 Q 5.9052598853434 0.5967801236687473 5.9052598853434 0.6804197622132309 Q 5.9052598853434 0.7369330315000441 5.9210836007437075 0.7832739123152309 Q 5.936907316144016 0.8296147931304177 5.966670971301737 0.8631459995739269 Q 5.996434626459458 0.8966772060174361 6.038254445731701 0.915138207317795 Q 6.080074265003942 0.933599208618154 6.132066472747811 0.933599208618154 M 7.306788963656367 1.1867786550230772 Q 7.204311568682946 1.1867786550230772 7.118034644238411 1.151740428065253 Q 7.031757719793876 1.1167022011074288 6.968839613321224 1.053407339506198 Q 6.905921506848572 0.9901124779049673 6.870883279890748 0.9015750226889598 Q 6.835845052932924 0.8130375674729525 6.835845052932924 0.7052856006994287 Q 6.835845052932924 0.5982871441830624 6.862971422190594 0.5044751171669525 Q 6.890097791448264 0.41066309015084257 6.937945692777766 0.33229802340646164 Q 6.985793594107268 0.2539329566620807 7.050972231351393 0.1921451155751649 Q 7.1161508685955175 0.13035727448824908 7.192255404568425 0.08778394495884978 Q 7.268359940541334 0.04521061542945071 7.352376334214396 0.022605307714725242 Q 7.436392727887458 0 7.522292897203415 0 Q 7.629291353719781 0 7.716321788421474 0.035414982086402924 Q 7.803352223123166 0.07082996417280585 7.864763309081503 0.13450158090261555 Q 7.92617439503984 0.19817319763242502 7.959705601483349 0.28708740797701104 Q 7.993236807926857 0.3760016183215972 7.993236807926857 0.4830000748379635 Q 7.993236807926857 0.5877380005828573 7.967994214312082 0.6804197622132309 Q 7.942751620697305 0.7731015238436045 7.896787495010697 0.8514665905879855 Q 7.850823369324089 0.9298316573323665 7.7875285077228575 0.991996253547861 Q 7.724233646121627 1.0541608497633554 7.64775235502014 1.0974876895499124 Q 7.571271063918653 1.140814529336469 7.484994139474118 1.163796592179773 Q 7.398717215029583 1.1867786550230772 7.306788963656367 1.1867786550230772 M 7.335422353428353 0.933599208618154 Q 7.385907540657906 0.933599208618154 7.434132197115986 0.9173987380892675 Q 7.482356853574067 0.9011982675603811 7.524553427974888 0.8725648777883958 Q 7.5667500023757075 0.8439314880164104 7.60216498446211 0.8039954443870625 Q 7.637579966548514 0.7640594007577144 7.66282256016329 0.7165882545567914 Q 7.688065153778067 0.6691171083558682 7.702381848664059 0.6156178800976851 Q 7.716698543550052 0.5621186518395019 7.716698543550052 0.5063588928098463 Q 7.716698543550052 0.44984562352303303 7.7012515832783235 0.4035047427078463 Q 7.685804623006594 0.3571638618926595 7.6564177229774515 0.3236326554491503 Q 7.627030822948308 0.29010144900564117 7.584834248547488 0.2716404477052822 Q 7.542637674146667 0.2531794464049232 7.489891956145642 0.2531794464049232 Q 7.413033909915576 0.2531794464049232 7.343710966257085 0.2885944284913261 Q 7.274388022598594 0.32400941057772903 7.222395814854726 0.38353672089317226 Q 7.170403607110858 0.4430640312086155 7.1395096865674 0.5199220774386815 Q 7.108615766023942 0.5967801236687473 7.108615766023942 0.6804197622132309 Q 7.108615766023942 0.7369330315000441 7.1244394814242495 0.7832739123152309 Q 7.140263196824558 0.8296147931304177 7.170026851982279 0.8631459995739269 Q 7.19979050714 0.8966772060174361 7.241610326412243 0.915138207317795 Q 7.283430145684484 0.933599208618154 7.335422353428353 0.933599208618154 M 8.256965397931985 0.021098287200410404 L 8.715099634283751 0.021098287200410404 Q 8.81833053951433 0.021098287200410404 8.904984219087444 0.05274571800102579 Q 8.991637898660557 0.08439314880164117 9.05455600513321 0.1442972142456631 Q 9.117474111605862 0.20420127968968504 9.152512338563685 0.2916084695199561 Q 9.18755056552151 0.3790156593502272 9.18755056552151 0.49053517740953856 Q 9.18755056552151 0.5847239595542273 9.165698768063942 0.671000883998762 Q 9.143846970606374 0.7572778084432968 9.101650396205553 0.8318753239018903 Q 9.059453821804734 0.9064728393604837 8.997665980717818 0.9675071701902419 Q 8.935878139630901 1.0285415010200003 8.856006052372205 1.0722450959351357 Q 8.776133965113509 1.1159486908502712 8.678554386811612 1.1396842639507327 Q 8.580974808509716 1.1634198370511943 8.46794826993609 1.1634198370511943 L 7.9924832976697004 1.1634198370511943 L 8.04070795412778 0.9569580265900368 L 8.157502043987195 0.9569580265900368 L 8.326288341590477 0.22831360791872535 L 8.208740741473905 0.22831360791872535 L 8.256965397931985 0.021098287200410404 M 8.590770441852763 0.22831360791872535 L 8.421230633992323 0.9569580265900368 L 8.501856231508176 0.9569580265900368 Q 8.556862480280675 0.9569580265900368 8.608477932895964 0.9407575560611503 Q 8.660093385511253 0.9245570855322639 8.705680756069283 0.8955469406316998 Q 8.751268126627313 0.8665367957311356 8.789320394613766 0.8258472418446302 Q 8.82737266260022 0.7851576879581247 8.854875786986469 0.7358027661143078 Q 8.882378911372719 0.686447844270491 8.897449116515869 0.6299345749836778 Q 8.912519321659019 0.5734213056968646 8.912519321659019 0.5123869748671064 Q 8.912519321659019 0.4332683978655679 8.892551299844346 0.3790156593502272 Q 8.872583278029671 0.32476292083488656 8.839052071586162 0.2912317143913774 Q 8.805520865142652 0.25770050794786825 8.761817270227517 0.2430070579332968 Q 8.718113675312381 0.22831360791872535 8.670642529111458 0.22831360791872535 L 8.590770441852763 0.22831360791872535 M 0.8537271213594579 2.6588362934059875 L 0.8936631649888059 2.4870359547740755 Q 0.8635227547025056 2.535260611232156 0.8156748533730037 2.5808479817901855 Q 0.7678269520435019 2.6264353523482145 0.6981272532564323 2.6543152318630425 Q 0.6284275544693627 2.68219511137787 0.5553370595250843 2.68219511137787 Q 0.4566272158374506 2.68219511137787 0.3722340670358096 2.647156884420046 Q 0.2878409182341685 2.6121186574622217 0.22567632201867402 2.548823795860991 Q 0.16351172580317952 2.48552893425976 0.12809674371677657 2.396991479043753 Q 0.09268176163037364 2.308454023827746 0.09268176163037364 2.200702057054222 Q 0.09268176163037364 2.0937036005378555 0.11980813088804397 1.9998915735217455 Q 0.1469345001457143 1.9060795465056357 0.19478240147521614 1.8277144797612548 Q 0.24263030280471798 1.7493494130168739 0.3078089400488425 1.6875615719299581 Q 0.37298757729296705 1.6257737308430422 0.4490921132658755 1.583200401313643 Q 0.525196649238784 1.5406270717842439 0.6092130429118462 1.5180217640695184 Q 0.6932294365849085 1.4954164563547931 0.7791296059008646 1.4954164563547931 Q 0.8379034059591502 1.4954164563547931 0.8936631649888059 1.5078493755978921 Q 0.9494229240184616 1.520282294840991 0.998024335605121 1.5425108474271376 Q 1.0466257471917804 1.5647394000132842 1.0846780151782345 1.5945030551710058 Q 1.1227302831646888 1.6242667103287274 1.1483496319080442 1.6574211616436576 L 1.2824744576820808 1.6574211616436576 L 1.2342498012240002 1.8638829721048151 L 0.941134311189729 1.8638829721048151 Q 0.9313386778466815 1.8405241541329325 0.91363118680348 1.8186723566753646 Q 0.8959236957602785 1.7968205592177968 0.8710578572740807 1.7802433335603318 Q 0.8461920187878829 1.7636661079028664 0.8149213431158463 1.753870474559819 Q 0.7836506674438096 1.7440748412167713 0.7467286648430916 1.7440748412167713 Q 0.6698706186130258 1.7440748412167713 0.6005476749545349 1.7802433335603318 Q 0.531224731296044 1.8164118259038922 0.4792325235521759 1.876692646476493 Q 0.42724031580830774 1.9369734670490937 0.3963463952648499 2.014585023536317 Q 0.365452474721392 2.0921965800235407 0.365452474721392 2.175836218568024 Q 0.365452474721392 2.232349487854837 0.3808994349931209 2.2798206340557603 Q 0.3963463952648499 2.3272917802566835 0.42535654016541397 2.3623300072145077 Q 0.4543666850659781 2.397368234172332 0.4961865043382198 2.416959500858427 Q 0.5380063236104616 2.436550767544522 0.5907520416114872 2.436550767544522 Q 0.6397302083267253 2.436550767544522 0.6868245993990697 2.421857317529951 Q 0.733918990471414 2.4071638675153793 0.7734782789721832 2.3811677636434454 Q 0.8130375674729525 2.355171659771511 0.8405406918592015 2.3223939635851596 Q 0.8680438162454507 2.289616267398808 0.8823605111314433 2.25570830582672 L 0.6419907390981979 2.25570830582672 L 0.689461885299121 2.0492464953655625 L 1.220686616595165 2.0492464953655625 L 1.0790266882495532 2.6588362934059875 L 0.8537271213594579 2.6588362934059875 M 1.4829081860859783 1.5165147435552035 L 2.460210989619268 1.5165147435552035 L 2.3705432690175243 1.9060795465056357 L 2.106814679012396 1.9060795465056357 L 2.148257743156059 1.7237300642735185 L 1.8310299248927477 1.7237300642735185 L 1.7737631453487768 1.9693744081068665 L 2.0276961020108577 1.9693744081068665 L 1.9772109147813044 2.187892382682544 L 1.723277958119224 2.187892382682544 L 1.661490117032308 2.4523744829448297 L 1.9598801788666818 2.4523744829448297 L 2.00584430455329 2.24968022376946 L 2.2703264048155756 2.24968022376946 L 2.176137622670887 2.6588362934059875 L 1.2327427807096853 2.6588362934059875 L 1.280967437167766 2.4523744829448297 L 1.3977615270271797 2.4523744829448297 L 1.5665478246304618 1.7237300642735185 L 1.4354370398850553 1.7237300642735185 L 1.4829081860859783 1.5165147435552035 M 2.8844372643989455 2.68219511137787 Q 2.781959869425524 2.68219511137787 2.695682944980989 2.647156884420046 Q 2.6094060205364547 2.6121186574622217 2.5464879140638024 2.548823795860991 Q 2.4835698075911505 2.48552893425976 2.4485315806333263 2.396991479043753 Q 2.413493353675502 2.308454023827746 2.413493353675502 2.200702057054222 Q 2.413493353675502 2.0937036005378555 2.4406197229331723 1.9998915735217455 Q 2.4677460921908425 1.9060795465056357 2.5155939935203446 1.8277144797612548 Q 2.5634418948498463 1.7493494130168739 2.628620532093971 1.6875615719299581 Q 2.6937991693380954 1.6257737308430422 2.769903705311004 1.583200401313643 Q 2.8460082412839123 1.5406270717842439 2.9300246349569745 1.5180217640695184 Q 3.0140410286300368 1.4954164563547931 3.099941197945993 1.4954164563547931 Q 3.206939654462359 1.4954164563547931 3.2939700891640515 1.530831438441196 Q 3.381000523865744 1.566246420527599 3.442411609824081 1.6299180372574087 Q 3.503822695782418 1.6935896539872182 3.5373539022259273 1.782503864331804 Q 3.570885108669436 1.8714180746763902 3.570885108669436 1.9784165311927566 Q 3.570885108669436 2.0831544569376503 3.5456425150546598 2.175836218568024 Q 3.520399921439883 2.2685179801983977 3.474435795753275 2.3468830469427786 Q 3.428471670066667 2.4252481136871595 3.3651768084654363 2.487412709902654 Q 3.3018819468642056 2.549577306118149 3.2254006557627184 2.5929041459047055 Q 3.1489193646612312 2.6362309856912622 3.0626424402166963 2.6592130485345664 Q 2.9763655157721614 2.68219511137787 2.8844372643989455 2.68219511137787 M 2.9130706541709306 2.429015664972947 Q 2.963555841400484 2.429015664972947 3.0117804978585645 2.4128151944440606 Q 3.060005154316645 2.3966147239151745 3.1022017287174655 2.367981334143189 Q 3.144398303118286 2.3393479443712035 3.179813285204689 2.2994119007418554 Q 3.215228267291092 2.2594758571125078 3.2404708609058686 2.2120047109115846 Q 3.265713454520645 2.1645335647106614 3.2800301494066377 2.1110343364524784 Q 3.2943468442926305 2.057535108194295 3.2943468442926305 2.0017753491646393 Q 3.2943468442926305 1.9452620798778262 3.2788998840209014 1.8989211990626393 Q 3.2634529237491723 1.8525803182474525 3.23406602372003 1.8190491118039436 Q 3.204679123690887 1.7855179053604342 3.162482549290066 1.7670569040600754 Q 3.1202859748892458 1.7485959027597162 3.06754025688822 1.7485959027597162 Q 2.990682210658154 1.7485959027597162 2.921359266999663 1.7840108848461194 Q 2.8520363233411725 1.819425866932522 2.8000441155973044 1.8789531772479653 Q 2.7480519078534362 1.9384804875634085 2.7171579873099785 2.0153385337934746 Q 2.6862640667665203 2.0921965800235407 2.6862640667665203 2.175836218568024 Q 2.6862640667665203 2.232349487854837 2.702087782166828 2.278690368670024 Q 2.717911497567136 2.325031249485211 2.7476751527248573 2.35856245592872 Q 2.777438807882579 2.392093662372229 2.819258627154821 2.4105546636725883 Q 2.8610784464270624 2.429015664972947 2.9130706541709306 2.429015664972947 M 3.584448293298271 2.2579688365981925 L 3.8587260269036046 2.2579688365981925 Q 3.838381249960352 2.334073372571101 3.844409332017612 2.3657208033717163 Q 3.850437414074872 2.397368234172332 3.8696519256323882 2.418466521372742 Q 3.888866437189905 2.4395648085731523 3.9216441333762564 2.451244217559094 Q 3.9544218295626083 2.462923626545035 4.001139465506374 2.462923626545035 Q 4.043336039907194 2.462923626545035 4.076867246350703 2.4516209726876723 Q 4.110398452794213 2.4403183188303097 4.134134025894674 2.4203502970156356 Q 4.157869598995136 2.400382275200962 4.170302518238235 2.372879150814713 Q 4.182735437481334 2.3453760264284638 4.182735437481334 2.3129750853706907 Q 4.182735437481334 2.288109246884493 4.172186293881128 2.270025000712713 Q 4.1616371502809235 2.2519407545409327 4.143929659237722 2.2387543250406763 Q 4.12622216819452 2.2255678955404194 4.102863350222638 2.215772262197372 Q 4.079504532250755 2.2059766288543243 4.053131673250242 2.197688016025592 L 3.92352790901915 2.1524774005961413 Q 3.8783172935896997 2.137407195452991 3.841018535860403 2.1106575813238995 Q 3.8037197781311063 2.0839079671948078 3.776970164002015 2.0477394748512476 Q 3.7502205498729233 2.011570982507687 3.735150344729773 1.9659836119496577 Q 3.720080139586623 1.9203962413916285 3.720080139586623 1.8684040336477603 Q 3.720080139586623 1.7757222720173866 3.7547416114158683 1.706022573230317 Q 3.7894030832451135 1.6363228744432474 3.851567679460608 1.5899819936280606 Q 3.913732275676103 1.5436411128128738 4.000009200120638 1.520282294840991 Q 4.086286124565173 1.4969234768691082 4.189517029795751 1.4969234768691082 Q 4.264114545254344 1.4969234768691082 4.325148876084103 1.5142542127837308 Q 4.386183206913861 1.5315849486983537 4.430263556957575 1.5605950935989177 Q 4.474343907001289 1.5896052384994819 4.497325969844594 1.6253969757144635 Q 4.520308032687898 1.6611887129294454 4.525582604488 1.6973572052730057 L 4.6122362840611135 1.6973572052730057 L 4.567025668631663 1.890255831105328 L 4.294254955540644 1.890255831105328 Q 4.310078670940952 1.8201793771896797 4.303297078626535 1.7930530079320093 Q 4.296515486312117 1.765926638674339 4.276924219626022 1.7463353719882437 Q 4.257332952939927 1.7267441053021484 4.227569297782205 1.7165717168305221 Q 4.197805642624484 1.7063993283588959 4.1616371502809235 1.7063993283588959 Q 4.124715147680205 1.7063993283588959 4.091560696365275 1.713557675801892 Q 4.058406245050344 1.7207160232448886 4.033540406564146 1.7361629835166172 Q 4.008674568077949 1.7516099437883463 3.9939811180633775 1.7757222720173866 Q 3.979287668048806 1.799834600246427 3.979287668048806 1.8329890515613574 Q 3.979287668048806 1.8623759515905003 3.991720587291905 1.880836952890859 Q 4.004153506535004 1.8992979541912183 4.031656630921253 1.913237893948632 Q 4.059159755307502 1.927177833706046 4.1134124938228425 1.9475226106492989 L 4.269389117054447 2.0047893901932694 Q 4.365838429970609 2.039450862022515 4.410295535142901 2.109527315938163 Q 4.454752640315195 2.1796037698538115 4.454752640315195 2.2805741443129177 Q 4.454752640315195 2.374009416200449 4.418207392843055 2.4474766662733063 Q 4.381662145370916 2.5209439163461633 4.3168602632553705 2.572182613832874 Q 4.2520583811398245 2.6234213113195843 4.162013905409502 2.650547680577255 Q 4.0719694296791795 2.677674049834925 3.965724483419971 2.677674049834925 Q 3.886605906418432 2.677674049834925 3.8214272691743076 2.65808278314883 Q 3.756248631930183 2.638491516462735 3.7110380165007326 2.602699779247753 Q 3.665827401071282 2.5669080420327712 3.6469896446423444 2.5262184881462657 Q 3.6281518882134067 2.48552893425976 3.6236308266704618 2.450867462430515 L 3.5392376778688206 2.450867462430515 L 3.584448293298271 2.2579688365981925 M 5.043244151155209 2.68219511137787 Q 4.940766756181787 2.68219511137787 4.8544898317372525 2.647156884420046 Q 4.7682129072927175 2.6121186574622217 4.705294800820066 2.548823795860991 Q 4.642376694347414 2.48552893425976 4.60733846738959 2.396991479043753 Q 4.572300240431765 2.308454023827746 4.572300240431765 2.200702057054222 Q 4.572300240431765 2.0937036005378555 4.599426609689436 1.9998915735217455 Q 4.626552978947106 1.9060795465056357 4.6744008802766075 1.8277144797612548 Q 4.72224878160611 1.7493494130168739 4.787427418850235 1.6875615719299581 Q 4.852606056094359 1.6257737308430422 4.928710592067267 1.583200401313643 Q 5.004815128040176 1.5406270717842439 5.088831521713238 1.5180217640695184 Q 5.1728479153863 1.4954164563547931 5.2587480847022565 1.4954164563547931 Q 5.3657465412186225 1.4954164563547931 5.452776975920315 1.530831438441196 Q 5.539807410622007 1.566246420527599 5.601218496580344 1.6299180372574087 Q 5.662629582538681 1.6935896539872182 5.696160788982191 1.782503864331804 Q 5.7296919954257 1.8714180746763902 5.7296919954257 1.9784165311927566 Q 5.7296919954257 2.0831544569376503 5.704449401810923 2.175836218568024 Q 5.679206808196146 2.2685179801983977 5.633242682509538 2.3468830469427786 Q 5.58727855682293 2.4252481136871595 5.5239836952217 2.487412709902654 Q 5.460688833620469 2.549577306118149 5.384207542518982 2.5929041459047055 Q 5.3077262514174945 2.6362309856912622 5.22144932697296 2.6592130485345664 Q 5.135172402528425 2.68219511137787 5.043244151155209 2.68219511137787 M 5.071877540927194 2.429015664972947 Q 5.122362728156747 2.429015664972947 5.170587384614827 2.4128151944440606 Q 5.218812041072908 2.3966147239151745 5.261008615473729 2.367981334143189 Q 5.303205189874549 2.3393479443712035 5.338620171960953 2.2994119007418554 Q 5.374035154047355 2.2594758571125078 5.399277747662132 2.2120047109115846 Q 5.424520341276908 2.1645335647106614 5.4388370361629015 2.1110343364524784 Q 5.453153731048894 2.057535108194295 5.453153731048894 2.0017753491646393 Q 5.453153731048894 1.9452620798778262 5.437706770777165 1.8989211990626393 Q 5.422259810505436 1.8525803182474525 5.392872910476293 1.8190491118039436 Q 5.36348601044715 1.7855179053604342 5.32128943604633 1.7670569040600754 Q 5.279092861645509 1.7485959027597162 5.2263471436444835 1.7485959027597162 Q 5.149489097414418 1.7485959027597162 5.080166153755926 1.7840108848461194 Q 5.010843210097436 1.819425866932522 4.958851002353567 1.8789531772479653 Q 4.9068587946096995 1.9384804875634085 4.875964874066241 2.0153385337934746 Q 4.845070953522784 2.0921965800235407 4.845070953522784 2.175836218568024 Q 4.845070953522784 2.232349487854837 4.860894668923091 2.278690368670024 Q 4.876718384323399 2.325031249485211 4.906482039481121 2.35856245592872 Q 4.936245694638842 2.392093662372229 4.978065513911084 2.4105546636725883 Q 5.019885333183326 2.429015664972947 5.071877540927194 2.429015664972947 M 5.979103890544835 1.5165147435552035 L 6.488476824383311 1.5165147435552035 L 6.441005678182388 1.7237300642735185 L 6.325718608837289 1.7237300642735185 L 6.15617880097685 2.4523744829448297 L 6.3724362447810545 2.4523744829448297 Q 6.399562614038725 2.4523744829448297 6.418777125596241 2.4346669919016284 Q 6.4379916371537576 2.416959500858427 6.445526739725333 2.3905866418579143 L 6.482448742326051 2.2391310801692548 L 6.737135209245289 2.2391310801692548 L 6.641439406586286 2.6588362934059875 L 5.728938485168542 2.6588362934059875 L 5.777163141626622 2.4523744829448297 L 5.892450210971721 2.4523744829448297 L 6.0612365085750035 1.7237300642735185 L 5.931632744343911 1.7237300642735185 L 5.979103890544835 1.5165147435552035 M 6.887083750419634 1.5165147435552035 L 7.348232027800029 1.5165147435552035 L 7.300007371341948 1.7237300642735185 L 7.212600181511678 1.7237300642735185 L 7.102587683966681 2.197688016025592 Q 7.086763968566373 2.2730390417413426 7.093545560880791 2.3148588610135845 Q 7.100327153195209 2.3566786802858264 7.122932460909934 2.3868190905721267 Q 7.145537768624659 2.416959500858427 7.17869221993959 2.4305226854872624 Q 7.21184667125452 2.4440858701160972 7.25705728668397 2.4440858701160972 Q 7.300760881599106 2.4440858701160972 7.33579910855693 2.4316529508729983 Q 7.3708373355147545 2.4192200316298997 7.398717215029582 2.3902098867293353 Q 7.426597094544411 2.3611997418287713 7.4480721368733995 2.314105350756427 Q 7.469547179202388 2.267010959684083 7.485370894602696 2.197688016025592 L 7.594629881890535 1.7237300642735185 L 7.491398976659956 1.7237300642735185 L 7.539623633118037 1.5165147435552035 L 8.000771910498433 1.5165147435552035 L 7.953300764297509 1.7237300642735185 L 7.855344430867033 1.7237300642735185 L 7.738550341007619 2.2315959775976797 Q 7.711423971749949 2.350650598228566 7.6654598460633405 2.4361740124159437 Q 7.619495720376733 2.5216974266033207 7.554693838261187 2.57632692024724 Q 7.489891956145641 2.63095641389116 7.405875562472579 2.656575762634515 Q 7.3218591687995165 2.68219511137787 7.218628263568938 2.68219511137787 Q 7.1334816045101395 2.68219511137787 7.062274885208755 2.6569525177630937 Q 6.99106816590737 2.6317099241483173 6.939452713292081 2.586122553590288 Q 6.8878372606767915 2.5405351830322584 6.861087646547699 2.4761100560452913 Q 6.834338032418608 2.4116849290583247 6.830193726004242 2.3393479443712035 Q 6.826049419589875 2.267010959684083 6.844887176018813 2.1818643006252842 L 6.95188563253518 1.7237300642735185 L 6.838859093961553 1.7237300642735185 L 6.887083750419634 1.5165147435552035 M 8.08893261058586 2.4523744829448297 L 8.20723372095959 2.4523744829448297 L 8.37677352882003 1.7237300642735185 L 8.230592538931472 1.7237300642735185 L 8.198191597873699 1.8638829721048151 L 7.938984069411516 1.8638829721048151 L 8.01960966692737 1.5165147435552035 L 9.093361783376821 1.5165147435552035 L 9.013489696118125 1.8638829721048151 L 8.75428216765594 1.8638829721048151 L 8.786683108713714 1.7237300642735185 L 8.640502118825157 1.7237300642735185 L 8.470962310964717 2.4523744829448297 L 8.598305544424337 2.4523744829448297 L 8.550080887966256 2.6588362934059875 L 8.041461464384938 2.6588362934059875 L 8.08893261058586 2.4523744829448297 M 9.158163665492365 1.5165147435552035 L 9.667536599330841 1.5165147435552035 L 9.620065453129918 1.7237300642735185 L 9.506285404299135 1.7237300642735185 L 9.336745596438695 2.4523744829448297 L 9.46559585041263 2.4523744829448297 L 9.41737119395455 2.6588362934059875 L 8.907998260116072 2.6588362934059875 L 8.956222916574154 2.4523744829448297 L 9.073017006433567 2.4523744829448297 L 9.24180330403685 1.7237300642735185 L 9.110692519291442 1.7237300642735185 L 9.158163665492365 1.5165147435552035 M 10.123410304911134 2.68219511137787 Q 10.020932909937713 2.68219511137787 9.934655985493178 2.647156884420046 Q 9.848379061048643 2.6121186574622217 9.785460954575992 2.548823795860991 Q 9.72254284810334 2.48552893425976 9.687504621145514 2.396991479043753 Q 9.652466394187691 2.308454023827746 9.652466394187691 2.200702057054222 Q 9.652466394187691 2.0937036005378555 9.679592763445362 1.9998915735217455 Q 9.706719132703032 1.9060795465056357 9.754567034032533 1.8277144797612548 Q 9.802414935362036 1.7493494130168739 9.86759357260616 1.6875615719299581 Q 9.932772209850285 1.6257737308430422 10.008876745823192 1.583200401313643 Q 10.084981281796102 1.5406270717842439 10.168997675469164 1.5180217640695184 Q 10.253014069142226 1.4954164563547931 10.338914238458182 1.4954164563547931 Q 10.445912694974549 1.4954164563547931 10.53294312967624 1.530831438441196 Q 10.619973564377933 1.566246420527599 10.68138465033627 1.6299180372574087 Q 10.742795736294607 1.6935896539872182 10.776326942738116 1.782503864331804 Q 10.809858149181625 1.8714180746763902 10.809858149181625 1.9784165311927566 Q 10.809858149181625 2.0831544569376503 10.784615555566848 2.175836218568024 Q 10.759372961952073 2.2685179801983977 10.713408836265463 2.3468830469427786 Q 10.667444710578856 2.4252481136871595 10.604149848977626 2.487412709902654 Q 10.540854987376393 2.549577306118149 10.464373696274906 2.5929041459047055 Q 10.38789240517342 2.6362309856912622 10.301615480728884 2.6592130485345664 Q 10.215338556284351 2.68219511137787 10.123410304911134 2.68219511137787 M 10.152043694683119 2.429015664972947 Q 10.202528881912672 2.429015664972947 10.250753538370754 2.4128151944440606 Q 10.298978194828834 2.3966147239151745 10.341174769229655 2.367981334143189 Q 10.383371343630476 2.3393479443712035 10.418786325716878 2.2994119007418554 Q 10.454201307803281 2.2594758571125078 10.479443901418056 2.2120047109115846 Q 10.504686495032834 2.1645335647106614 10.519003189918827 2.1110343364524784 Q 10.533319884804818 2.057535108194295 10.533319884804818 2.0017753491646393 Q 10.533319884804818 1.9452620798778262 10.51787292453309 1.8989211990626393 Q 10.502425964261361 1.8525803182474525 10.473039064232218 1.8190491118039436 Q 10.443652164203076 1.7855179053604342 10.401455589802255 1.7670569040600754 Q 10.359259015401435 1.7485959027597162 10.306513297400409 1.7485959027597162 Q 10.229655251170342 1.7485959027597162 10.160332307511853 1.7840108848461194 Q 10.091009363853361 1.819425866932522 10.039017156109493 1.8789531772479653 Q 9.987024948365624 1.9384804875634085 9.956131027822167 2.0153385337934746 Q 9.92523710727871 2.0921965800235407 9.92523710727871 2.175836218568024 Q 9.92523710727871 2.232349487854837 9.941060822679017 2.278690368670024 Q 9.956884538079324 2.325031249485211 9.986648193237047 2.35856245592872 Q 10.016411848394768 2.392093662372229 10.058231667667009 2.4105546636725883 Q 10.100051486939252 2.429015664972947 10.152043694683119 2.429015664972947 M 11.786407442457756 1.5165147435552035 L 12.247555719838152 1.5165147435552035 L 12.200084573637229 1.7237300642735185 L 12.102128240206753 1.7237300642735185 L 11.886624306659705 2.6588362934059875 L 11.627416778197523 2.6588362934059875 L 11.336561818934724 1.9543042029637163 L 11.221274749589625 2.4523744829448297 L 11.318477572762944 2.4523744829448297 L 11.271006426562021 2.6588362934059875 L 10.809104638924467 2.6588362934059875 L 10.857329295382549 2.4523744829448297 L 10.959053180098811 2.4523744829448297 L 11.127085967444936 1.7237300642735185 L 11.003510285271105 1.7237300642735185 L 11.051734941729185 1.5165147435552035 L 11.44054623442246 1.5165147435552035 L 11.722359070599369 2.221800344254632 L 11.838399650201625 1.7237300642735185 L 11.738182785999676 1.7237300642735185 L 11.786407442457756 1.5165147435552035 M 12.169190653093771 2.2579688365981925 L 12.443468386699106 2.2579688365981925 Q 12.423123609755852 2.334073372571101 12.429151691813113 2.3657208033717163 Q 12.435179773870372 2.397368234172332 12.454394285427888 2.418466521372742 Q 12.473608796985406 2.4395648085731523 12.506386493171757 2.451244217559094 Q 12.53916418935811 2.462923626545035 12.585881825301874 2.462923626545035 Q 12.628078399702694 2.462923626545035 12.661609606146204 2.4516209726876723 Q 12.695140812589713 2.4403183188303097 12.718876385690175 2.4203502970156356 Q 12.742611958790636 2.400382275200962 12.755044878033734 2.372879150814713 Q 12.767477797276834 2.3453760264284638 12.767477797276834 2.3129750853706907 Q 12.767477797276834 2.288109246884493 12.75692865367663 2.270025000712713 Q 12.746379510076423 2.2519407545409327 12.728672019033223 2.2387543250406763 Q 12.71096452799002 2.2255678955404194 12.687605710018138 2.215772262197372 Q 12.664246892046256 2.2059766288543243 12.637874033045742 2.197688016025592 L 12.50827026881465 2.1524774005961413 Q 12.4630596533852 2.137407195452991 12.425760895655904 2.1106575813238995 Q 12.388462137926608 2.0839079671948078 12.361712523797515 2.0477394748512476 Q 12.334962909668423 2.011570982507687 12.319892704525273 1.9659836119496577 Q 12.304822499382123 1.9203962413916285 12.304822499382123 1.8684040336477603 Q 12.304822499382123 1.7757222720173866 12.339483971211369 1.706022573230317 Q 12.374145443040614 1.6363228744432474 12.436310039256108 1.5899819936280606 Q 12.498474635471602 1.5436411128128738 12.584751559916137 1.520282294840991 Q 12.671028484360672 1.4969234768691082 12.77425938959125 1.4969234768691082 Q 12.848856905049844 1.4969234768691082 12.909891235879604 1.5142542127837308 Q 12.970925566709361 1.5315849486983537 13.015005916753076 1.5605950935989177 Q 13.05908626679679 1.5896052384994819 13.082068329640094 1.6253969757144635 Q 13.105050392483399 1.6611887129294454 13.110324964283501 1.6973572052730057 L 13.196978643856614 1.6973572052730057 L 13.151768028427163 1.890255831105328 L 12.878997315336145 1.890255831105328 Q 12.894821030736454 1.8201793771896797 12.888039438422036 1.7930530079320093 Q 12.881257846107617 1.765926638674339 12.861666579421522 1.7463353719882437 Q 12.842075312735428 1.7267441053021484 12.812311657577705 1.7165717168305221 Q 12.782548002419984 1.7063993283588959 12.746379510076423 1.7063993283588959 Q 12.709457507475706 1.7063993283588959 12.676303056160775 1.713557675801892 Q 12.643148604845845 1.7207160232448886 12.618282766359647 1.7361629835166172 Q 12.593416927873449 1.7516099437883463 12.578723477858878 1.7757222720173866 Q 12.564030027844307 1.799834600246427 12.564030027844307 1.8329890515613574 Q 12.564030027844307 1.8623759515905003 12.576462947087405 1.880836952890859 Q 12.588895866330505 1.8992979541912183 12.616398990716753 1.913237893948632 Q 12.643902115103002 1.927177833706046 12.698154853618343 1.9475226106492989 L 12.854131476849947 2.0047893901932694 Q 12.950580789766109 2.039450862022515 12.995037894938402 2.109527315938163 Q 13.039495000110694 2.1796037698538115 13.039495000110694 2.2805741443129177 Q 13.039495000110694 2.374009416200449 13.002949752638555 2.4474766662733063 Q 12.966404505166416 2.5209439163461633 12.90160262305087 2.572182613832874 Q 12.836800740935324 2.6234213113195843 12.746756265205002 2.650547680577255 Q 12.65671178947468 2.677674049834925 12.550466843215471 2.677674049834925 Q 12.471348266213933 2.677674049834925 12.406169628969808 2.65808278314883 Q 12.340990991725684 2.638491516462735 12.295780376296234 2.602699779247753 Q 12.250569760866783 2.5669080420327712 12.231732004437845 2.5262184881462657 Q 12.212894248008906 2.48552893425976 12.208373186465963 2.450867462430515 L 12.123980037664321 2.450867462430515 L 12.169190653093771 2.2579688365981925" fill="#ffffff" fill-rule="nonzero"></path></g><g><path d=" M 0.73828125 3.0459581342997657 L 0.9180908203125 3.0459581342997657 L 0.90380859375 3.1093126264872657 L 0.853271484375 3.1093126264872657 L 0.5958251953125 3.6011339155497657 L 0.491455078125 3.6011339155497657 L 0.4720458984375 3.1723009077372657 L 0.2574462890625 3.6011339155497657 L 0.153076171875 3.6011339155497657 L 0.1204833984375 3.1093126264872657 L 0.0640869140625 3.1093126264872657 L 0.078369140625 3.0459581342997657 L 0.2581787109375 3.0459581342997657 L 0.243896484375 3.1093126264872657 L 0.195556640625 3.1093126264872657 L 0.2208251953125 3.5297227827372657 L 0.462158203125 3.0459581342997657 L 0.5401611328125 3.0459581342997657 L 0.55810546875 3.5297227827372657 L 0.7796630859375 3.1093126264872657 L 0.7239990234375 3.1093126264872657 L 0.73828125 3.0459581342997657 M 1.09423828125 3.6124864546122657 Q 1.04736328125 3.6124864546122657 1.00506591796875 3.5945421186747657 Q 0.9627685546875 3.5765977827372657 0.93072509765625 3.5438219038310157 Q 0.898681640625 3.5110460249247657 0.87982177734375 3.4647203413310157 Q 0.8609619140625 3.4183946577372657 0.8609619140625 3.3612657514872657 Q 0.8609619140625 3.3132921186747657 0.872314453125 3.2706285444560157 Q 0.8836669921875 3.2279649702372657 0.9041748046875 3.1917100874247657 Q 0.9246826171875 3.1554552046122657 0.95343017578125 3.1265245405497657 Q 0.982177734375 3.0975938764872657 1.01715087890625 3.0774522749247657 Q 1.0521240234375 3.0573106733622657 1.092041015625 3.0465074507060157 Q 1.1319580078125 3.0357042280497657 1.1751708984375 3.0357042280497657 Q 1.2220458984375 3.0357042280497657 1.26434326171875 3.0520006147685157 Q 1.306640625 3.0682970014872657 1.33868408203125 3.0994249311747657 Q 1.3707275390625 3.1305528608622657 1.38958740234375 3.1757799116435157 Q 1.408447265625 3.2210069624247657 1.408447265625 3.2785020796122657 Q 1.408447265625 3.3275743452372657 1.3974609375 3.3715196577372657 Q 1.386474609375 3.4154649702372657 1.36651611328125 3.4524522749247657 Q 1.3465576171875 3.4894395796122657 1.31817626953125 3.5191026655497657 Q 1.289794921875 3.5487657514872657 1.25482177734375 3.5694566694560157 Q 1.2198486328125 3.5901475874247657 1.17919921875 3.6013170210185157 Q 1.1385498046875 3.6124864546122657 1.09423828125 3.6124864546122657 M 1.1026611328125 3.5381456342997657 Q 1.1341552734375 3.5381456342997657 1.1630859375 3.5293565717997657 Q 1.1920166015625 3.5205675092997657 1.2169189453125 3.5042711225810157 Q 1.2418212890625 3.4879747358622657 1.26214599609375 3.4650865522685157 Q 1.282470703125 3.4421983686747657 1.2967529296875 3.4140001264872657 Q 1.31103515625 3.3858018842997657 1.31890869140625 3.3532091108622657 Q 1.3267822265625 3.3206163374247657 1.3267822265625 3.2847276655497657 Q 1.3267822265625 3.2448106733622657 1.31488037109375 3.2125841108622657 Q 1.302978515625 3.1803575483622657 1.28173828125 3.1574693647685157 Q 1.260498046875 3.1345811811747657 1.231201171875 3.1223131147685157 Q 1.201904296875 3.1100450483622657 1.1671142578125 3.1100450483622657 Q 1.1217041015625 3.1100450483622657 1.0810546875 3.1283555952372657 Q 1.0404052734375 3.1466661421122657 1.0096435546875 3.1794420210185157 Q 0.9788818359375 3.2122178999247657 0.9609375 3.2570787397685157 Q 0.9429931640625 3.3019395796122657 0.9429931640625 3.3550401655497657 Q 0.9429931640625 3.3942247358622657 0.95489501953125 3.4277330366435157 Q 0.966796875 3.4612413374247657 0.988037109375 3.4857774702372657 Q 1.00927734375 3.5103136030497657 1.03857421875 3.5242296186747657 Q 1.06787109375 3.5381456342997657 1.1026611328125 3.5381456342997657 M 1.5626220703125 3.0459581342997657 L 1.78857421875 3.0459581342997657 Q 1.8204345703125 3.0459581342997657 1.846435546875 3.0554796186747657 Q 1.8724365234375 3.0650011030497657 1.89093017578125 3.0822130171122657 Q 1.909423828125 3.0994249311747657 1.91949462890625 3.1234117475810157 Q 1.9295654296875 3.1473985639872657 1.9295654296875 3.1759630171122657 Q 1.9295654296875 3.2056261030497657 1.91949462890625 3.2307115522685157 Q 1.909423828125 3.2557970014872657 1.89239501953125 3.2753892866435157 Q 1.8753662109375 3.2949815717997657 1.85284423828125 3.3090806928935157 Q 1.830322265625 3.3231798139872657 1.805419921875 3.3312364546122657 Q 1.8197021484375 3.3414903608622657 1.82958984375 3.3619981733622657 Q 1.8394775390625 3.3825059858622657 1.8402099609375 3.4107042280497657 L 1.8424072265625 3.5381456342997657 L 1.8896484375 3.5381456342997657 L 1.8753662109375 3.6011339155497657 L 1.76806640625 3.6011339155497657 L 1.765869140625 3.4323106733622657 Q 1.76513671875 3.3865343061747657 1.7449951171875 3.3652940717997657 Q 1.724853515625 3.3440538374247657 1.6842041015625 3.3440538374247657 L 1.62451171875 3.3440538374247657 L 1.5802001953125 3.5381456342997657 L 1.634765625 3.5381456342997657 L 1.6204833984375 3.6011339155497657 L 1.4403076171875 3.6011339155497657 L 1.45458984375 3.5381456342997657 L 1.503662109375 3.5381456342997657 L 1.6025390625 3.1093126264872657 L 1.547607421875 3.1093126264872657 L 1.5626220703125 3.0459581342997657 M 1.6783447265625 3.1093126264872657 L 1.6387939453125 3.2825303999247657 L 1.7255859375 3.2825303999247657 Q 1.7530517578125 3.2825303999247657 1.77630615234375 3.2763048139872657 Q 1.799560546875 3.2700792280497657 1.81640625 3.2572618452372657 Q 1.833251953125 3.2444444624247657 1.8427734375 3.2250352827372657 Q 1.852294921875 3.2056261030497657 1.852294921875 3.1796251264872657 Q 1.852294921875 3.1642442671122657 1.84716796875 3.1512437788310157 Q 1.842041015625 3.1382432905497657 1.83123779296875 3.1289049116435157 Q 1.8204345703125 3.1195665327372657 1.80377197265625 3.1144395796122657 Q 1.787109375 3.1093126264872657 1.764404296875 3.1093126264872657 L 1.6783447265625 3.1093126264872657 M 2.4503173828125 3.1093126264872657 L 2.46533203125 3.0459581342997657 L 2.6077880859375 3.0459581342997657 L 2.5927734375 3.1093126264872657 L 2.558349609375 3.1093126264872657 L 2.2518310546875 3.3250108686747657 L 2.4232177734375 3.5381456342997657 L 2.4810791015625 3.5381456342997657 L 2.466796875 3.6011339155497657 L 2.3177490234375 3.6011339155497657 L 2.33203125 3.5381456342997657 L 2.1602783203125 3.3176866499247657 L 2.4503173828125 3.1093126264872657 M 2.091796875 3.0459581342997657 L 2.27197265625 3.0459581342997657 L 2.2569580078125 3.1093126264872657 L 2.206787109375 3.1093126264872657 L 2.108642578125 3.5381456342997657 L 2.1632080078125 3.5381456342997657 L 2.14892578125 3.6011339155497657 L 1.96875 3.6011339155497657 L 1.9830322265625 3.5381456342997657 L 2.0321044921875 3.5381456342997657 L 2.1309814453125 3.1093126264872657 L 2.0767822265625 3.1093126264872657 L 2.091796875 3.0459581342997657 M 3.1142578125 3.1847520796122657 Q 3.11865234375 3.1653428999247657 3.11260986328125 3.1503282514872657 Q 3.1065673828125 3.1353136030497657 3.0933837890625 3.1248765913310157 Q 3.0802001953125 3.1144395796122657 3.0615234375 3.1091295210185157 Q 3.0428466796875 3.1038194624247657 3.02197265625 3.1038194624247657 Q 2.9915771484375 3.1038194624247657 2.96759033203125 3.1118761030497657 Q 2.943603515625 3.1199327436747657 2.9271240234375 3.1338487592997657 Q 2.91064453125 3.1477647749247657 2.90185546875 3.1662584272685157 Q 2.89306640625 3.1847520796122657 2.89306640625 3.2052598921122657 Q 2.89306640625 3.2235704389872657 2.9000244140625 3.2349229780497657 Q 2.906982421875 3.2462755171122657 2.9176025390625 3.2535997358622657 Q 2.92822265625 3.2609239546122657 2.94122314453125 3.2653184858622657 Q 2.9542236328125 3.2697130171122657 2.96630859375 3.2741075483622657 L 3.0347900390625 3.2990098921122657 Q 3.0611572265625 3.3077989546122657 3.0809326171875 3.3198839155497657 Q 3.1007080078125 3.3319688764872657 3.1138916015625 3.3478990522685157 Q 3.1270751953125 3.3638292280497657 3.1336669921875 3.3841539350810157 Q 3.1402587890625 3.4044786421122657 3.1402587890625 3.4301134077372657 Q 3.1402587890625 3.4707628217997657 3.12451171875 3.5044542280497657 Q 3.1087646484375 3.5381456342997657 3.08038330078125 3.5621324507060157 Q 3.052001953125 3.5861192671122657 3.0120849609375 3.5993028608622657 Q 2.97216796875 3.6124864546122657 2.923828125 3.6124864546122657 Q 2.8802490234375 3.6124864546122657 2.85003662109375 3.6031480757060157 Q 2.81982421875 3.5938096967997657 2.8004150390625 3.5778795210185157 Q 2.781005859375 3.5619493452372657 2.77130126953125 3.5414415327372657 Q 2.7615966796875 3.5209337202372657 2.759033203125 3.4982286421122657 L 2.7242431640625 3.4982286421122657 L 2.738525390625 3.4400011030497657 L 2.838134765625 3.4400011030497657 L 2.83154296875 3.4671007124247657 Q 2.826416015625 3.5066514936747657 2.8546142578125 3.5260606733622657 Q 2.8828125 3.5454698530497657 2.936279296875 3.5454698530497657 Q 2.9637451171875 3.5454698530497657 2.98681640625 3.5377794233622657 Q 3.0098876953125 3.5300889936747657 3.02655029296875 3.5163560835185157 Q 3.043212890625 3.5026231733622657 3.052734375 3.4833970991435157 Q 3.062255859375 3.4641710249247657 3.062255859375 3.4414659467997657 Q 3.062255859375 3.4238878217997657 3.0560302734375 3.4110704389872657 Q 3.0498046875 3.3982530561747657 3.03900146484375 3.3889146772685157 Q 3.0281982421875 3.3795762983622657 3.01373291015625 3.3728013960185157 Q 2.999267578125 3.3660264936747657 2.9827880859375 3.3605333296122657 L 2.9190673828125 3.3400255171122657 Q 2.8692626953125 3.3242784467997657 2.8436279296875 3.2931505171122657 Q 2.8179931640625 3.2620225874247657 2.8179931640625 3.2133165327372657 Q 2.8179931640625 3.1759630171122657 2.832275390625 3.1439195600810157 Q 2.8465576171875 3.1118761030497657 2.87384033203125 3.0882554975810157 Q 2.901123046875 3.0646348921122657 2.94012451171875 3.0512681928935157 Q 2.9791259765625 3.0379014936747657 3.028564453125 3.0379014936747657 Q 3.0596923828125 3.0379014936747657 3.085693359375 3.0448595014872657 Q 3.1116943359375 3.0518175092997657 3.13165283203125 3.0642686811747657 Q 3.151611328125 3.0767198530497657 3.16534423828125 3.0942979780497657 Q 3.1790771484375 3.1118761030497657 3.185302734375 3.1331163374247657 L 3.2222900390625 3.1331163374247657 L 3.2080078125 3.1917100874247657 L 3.11279296875 3.1917100874247657 L 3.1142578125 3.1847520796122657 M 3.2303466796875 3.5381456342997657 L 3.2801513671875 3.5381456342997657 L 3.3790283203125 3.1093126264872657 L 3.3240966796875 3.1093126264872657 L 3.339111328125 3.0459581342997657 L 3.5072021484375 3.0459581342997657 L 3.579345703125 3.5223985639872657 L 3.866455078125 3.0459581342997657 L 4.0396728515625 3.0459581342997657 L 4.024658203125 3.1093126264872657 L 3.9744873046875 3.1093126264872657 L 3.8756103515625 3.5381456342997657 L 3.933837890625 3.5381456342997657 L 3.9195556640625 3.6011339155497657 L 3.73974609375 3.6011339155497657 L 3.7540283203125 3.5381456342997657 L 3.8023681640625 3.5381456342997657 L 3.8997802734375 3.1155382124247657 L 3.6068115234375 3.6011339155497657 L 3.522216796875 3.6011339155497657 L 3.4482421875 3.1166368452372657 L 3.350830078125 3.5381456342997657 L 3.4105224609375 3.5381456342997657 L 3.396240234375 3.6011339155497657 L 3.216064453125 3.6011339155497657 L 3.2303466796875 3.5381456342997657 M 4.3656005859375 3.5381456342997657 L 4.412109375 3.5381456342997657 L 4.3985595703125 3.4129014936747657 L 4.1883544921875 3.4129014936747657 L 4.118408203125 3.5381456342997657 L 4.168212890625 3.5381456342997657 L 4.154296875 3.6011339155497657 L 3.97412109375 3.6011339155497657 L 3.9884033203125 3.5381456342997657 L 4.036376953125 3.5381456342997657 L 4.314697265625 3.0459581342997657 L 4.4329833984375 3.0459581342997657 L 4.4908447265625 3.5381456342997657 L 4.5457763671875 3.5381456342997657 L 4.531494140625 3.6011339155497657 L 4.351318359375 3.6011339155497657 L 4.3656005859375 3.5381456342997657 M 4.2235107421875 3.3499132124247657 L 4.3916015625 3.3499132124247657 L 4.3641357421875 3.0979600874247657 L 4.2235107421875 3.3499132124247657 M 4.714599609375 3.0459581342997657 L 4.9405517578125 3.0459581342997657 Q 4.972412109375 3.0459581342997657 4.9984130859375 3.0554796186747657 Q 5.0244140625 3.0650011030497657 5.04290771484375 3.0822130171122657 Q 5.0614013671875 3.0994249311747657 5.07147216796875 3.1234117475810157 Q 5.08154296875 3.1473985639872657 5.08154296875 3.1759630171122657 Q 5.08154296875 3.2056261030497657 5.07147216796875 3.2307115522685157 Q 5.0614013671875 3.2557970014872657 5.04437255859375 3.2753892866435157 Q 5.02734375 3.2949815717997657 5.00482177734375 3.3090806928935157 Q 4.9822998046875 3.3231798139872657 4.9573974609375 3.3312364546122657 Q 4.9716796875 3.3414903608622657 4.9815673828125 3.3619981733622657 Q 4.991455078125 3.3825059858622657 4.9921875 3.4107042280497657 L 4.994384765625 3.5381456342997657 L 5.0416259765625 3.5381456342997657 L 5.02734375 3.6011339155497657 L 4.9200439453125 3.6011339155497657 L 4.9178466796875 3.4323106733622657 Q 4.9171142578125 3.3865343061747657 4.89697265625 3.3652940717997657 Q 4.8768310546875 3.3440538374247657 4.836181640625 3.3440538374247657 L 4.7764892578125 3.3440538374247657 L 4.732177734375 3.5381456342997657 L 4.7867431640625 3.5381456342997657 L 4.7724609375 3.6011339155497657 L 4.59228515625 3.6011339155497657 L 4.6065673828125 3.5381456342997657 L 4.6556396484375 3.5381456342997657 L 4.7545166015625 3.1093126264872657 L 4.6995849609375 3.1093126264872657 L 4.714599609375 3.0459581342997657 M 4.830322265625 3.1093126264872657 L 4.790771484375 3.2825303999247657 L 4.8775634765625 3.2825303999247657 Q 4.905029296875 3.2825303999247657 4.92828369140625 3.2763048139872657 Q 4.9515380859375 3.2700792280497657 4.9683837890625 3.2572618452372657 Q 4.9852294921875 3.2444444624247657 4.9947509765625 3.2250352827372657 Q 5.0042724609375 3.2056261030497657 5.0042724609375 3.1796251264872657 Q 5.0042724609375 3.1642442671122657 4.9991455078125 3.1512437788310157 Q 4.9940185546875 3.1382432905497657 4.98321533203125 3.1289049116435157 Q 4.972412109375 3.1195665327372657 4.95574951171875 3.1144395796122657 Q 4.9390869140625 3.1093126264872657 4.9163818359375 3.1093126264872657 L 4.830322265625 3.1093126264872657 M 5.220703125 3.5381456342997657 L 5.27197265625 3.5381456342997657 L 5.37158203125 3.1060167280497657 L 5.2371826171875 3.1060167280497657 L 5.2177734375 3.1924425092997657 L 5.1427001953125 3.1924425092997657 L 5.1763916015625 3.0459581342997657 L 5.6715087890625 3.0459581342997657 L 5.637451171875 3.1924425092997657 L 5.562744140625 3.1924425092997657 L 5.5821533203125 3.1060167280497657 L 5.4473876953125 3.1060167280497657 L 5.3485107421875 3.5381456342997657 L 5.4005126953125 3.5381456342997657 L 5.38623046875 3.6011339155497657 L 5.2064208984375 3.6011339155497657 L 5.220703125 3.5381456342997657 M 5.744384765625 3.0459581342997657 L 6.147216796875 3.0459581342997657 L 6.110595703125 3.2045274702372657 L 6.0347900390625 3.2045274702372657 L 6.05712890625 3.1093126264872657 L 5.859375 3.1093126264872657 L 5.8187255859375 3.2869249311747657 L 5.9820556640625 3.2869249311747657 L 5.96630859375 3.3499132124247657 L 5.804443359375 3.3499132124247657 L 5.76123046875 3.5381456342997657 L 5.956787109375 3.5381456342997657 L 5.9791259765625 3.4421983686747657 L 6.0556640625 3.4421983686747657 L 6.01904296875 3.6011339155497657 L 5.621337890625 3.6011339155497657 L 5.6356201171875 3.5381456342997657 L 5.6846923828125 3.5381456342997657 L 5.7835693359375 3.1093126264872657 L 5.7293701171875 3.1093126264872657 L 5.744384765625 3.0459581342997657 M 6.263671875 3.0459581342997657 L 6.4896240234375 3.0459581342997657 Q 6.521484375 3.0459581342997657 6.5474853515625 3.0554796186747657 Q 6.573486328125 3.0650011030497657 6.59197998046875 3.0822130171122657 Q 6.6104736328125 3.0994249311747657 6.62054443359375 3.1234117475810157 Q 6.630615234375 3.1473985639872657 6.630615234375 3.1759630171122657 Q 6.630615234375 3.2056261030497657 6.62054443359375 3.2307115522685157 Q 6.6104736328125 3.2557970014872657 6.59344482421875 3.2753892866435157 Q 6.576416015625 3.2949815717997657 6.55389404296875 3.3090806928935157 Q 6.5313720703125 3.3231798139872657 6.5064697265625 3.3312364546122657 Q 6.520751953125 3.3414903608622657 6.5306396484375 3.3619981733622657 Q 6.54052734375 3.3825059858622657 6.541259765625 3.4107042280497657 L 6.54345703125 3.5381456342997657 L 6.5906982421875 3.5381456342997657 L 6.576416015625 3.6011339155497657 L 6.4691162109375 3.6011339155497657 L 6.4669189453125 3.4323106733622657 Q 6.4661865234375 3.3865343061747657 6.446044921875 3.3652940717997657 Q 6.4259033203125 3.3440538374247657 6.38525390625 3.3440538374247657 L 6.3255615234375 3.3440538374247657 L 6.28125 3.5381456342997657 L 6.3358154296875 3.5381456342997657 L 6.321533203125 3.6011339155497657 L 6.141357421875 3.6011339155497657 L 6.1556396484375 3.5381456342997657 L 6.2047119140625 3.5381456342997657 L 6.3035888671875 3.1093126264872657 L 6.2486572265625 3.1093126264872657 L 6.263671875 3.0459581342997657 M 6.37939453125 3.1093126264872657 L 6.33984375 3.2825303999247657 L 6.4266357421875 3.2825303999247657 Q 6.4541015625 3.2825303999247657 6.47735595703125 3.2763048139872657 Q 6.5006103515625 3.2700792280497657 6.5174560546875 3.2572618452372657 Q 6.5343017578125 3.2444444624247657 6.5438232421875 3.2250352827372657 Q 6.5533447265625 3.2056261030497657 6.5533447265625 3.1796251264872657 Q 6.5533447265625 3.1642442671122657 6.5482177734375 3.1512437788310157 Q 6.5430908203125 3.1382432905497657 6.53228759765625 3.1289049116435157 Q 6.521484375 3.1195665327372657 6.50482177734375 3.1144395796122657 Q 6.4881591796875 3.1093126264872657 6.4654541015625 3.1093126264872657 L 6.37939453125 3.1093126264872657 M 6.8668212890625 3.4194932905497657 L 6.8814697265625 3.3565050092997657 L 7.090576171875 3.3565050092997657 L 7.075927734375 3.4194932905497657 L 6.8668212890625 3.4194932905497657 M 7.8079833984375 3.0459581342997657 L 7.98779296875 3.0459581342997657 L 7.9735107421875 3.1093126264872657 L 7.9237060546875 3.1093126264872657 L 7.8109130859375 3.6011339155497657 L 7.7149658203125 3.6011339155497657 L 7.563720703125 3.1415391889872657 L 7.4725341796875 3.5381456342997657 L 7.5281982421875 3.5381456342997657 L 7.513916015625 3.6011339155497657 L 7.333740234375 3.6011339155497657 L 7.3480224609375 3.5381456342997657 L 7.396728515625 3.5381456342997657 L 7.4959716796875 3.1093126264872657 L 7.4410400390625 3.1093126264872657 L 7.4560546875 3.0459581342997657 L 7.6083984375 3.0459581342997657 L 7.7578125 3.5022569624247657 L 7.847900390625 3.1093126264872657 L 7.793701171875 3.1093126264872657 L 7.8079833984375 3.0459581342997657 M 8.222900390625 3.6124864546122657 Q 8.176025390625 3.6124864546122657 8.13372802734375 3.5945421186747657 Q 8.0914306640625 3.5765977827372657 8.05938720703125 3.5438219038310157 Q 8.02734375 3.5110460249247657 8.00848388671875 3.4647203413310157 Q 7.9896240234375 3.4183946577372657 7.9896240234375 3.3612657514872657 Q 7.9896240234375 3.3132921186747657 8.0009765625 3.2706285444560157 Q 8.0123291015625 3.2279649702372657 8.0328369140625 3.1917100874247657 Q 8.0533447265625 3.1554552046122657 8.08209228515625 3.1265245405497657 Q 8.11083984375 3.0975938764872657 8.14581298828125 3.0774522749247657 Q 8.1807861328125 3.0573106733622657 8.220703125 3.0465074507060157 Q 8.2606201171875 3.0357042280497657 8.3038330078125 3.0357042280497657 Q 8.3507080078125 3.0357042280497657 8.39300537109375 3.0520006147685157 Q 8.435302734375 3.0682970014872657 8.46734619140625 3.0994249311747657 Q 8.4993896484375 3.1305528608622657 8.51824951171875 3.1757799116435157 Q 8.537109375 3.2210069624247657 8.537109375 3.2785020796122657 Q 8.537109375 3.3275743452372657 8.526123046875 3.3715196577372657 Q 8.51513671875 3.4154649702372657 8.49517822265625 3.4524522749247657 Q 8.4752197265625 3.4894395796122657 8.44683837890625 3.5191026655497657 Q 8.41845703125 3.5487657514872657 8.38348388671875 3.5694566694560157 Q 8.3485107421875 3.5901475874247657 8.307861328125 3.6013170210185157 Q 8.2672119140625 3.6124864546122657 8.222900390625 3.6124864546122657 M 8.2313232421875 3.5381456342997657 Q 8.2628173828125 3.5381456342997657 8.291748046875 3.5293565717997657 Q 8.3206787109375 3.5205675092997657 8.3455810546875 3.5042711225810157 Q 8.3704833984375 3.4879747358622657 8.39080810546875 3.4650865522685157 Q 8.4111328125 3.4421983686747657 8.4254150390625 3.4140001264872657 Q 8.439697265625 3.3858018842997657 8.44757080078125 3.3532091108622657 Q 8.4554443359375 3.3206163374247657 8.4554443359375 3.2847276655497657 Q 8.4554443359375 3.2448106733622657 8.44354248046875 3.2125841108622657 Q 8.431640625 3.1803575483622657 8.410400390625 3.1574693647685157 Q 8.38916015625 3.1345811811747657 8.35986328125 3.1223131147685157 Q 8.33056640625 3.1100450483622657 8.2957763671875 3.1100450483622657 Q 8.2503662109375 3.1100450483622657 8.209716796875 3.1283555952372657 Q 8.1690673828125 3.1466661421122657 8.1383056640625 3.1794420210185157 Q 8.1075439453125 3.2122178999247657 8.089599609375 3.2570787397685157 Q 8.0716552734375 3.3019395796122657 8.0716552734375 3.3550401655497657 Q 8.0716552734375 3.3942247358622657 8.08355712890625 3.4277330366435157 Q 8.095458984375 3.4612413374247657 8.11669921875 3.4857774702372657 Q 8.137939453125 3.5103136030497657 8.167236328125 3.5242296186747657 Q 8.196533203125 3.5381456342997657 8.2313232421875 3.5381456342997657 M 8.6689453125 3.5381456342997657 L 8.72021484375 3.5381456342997657 L 8.81982421875 3.1060167280497657 L 8.6854248046875 3.1060167280497657 L 8.666015625 3.1924425092997657 L 8.5909423828125 3.1924425092997657 L 8.6246337890625 3.0459581342997657 L 9.1197509765625 3.0459581342997657 L 9.085693359375 3.1924425092997657 L 9.010986328125 3.1924425092997657 L 9.0303955078125 3.1060167280497657 L 8.8956298828125 3.1060167280497657 L 8.7967529296875 3.5381456342997657 L 8.8487548828125 3.5381456342997657 L 8.83447265625 3.6011339155497657 L 8.6546630859375 3.6011339155497657 L 8.6689453125 3.5381456342997657 M 9.7569580078125 3.0459581342997657 L 9.9371337890625 3.0459581342997657 L 9.922119140625 3.1093126264872657 L 9.8719482421875 3.1093126264872657 L 9.7738037109375 3.5381456342997657 L 9.828369140625 3.5381456342997657 L 9.8140869140625 3.6011339155497657 L 9.6339111328125 3.6011339155497657 L 9.648193359375 3.5381456342997657 L 9.697265625 3.5381456342997657 L 9.743408203125 3.3385606733622657 L 9.4295654296875 3.3385606733622657 L 9.3837890625 3.5381456342997657 L 9.4383544921875 3.5381456342997657 L 9.424072265625 3.6011339155497657 L 9.243896484375 3.6011339155497657 L 9.2581787109375 3.5381456342997657 L 9.3072509765625 3.5381456342997657 L 9.4061279296875 3.1093126264872657 L 9.3519287109375 3.1093126264872657 L 9.366943359375 3.0459581342997657 L 9.547119140625 3.0459581342997657 L 9.5321044921875 3.1093126264872657 L 9.48193359375 3.1093126264872657 L 9.4434814453125 3.2770372358622657 L 9.7576904296875 3.2770372358622657 L 9.796142578125 3.1093126264872657 L 9.741943359375 3.1093126264872657 L 9.7569580078125 3.0459581342997657 M 10.2626953125 3.5381456342997657 L 10.3092041015625 3.5381456342997657 L 10.295654296875 3.4129014936747657 L 10.08544921875 3.4129014936747657 L 10.0155029296875 3.5381456342997657 L 10.0653076171875 3.5381456342997657 L 10.0513916015625 3.6011339155497657 L 9.8712158203125 3.6011339155497657 L 9.885498046875 3.5381456342997657 L 9.9334716796875 3.5381456342997657 L 10.2117919921875 3.0459581342997657 L 10.330078125 3.0459581342997657 L 10.387939453125 3.5381456342997657 L 10.44287109375 3.5381456342997657 L 10.4285888671875 3.6011339155497657 L 10.2484130859375 3.6011339155497657 L 10.2626953125 3.5381456342997657 M 10.12060546875 3.3499132124247657 L 10.2886962890625 3.3499132124247657 L 10.26123046875 3.0979600874247657 L 10.12060546875 3.3499132124247657 M 10.6116943359375 3.0459581342997657 L 10.837646484375 3.0459581342997657 Q 10.8695068359375 3.0459581342997657 10.8955078125 3.0554796186747657 Q 10.9215087890625 3.0650011030497657 10.94000244140625 3.0822130171122657 Q 10.95849609375 3.0994249311747657 10.96856689453125 3.1234117475810157 Q 10.9786376953125 3.1473985639872657 10.9786376953125 3.1759630171122657 Q 10.9786376953125 3.2056261030497657 10.96856689453125 3.2307115522685157 Q 10.95849609375 3.2557970014872657 10.94146728515625 3.2753892866435157 Q 10.9244384765625 3.2949815717997657 10.90191650390625 3.3090806928935157 Q 10.87939453125 3.3231798139872657 10.8544921875 3.3312364546122657 Q 10.8687744140625 3.3414903608622657 10.878662109375 3.3619981733622657 Q 10.8885498046875 3.3825059858622657 10.8892822265625 3.4107042280497657 L 10.8914794921875 3.5381456342997657 L 10.938720703125 3.5381456342997657 L 10.9244384765625 3.6011339155497657 L 10.817138671875 3.6011339155497657 L 10.81494140625 3.4323106733622657 Q 10.814208984375 3.3865343061747657 10.7940673828125 3.3652940717997657 Q 10.77392578125 3.3440538374247657 10.7332763671875 3.3440538374247657 L 10.673583984375 3.3440538374247657 L 10.6292724609375 3.5381456342997657 L 10.683837890625 3.5381456342997657 L 10.6695556640625 3.6011339155497657 L 10.4893798828125 3.6011339155497657 L 10.503662109375 3.5381456342997657 L 10.552734375 3.5381456342997657 L 10.651611328125 3.1093126264872657 L 10.5966796875 3.1093126264872657 L 10.6116943359375 3.0459581342997657 M 10.7274169921875 3.1093126264872657 L 10.6878662109375 3.2825303999247657 L 10.774658203125 3.2825303999247657 Q 10.8021240234375 3.2825303999247657 10.82537841796875 3.2763048139872657 Q 10.8486328125 3.2700792280497657 10.865478515625 3.2572618452372657 Q 10.88232421875 3.2444444624247657 10.891845703125 3.2250352827372657 Q 10.9013671875 3.2056261030497657 10.9013671875 3.1796251264872657 Q 10.9013671875 3.1642442671122657 10.896240234375 3.1512437788310157 Q 10.89111328125 3.1382432905497657 10.88031005859375 3.1289049116435157 Q 10.8695068359375 3.1195665327372657 10.85284423828125 3.1144395796122657 Q 10.836181640625 3.1093126264872657 10.8134765625 3.1093126264872657 L 10.7274169921875 3.1093126264872657 M 11.14599609375 3.0459581342997657 L 11.3470458984375 3.0459581342997657 Q 11.395751953125 3.0459581342997657 11.43511962890625 3.0644517866435157 Q 11.4744873046875 3.0829454389872657 11.50213623046875 3.1149888960185157 Q 11.52978515625 3.1470323530497657 11.54461669921875 3.1898790327372657 Q 11.5594482421875 3.2327257124247657 11.5594482421875 3.2810655561747657 Q 11.5594482421875 3.3290391889872657 11.54791259765625 3.3713365522685157 Q 11.536376953125 3.4136339155497657 11.51531982421875 3.4493394819560157 Q 11.4942626953125 3.4850450483622657 11.4642333984375 3.5130601850810157 Q 11.4342041015625 3.5410753217997657 11.3975830078125 3.5606676069560157 Q 11.3609619140625 3.5802598921122657 11.3184814453125 3.5906969038310157 Q 11.2760009765625 3.6011339155497657 11.2294921875 3.6011339155497657 L 11.017822265625 3.6011339155497657 L 11.0321044921875 3.5381456342997657 L 11.0804443359375 3.5381456342997657 L 11.1793212890625 3.1093126264872657 L 11.13134765625 3.1093126264872657 L 11.14599609375 3.0459581342997657 M 11.255126953125 3.1093126264872657 L 11.156982421875 3.5381456342997657 L 11.237548828125 3.5381456342997657 Q 11.2679443359375 3.5381456342997657 11.297607421875 3.5300889936747657 Q 11.3272705078125 3.5220323530497657 11.35418701171875 3.5066514936747657 Q 11.381103515625 3.4912706342997657 11.40399169921875 3.4692979780497657 Q 11.4268798828125 3.4473253217997657 11.44354248046875 3.4194932905497657 Q 11.460205078125 3.3916612592997657 11.4697265625 3.3583360639872657 Q 11.479248046875 3.3250108686747657 11.479248046875 3.2869249311747657 Q 11.479248046875 3.2514024702372657 11.46917724609375 3.2193590132060157 Q 11.4591064453125 3.1873155561747657 11.44061279296875 3.1627794233622657 Q 11.422119140625 3.1382432905497657 11.39593505859375 3.1237779585185157 Q 11.3697509765625 3.1093126264872657 11.3375244140625 3.1093126264872657 L 11.255126953125 3.1093126264872657 M 11.71435546875 3.0459581342997657 L 12.1171875 3.0459581342997657 L 12.08056640625 3.2045274702372657 L 12.0047607421875 3.2045274702372657 L 12.027099609375 3.1093126264872657 L 11.829345703125 3.1093126264872657 L 11.7886962890625 3.2869249311747657 L 11.9520263671875 3.2869249311747657 L 11.936279296875 3.3499132124247657 L 11.7744140625 3.3499132124247657 L 11.731201171875 3.5381456342997657 L 11.9267578125 3.5381456342997657 L 11.9490966796875 3.4421983686747657 L 12.025634765625 3.4421983686747657 L 11.989013671875 3.6011339155497657 L 11.59130859375 3.6011339155497657 L 11.6055908203125 3.5381456342997657 L 11.6546630859375 3.5381456342997657 L 11.7535400390625 3.1093126264872657 L 11.6993408203125 3.1093126264872657 L 11.71435546875 3.0459581342997657 M 12.233642578125 3.0459581342997657 L 12.4595947265625 3.0459581342997657 Q 12.491455078125 3.0459581342997657 12.5174560546875 3.0554796186747657 Q 12.54345703125 3.0650011030497657 12.56195068359375 3.0822130171122657 Q 12.5804443359375 3.0994249311747657 12.59051513671875 3.1234117475810157 Q 12.6005859375 3.1473985639872657 12.6005859375 3.1759630171122657 Q 12.6005859375 3.2056261030497657 12.59051513671875 3.2307115522685157 Q 12.5804443359375 3.2557970014872657 12.56341552734375 3.2753892866435157 Q 12.54638671875 3.2949815717997657 12.52386474609375 3.3090806928935157 Q 12.5013427734375 3.3231798139872657 12.4764404296875 3.3312364546122657 Q 12.49072265625 3.3414903608622657 12.5006103515625 3.3619981733622657 Q 12.510498046875 3.3825059858622657 12.51123046875 3.4107042280497657 L 12.513427734375 3.5381456342997657 L 12.5606689453125 3.5381456342997657 L 12.54638671875 3.6011339155497657 L 12.4390869140625 3.6011339155497657 L 12.4368896484375 3.4323106733622657 Q 12.4361572265625 3.3865343061747657 12.416015625 3.3652940717997657 Q 12.3958740234375 3.3440538374247657 12.355224609375 3.3440538374247657 L 12.2955322265625 3.3440538374247657 L 12.251220703125 3.5381456342997657 L 12.3057861328125 3.5381456342997657 L 12.29150390625 3.6011339155497657 L 12.111328125 3.6011339155497657 L 12.1256103515625 3.5381456342997657 L 12.1746826171875 3.5381456342997657 L 12.2735595703125 3.1093126264872657 L 12.2186279296875 3.1093126264872657 L 12.233642578125 3.0459581342997657 M 12.349365234375 3.1093126264872657 L 12.309814453125 3.2825303999247657 L 12.3966064453125 3.2825303999247657 Q 12.424072265625 3.2825303999247657 12.44732666015625 3.2763048139872657 Q 12.4705810546875 3.2700792280497657 12.4874267578125 3.2572618452372657 Q 12.5042724609375 3.2444444624247657 12.5137939453125 3.2250352827372657 Q 12.5233154296875 3.2056261030497657 12.5233154296875 3.1796251264872657 Q 12.5233154296875 3.1642442671122657 12.5181884765625 3.1512437788310157 Q 12.5130615234375 3.1382432905497657 12.50225830078125 3.1289049116435157 Q 12.491455078125 3.1195665327372657 12.47479248046875 3.1144395796122657 Q 12.4581298828125 3.1093126264872657 12.4354248046875 3.1093126264872657 L 12.349365234375 3.1093126264872657" fill="#ffffff" fill-rule="nonzero"></path></g><g transform="matrix(-1,0,0,1,-5.175833724401012,0)" clip-path="url(#SvgjsClipPath1002)"><g clip-path="url(#SvgjsClipPath10008e96c536-1b0f-4073-a139-ae81d78a9a67)"><path d=" M -2.3392152459163245 3.828891152844419 L -2.226003056418378 3.7039925437854024 C -1.842117767004107 3.3001928155653943 -1.4835385519290054 2.8730688661800694 -1.1523132592443668 2.4250600030699627 C -0.6117576045756197 1.6808729433674534 -0.7383173315295508 0.6454458651530839 -1.4422041686201088 0.053366380460621254 C -2.1460910057106677 -0.5387131042318383 -3.1878945312161937 -0.4860631941616104 -3.828503338731137 0.1739634351173892 L -3.828503338731137 0.1739634351173892 C -4.120618784248936 0.46464460747915415 -4.300222913509039 0.8494736279542185 -4.33540178719292 1.2600700530750455 C -4.370676742800148 1.6742602416379828 -4.259815636149531 2.087728238470121 -4.0220596627115075 2.428712009182807 C -3.690359506234884 2.8774542505084115 -3.331294120058675 3.305307978329773 -2.9469090630923587 3.7098357535659745 L -2.835888077262143 3.8318127577346917 C -2.8045427298028924 3.866532909945359 -2.766540027046817 3.8946002655756637 -2.724136690209334 3.914348095884803 C -2.6810294352503035 3.932983337550112 -2.634513317510196 3.942435810673771 -2.587551661589234 3.9421033423423597 L -2.587551661589234 3.9421033423423597 C -2.540647525071069 3.942602854164981 -2.494146410128346 3.9334020988019875 -2.4509666329691338 3.9150784971073684 C -2.408563296131651 3.89533066679823 -2.3705605933755756 3.867263311167924 -2.3392152459163245 3.832543158957257 Z M -1.905356919711327 3.9961530328123422 L -2.018569109209224 4.120321240648794 C -2.163089521384961 4.282339204418708 -2.3704514735491657 4.374174728804661 -2.5875516615891843 4.372309662434528 L -2.5875516615891843 4.372309662434528 C -2.8044810834751606 4.375112197864114 -3.011897823685587 4.283400939981876 -3.1558038127466004 4.121051641871354 L -3.2675551997994097 3.9990746377026114 C -3.664687277358203 3.5812844580861705 -4.035240328812262 3.1390114611894346 -4.377034656879268 2.6748572211879975 L -4.377034656879268 2.6748572211879975 C -4.672860229758968 2.2519054646524395 -4.8108904282260925 1.738557198443261 -4.7670689097301855 1.2242803931692312 L -4.7670689097301855 1.2242803931692312 C -4.723273582479157 0.7120090235919887 -4.499133880527804 0.2318945350010484 -4.1345414509869105 -0.13061387469320285 L -4.1345414509869105 -0.13061387469320285 C -3.2781409295614328 -0.9807893177057625 -1.896231992394441 -0.9807893177057625 -1.0398314709690135 -0.13061387469320596 L -1.0398314709690135 -0.13061387469320596 C -0.28848391034304566 0.6221799604312619 -0.18622822387912485 1.8058203311562435 -0.7973382650766552 2.676318023633129 C -1.1392878075350996 3.137391891979973 -1.5093288081872993 3.5769527905792917 -1.905356919711327 3.9925010266995042 Z" fill="#ffffff" transform="matrix(1,0,0,1,0,0)" fill-rule="evenodd"></path></g><g clip-path="url(#SvgjsClipPath10008e96c536-1b0f-4073-a139-ae81d78a9a67)"><path d=" M -2.226003056418378 2.80486863880499 C -2.120094879146169 2.696038856642453 -2.0163779055415922 2.585748272034785 -1.9199649441627038 2.476188088649679 C -1.8235519827838154 2.3666279052645733 -1.7322518299628844 2.257067721879474 -1.64606448569991 2.1358211189332916 C -1.4955108758421534 1.9274079634663783 -1.4205352887686882 1.673882266970518 -1.4335177299327992 1.4171063159270143 C -1.4447578428702967 1.1623080895558964 -1.543269593462263 0.9191233230421436 -1.7125309969536002 0.7283379630460003 L -1.7183742067341012 0.7217643520428931 C -2.1159153854468804 0.24462659487123273 -2.8238882872508793 0.1774490648059962 -3.3040752609278514 0.571301700194019 L -3.3040752609278017 0.571301700194019 C -3.5137084535142806 0.7405963628243655 -3.6555052251942595 0.9796029871185457 -3.703604729672188 1.2447316274011184 C -3.7519065510928504 1.5132824202569886 -3.7032414307024752 1.7902594352448489 -3.566289299829494 2.026260935548189 L -3.566289299829494 2.026260935548189 C -3.4866956169403003 2.164803231155382 -3.397105655276046 2.297357316124558 -3.298232051147251 2.42286879940225 C -3.195975879987862 2.5543410194643807 -3.087146097825328 2.679239628523398 -2.9746643095499747 2.797564626579308 C -2.926937733290919 2.848997773281655 -2.869296608032463 2.8902409922165497 -2.8052112259143014 2.918811229525484 C -2.7406642545267794 2.945810463920653 -2.6713954921841503 2.95971387141595 -2.601429284818017 2.9597136979892555 C -2.530905136146731 2.960353320879958 -2.4609358439135764 2.9472030638290527 -2.395456140054051 2.9210024331931876 C -2.3312267720854716 2.893240256967392 -2.273136388445595 2.8530238375243937 -2.2245422539733397 2.802677435137271 Z M -1.5942059988976465 2.7610445654509466 C -1.6993837749473113 2.8815607671745602 -1.8074831558873008 2.9955033578950667 -1.915582536827241 3.1065243437253036 C -2.0046780448115045 3.20003274742156 -2.1117568391987303 3.2745655509393576 -2.230385463753791 3.3256447104955087 C -2.596120241883156 3.479156652413604 -3.018742501201527 3.389156460732432 -3.2901976376990185 3.0999507327221965 C -3.4150962467580173 2.9684785126600755 -3.5348820472590585 2.832623885262547 -3.6429814281990485 2.6938476529747497 C -3.7537594062137583 2.55124199036439 -3.854551347292962 2.401152296021238 -3.944637133119409 2.2446509010958287 C -4.131808722591223 1.9203346202505815 -4.198053557237703 1.5402031276893635 -4.131619846096585 1.1716915051443864 C -4.0088059007423995 0.5369522045025017 -3.5118112440162816 0.04099753120846927 -2.8768160734355916 -0.08048653479211887 C -2.2418209028549514 -0.201970600792707 -1.5968564747479794 0.07551023323580042 -1.2484207040529056 0.6200924204701288 C -0.8999849333577323 1.1646746077044572 -0.9183313771701025 1.8665564601382778 -1.2947414976450178 2.3921919480544362 C -1.3860416504659487 2.515629754668322 -1.4861066179577063 2.639067561282202 -1.5942059988976465 2.761044565450953 Z" fill="#ffffff" transform="matrix(1,0,0,1,0,0)" fill-rule="evenodd"></path></g><g clip-path="url(#SvgjsClipPath10008e96c536-1b0f-4073-a139-ae81d78a9a67)"><path d=" M -2.587551661589234 1.8604598580254037 C -2.40759944866113 1.859731693774151 -2.2456304110093446 1.7511663753005813 -2.1765760216145114 1.584989299666745 C -2.107521632219629 1.4188122240329144 -2.1448484115281934 1.2274301217361108 -2.271287932217596 1.0993817841102171 L -2.271287932217596 1.0993817841102171 C -2.414109338344005 0.9565324515058355 -2.635074345032965 0.9274287235713861 -2.810013159519798 1.0284252436074164 C -2.9849519740066315 1.1294217636434465 -3.0702377693276377 1.3353316815133542 -3.0179447689561836 1.5304453099087216 C -2.965651768584779 1.7255589383040895 -2.788820975944331 1.8612181876565979 -2.58682126036669 1.8611902592479757 Z M -1.9652498199618726 2.036486552664134 C -2.1297086003238523 2.2015173652936704 -2.3531061824906567 2.294278949045261 -2.5860908591440963 2.294278949045261 C -2.819075535797536 2.294278949045261 -3.04247311796434 2.2015173652936704 -3.20693189832632 2.036486552664134 L -3.2069318983263697 2.036486552664134 C -3.5498129363358264 1.6936055146546773 -3.5498129363358264 1.1376855123090974 -3.2069318983263697 0.7948044742996374 C -2.864050860316863 0.4519234362901805 -2.3081308579713298 0.4519234362901774 -1.965249819961823 0.7948044742996343 L -1.9652498199618726 0.7948044742996343 C -1.8002190073323114 0.9592632546616264 -1.7074574235807365 1.1826608368284215 -1.7074574235807365 1.4156455134818828 C -1.7074574235807365 1.6486301901353468 -1.8002190073323114 1.872027772302145 -1.9652498199618726 2.036486552664134 Z" fill="#ffffff" transform="matrix(1,0,0,1,0,0)" fill-rule="evenodd"></path></g></g></g><defs><clipPath id="SvgjsClipPath1002"><path d=" M -4.775833724401012 -0.7711757468847664 h 4.375833724401011 v 5.1434854093192985 h -4.375833724401011 Z"></path></clipPath><clipPath id="SvgjsClipPath10008e96c536-1b0f-4073-a139-ae81d78a9a67"><path d=" M -4.775833724401012 -0.7711757468847664 L -0.40000000000000036 -0.7711757468847664 L -0.40000000000000036 4.372309662434532 L -4.775833724401011 4.372309662434532 Z"></path></clipPath></defs></svg>