<svg enable-background="new 0 0 191.5 93.25" height="93.25" viewBox="0 0 191.5 93.25" width="191.5" xmlns="http://www.w3.org/2000/svg"><g fill="#fff"><path d="m3.928223 90.292969h-1.178223l3.87793-16.634277h1.178223z" stroke="#fff" stroke-linecap="round" stroke-linejoin="round" stroke-miterlimit="10" stroke-width="5"/><path d="m8.642578 90.292969h-1.178223l3.87793-16.634277h1.178223z" stroke="#fff" stroke-linecap="round" stroke-linejoin="round" stroke-miterlimit="10" stroke-width="5"/><path d="m17.334961 77.397461h1.243164l2.161621 8.275391h.027832l2.402832-8.275391h1.243164l2.402832 8.275391h.027832l2.161621-8.275391h1.233887l-2.736816 9.648438h-1.298828l-2.402832-8.006348h-.027832l-2.393555 8.006348h-1.298828z" stroke="#fff" stroke-linecap="round" stroke-linejoin="round" stroke-miterlimit="10" stroke-width="5"/><path d="m31.078125 82.249512v-.009277c0-3.024414 1.707031-5.019043 4.286133-5.019043s4.202637 1.929688 4.202637 4.814941v.482422h-7.245605c.037109 2.300781 1.270996 3.608887 3.172852 3.608887 1.419434 0 2.402832-.714355 2.718262-1.762695l.018555-.083496h1.215332l-.018555.092773c-.333984 1.651367-1.874023 2.848145-3.961426 2.848145-2.708986-.000001-4.388185-1.920411-4.388185-4.972657zm1.261719-.705078h5.993164c-.13916-2.105957-1.32666-3.228516-2.978027-3.228516-1.64209 0-2.8667 1.178223-3.015137 3.228516z" stroke="#fff" stroke-linecap="round" stroke-linejoin="round" stroke-miterlimit="10" stroke-width="5"/><path d="m45.374023 82.249512v-.009277c0-3.024414 1.707031-5.019043 4.286133-5.019043s4.202637 1.929688 4.202637 4.814941v.482422h-7.245605c.037109 2.300781 1.270996 3.608887 3.172852 3.608887 1.419434 0 2.402832-.714355 2.718262-1.762695l.018555-.083496h1.215332l-.018555.092773c-.333984 1.651367-1.874023 2.848145-3.961426 2.848145-2.708985-.000001-4.388185-1.920411-4.388185-4.972657zm1.261719-.705078h5.993164c-.13916-2.105957-1.32666-3.228516-2.978027-3.228516-1.64209 0-2.866699 1.178223-3.015137 3.228516z" stroke="#fff" stroke-linecap="round" stroke-linejoin="round" stroke-miterlimit="10" stroke-width="5"/><path d="m55.852539 77.397461h1.224609v1.64209h.037109c.482422-1.039062 1.567871-1.809082 3.126465-1.809082 2.133789 0 3.395508 1.373047 3.395508 3.636719v6.178711h-1.224609v-5.974609c0-1.790527-.890625-2.746094-2.532715-2.746094-1.679199 0-2.801758 1.206055-2.801758 3.005859v5.714844h-1.224609z" stroke="#fff" stroke-linecap="round" stroke-linejoin="round" stroke-miterlimit="10" stroke-width="5"/><path d="m66.007812 88.010742-.018555-.074219h1.233887l.037109.083496c.324707.779297 1.308105 1.354492 2.783203 1.354492 1.846191 0 2.922363-1.039062 2.922363-2.681152v-1.697754h-.027832c-.510254 1.261719-1.734863 2.161621-3.28418 2.161621-2.430664 0-4.091309-1.966797-4.091309-4.972656v-.009277c0-2.987305 1.679199-4.954102 4.109863-4.954102 1.540039 0 2.736816.937012 3.265625 2.217285h.027832v-2.041016h1.233887v9.397949c0 2.226562-1.595703 3.673828-4.146973 3.673828-2.291502.000001-3.701658-1.094725-4.04492-2.458495zm6.958008-5.826172v-.009277c0-2.310059-1.261719-3.859375-3.070801-3.859375-1.864746 0-3.070801 1.530762-3.070801 3.859375v.009277c0 2.356445 1.206055 3.87793 3.070801 3.87793 1.81836 0 3.070801-1.558594 3.070801-3.87793z" stroke="#fff" stroke-linecap="round" stroke-linejoin="round" stroke-miterlimit="10" stroke-width="5"/><path d="m76.477051 74.836914c0-.45459.361816-.807129.816406-.807129.445312 0 .807129.352539.807129.807129s-.361816.816406-.807129.816406c-.45459 0-.816406-.361816-.816406-.816406zm.194824 2.560547h1.233887v9.648438h-1.233887z" stroke="#fff" stroke-linecap="round" stroke-linejoin="round" stroke-miterlimit="10" stroke-width="5"/><path d="m80.387695 77.397461h1.224609v1.64209h.037109c.482422-1.039062 1.567871-1.809082 3.126465-1.809082 2.133789 0 3.395508 1.373047 3.395508 3.636719v6.178711h-1.224609v-5.974609c0-1.790527-.890625-2.746094-2.532715-2.746094-1.679199 0-2.801758 1.206055-2.801758 3.005859v5.714844h-1.224609z" stroke="#fff" stroke-linecap="round" stroke-linejoin="round" stroke-miterlimit="10" stroke-width="5"/><path d="m90.097656 82.249512v-.009277c0-3.024414 1.707031-5.019043 4.286133-5.019043s4.202637 1.929688 4.202637 4.814941v.482422h-7.245606c.037109 2.300781 1.270996 3.608887 3.172852 3.608887 1.419434 0 2.402832-.714355 2.718262-1.762695l.018555-.083496h1.215332l-.018555.092773c-.333984 1.651367-1.874023 2.848145-3.961426 2.848145-2.708985-.000001-4.388184-1.920411-4.388184-4.972657zm1.261719-.705078h5.993164c-.13916-2.105957-1.32666-3.228516-2.978027-3.228516-1.64209 0-2.8667 1.178223-3.015137 3.228516z" stroke="#fff" stroke-linecap="round" stroke-linejoin="round" stroke-miterlimit="10" stroke-width="5"/><path d="m100.126465 82.249512v-.009277c0-3.024414 1.707031-5.019043 4.286133-5.019043s4.202637 1.929688 4.202637 4.814941v.482422h-7.245605c.037109 2.300781 1.270996 3.608887 3.172852 3.608887 1.419434 0 2.402832-.714355 2.718262-1.762695l.018555-.083496h1.215332l-.018555.092773c-.333984 1.651367-1.874023 2.848145-3.961426 2.848145-2.708986-.000001-4.388185-1.920411-4.388185-4.972657zm1.261719-.705078h5.993164c-.13916-2.105957-1.32666-3.228516-2.978027-3.228516-1.642091 0-2.8667 1.178223-3.015137 3.228516z" stroke="#fff" stroke-linecap="round" stroke-linejoin="round" stroke-miterlimit="10" stroke-width="5"/><path d="m110.60498 77.397461h1.224609v1.734863h.037109c.343262-1.178223 1.196777-1.911133 2.365723-1.911133.324707 0 .612305.064941.760742.111328v1.196777c-.157715-.064941-.500977-.129883-.918457-.129883-1.373047 0-2.245117 1.039062-2.245117 2.671875v5.974609h-1.224609z" stroke="#fff" stroke-linecap="round" stroke-linejoin="round" stroke-miterlimit="10" stroke-width="5"/><path d="m120.493652 84.346191-.009277-.083496h1.224609l.018555.083496c.194824 1.113281 1.094727 1.836914 2.55127 1.836914s2.384277-.667969 2.384277-1.679199v-.009277c0-.834961-.463867-1.289551-1.753418-1.595703l-1.456543-.352539c-1.818359-.436035-2.69043-1.233887-2.69043-2.569824v-.009277c0-1.60498 1.419434-2.746094 3.432617-2.746094 2.05957 0 3.376953 1.196777 3.534668 2.857422l.009277.102051h-1.178223l-.009277-.064941c-.157715-1.122559-1.01123-1.855469-2.356445-1.855469-1.308105 0-2.180176.677246-2.180176 1.660645v.009277c0 .77002.519531 1.261719 1.790527 1.567871l1.456543.343262c1.92041.463867 2.65332 1.215332 2.65332 2.569824v.009277c0 1.64209-1.530762 2.801758-3.645996 2.801758-2.189452-.000001-3.590331-1.168946-3.775878-2.875978z" stroke="#fff" stroke-linecap="round" stroke-linejoin="round" stroke-miterlimit="10" stroke-width="5"/><path d="m129.364258 82.22168v-.018555c0-3.061523 1.771973-4.981934 4.397461-4.981934 2.616211 0 4.397461 1.911133 4.397461 4.981934v.018555c0 3.070801-1.771973 5.000488-4.397461 5.000488-2.634766-.009277-4.397461-1.938965-4.397461-5.000488zm7.54248 0v-.018555c0-2.439941-1.261719-3.887207-3.14502-3.887207s-3.135742 1.456543-3.135742 3.887207v.018555c0 2.449219 1.243164 3.896484 3.14502 3.905762 1.883301-.000001 3.135742-1.465821 3.135742-3.905762z" stroke="#fff" stroke-linecap="round" stroke-linejoin="round" stroke-miterlimit="10" stroke-width="5"/><path d="m140.359375 78.427246h-1.345215v-1.029785h1.345215v-1.36377c0-1.744141.844238-2.55127 2.458496-2.55127.343262 0 .686523.037109.899902.074219v1.01123c-.204102-.037109-.445312-.055664-.695801-.055664-.937012 0-1.447266.473145-1.447266 1.540039v1.345215h2.078125v1.029785h-2.068848v8.618652h-1.224609v-8.618651z" stroke="#fff" stroke-linecap="round" stroke-linejoin="round" stroke-miterlimit="10" stroke-width="5"/><path d="m146.340332 84.782227v-6.35498h-1.419434v-1.029785h1.419434v-2.606934h1.261719v2.606934h1.911133v1.029785h-1.911133v6.336426c0 1.066895.45459 1.428711 1.354492 1.428711.222656 0 .41748-.027832.556641-.046387v1.001953c-.194824.037109-.510254.074219-.807129.074219-1.586426-.000001-2.365723-.751466-2.365723-2.439942z" stroke="#fff" stroke-linecap="round" stroke-linejoin="round" stroke-miterlimit="10" stroke-width="5"/><path d="m150.847656 77.397461h1.243164l2.161621 8.275391h.027832l2.402832-8.275391h1.243164l2.402832 8.275391h.027832l2.161621-8.275391h1.233887l-2.736816 9.648438h-1.298828l-2.402832-8.006348h-.027832l-2.393555 8.006348h-1.298828z" stroke="#fff" stroke-linecap="round" stroke-linejoin="round" stroke-miterlimit="10" stroke-width="5"/><path d="m164.631348 84.374023v-.018555c0-1.64209 1.243164-2.634766 3.460449-2.783203l3.005859-.185547v-.834961c0-1.391602-.881348-2.23584-2.384277-2.23584-1.400879 0-2.319336.677246-2.523438 1.771973l-.018555.092773h-1.1875l.009277-.111328c.185547-1.660645 1.558594-2.848145 3.73877-2.848145 2.208008 0 3.590332 1.243164 3.590332 3.219238v6.605469h-1.224609v-1.762695h-.037109c-.528809 1.150391-1.799805 1.938965-3.228516 1.938965-1.901855.000001-3.200683-1.141112-3.200683-2.848144zm3.451172 1.771973c1.688477 0 3.015137-1.1875 3.015137-2.727539v-1.066895l-2.857422.194824c-1.512207.092773-2.356445.751465-2.356445 1.809082v.018555c-.000001 1.057618.890624 1.771973 2.19873 1.771973z" stroke="#fff" stroke-linecap="round" stroke-linejoin="round" stroke-miterlimit="10" stroke-width="5"/><path d="m174.722168 77.397461h1.224609v1.734863h.037109c.343262-1.178223 1.196777-1.911133 2.365723-1.911133.324707 0 .612305.064941.760742.111328v1.196777c-.157715-.064941-.500977-.129883-.918457-.129883-1.373047 0-2.245117 1.039062-2.245117 2.671875v5.974609h-1.224609z" stroke="#fff" stroke-linecap="round" stroke-linejoin="round" stroke-miterlimit="10" stroke-width="5"/><path d="m179.964355 82.249512v-.009277c0-3.024414 1.707031-5.019043 4.286133-5.019043s4.202637 1.929688 4.202637 4.814941v.482422h-7.245605c.037109 2.300781 1.270996 3.608887 3.172852 3.608887 1.419434 0 2.402832-.714355 2.718262-1.762695l.018555-.083496h1.215332l-.018555.092773c-.333984 1.651367-1.874023 2.848145-3.961426 2.848145-2.708985-.000001-4.388185-1.920411-4.388185-4.972657zm1.261719-.705078h5.993164c-.13916-2.105957-1.32666-3.228516-2.978027-3.228516-1.64209 0-2.866699 1.178223-3.015137 3.228516z" stroke="#fff" stroke-linecap="round" stroke-linejoin="round" stroke-miterlimit="10" stroke-width="5"/><path d="m5.021484 62.011719 3.098145-14.594239h-5.286621l.949219-4.429688h16.163086l-.949219 4.429688h-5.286621l-3.098145 14.594238h-5.589844z" stroke="#fff" stroke-linecap="round" stroke-linejoin="round" stroke-miterlimit="10" stroke-width="5"/><path d="m17.947754 55.709961c0-4.983398 3.295898-8.62207 8.25293-8.62207 3.902344 0 6.618164 2.478516 6.618164 6.275391 0 .791016-.079102 1.766602-.263672 2.504883h-9.914062c-.026367.14502-.039551.290039-.039551.421875 0 1.344727.922852 2.399414 2.491699 2.399414 1.146973 0 2.030273-.580078 2.280762-1.423828h4.851562c-.751465 3.058594-3.52002 5.102051-7.395996 5.102051-4.166016-.000001-6.881836-2.465333-6.881836-6.657716zm10.098633-2.689453c.026367-.065918.039551-.276855.039551-.421875 0-1.107422-.870117-1.898438-2.122559-1.898438-1.35791 0-2.504883.936035-2.847656 2.320312h4.930664z" stroke="#fff" stroke-linecap="round" stroke-linejoin="round" stroke-miterlimit="10" stroke-width="5"/><path d="m49.556641 52.506348c0 .566895 0 .632812-.013184.711914h-4.983398c0-1.212891-.69873-1.977539-1.819336-1.977539-1.647949 0-2.781738 1.898438-2.781738 4.666992 0 1.397461.725098 2.320312 1.83252 2.320312 1.133789 0 1.951172-.751465 2.228027-2.030273h4.983398c-.435059 3.691406-3.427734 6.183105-7.44873 6.183105-4.139648 0-6.802734-2.452148-6.802734-6.249023 0-5.589844 3.150879-9.043945 8.25293-9.043945 3.770506 0 6.552245 2.307129 6.552245 5.418457z" stroke="#fff" stroke-linecap="round" stroke-linejoin="round" stroke-miterlimit="10" stroke-width="5"/><path d="m54.320312 42.987793h5.194336l-1.437012 6.670898h.105469c1.081055-1.582031 2.71582-2.491699 4.73291-2.491699 2.663086 0 4.429688 1.621582 4.429688 4.03418 0 .540527-.065918 1.146973-.197754 1.779785l-1.898438 9.030762h-5.181152l1.727051-8.226562c.065918-.342773.092285-.619629.092285-.896484 0-1.001953-.830566-1.740234-1.977539-1.740234-1.252441 0-2.333496.949219-2.623535 2.320312l-1.806152 8.542969h-5.20752z" stroke="#fff" stroke-linecap="round" stroke-linejoin="round" stroke-miterlimit="10" stroke-width="5"/><path d="m71.343262 47.457031h5.049316l-.474609 2.20166h.105469c1.02832-1.661133 2.874023-2.570801 4.812012-2.570801 2.636719 0 4.376953 1.634766 4.376953 4.113281 0 .540527-.065918 1.133789-.197754 1.779785l-1.898438 9.030762h-5.181152l1.727051-8.226562c.065918-.355957.092285-.619629.092285-.896484 0-1.015137-.804199-1.740234-1.937988-1.740234-1.226074 0-2.267578.936035-2.557617 2.320312l-1.819336 8.542969h-5.194336z" stroke="#fff" stroke-linecap="round" stroke-linejoin="round" stroke-miterlimit="10" stroke-width="5"/><path d="m102.716309 53.692871c0 5.075684-3.612305 8.687988-8.701172 8.687988-4.192383 0-7.040039-2.663086-7.040039-6.60498 0-5.075684 3.612305-8.687988 8.701172-8.687988 4.192382 0 7.040039 2.663086 7.040039 6.60498zm-5.339356.105469c0-1.634766-.777832-2.71582-1.964355-2.71582-1.806152 0-3.137695 1.951172-3.137695 4.587891 0 1.621582.791016 2.71582 1.977539 2.71582 1.766601-.000001 3.124511-2.003907 3.124511-4.587891z" stroke="#fff" stroke-linecap="round" stroke-linejoin="round" stroke-miterlimit="10" stroke-width="5"/><path d="m107.73877 42.987793h5.220703l-4.047363 19.023926h-5.220703z" stroke="#fff" stroke-linecap="round" stroke-linejoin="round" stroke-miterlimit="10" stroke-width="5"/><path d="m128.674805 53.692871c0 5.075684-3.612305 8.687988-8.701172 8.687988-4.192383 0-7.040039-2.663086-7.040039-6.60498 0-5.075684 3.612305-8.687988 8.701172-8.687988 4.192382 0 7.040039 2.663086 7.040039 6.60498zm-5.339356.105469c0-1.634766-.777832-2.71582-1.964355-2.71582-1.806152 0-3.137695 1.951172-3.137695 4.587891 0 1.621582.791016 2.71582 1.977539 2.71582 1.766601-.000001 3.124511-2.003907 3.124511-4.587891z" stroke="#fff" stroke-linecap="round" stroke-linejoin="round" stroke-miterlimit="10" stroke-width="5"/><path d="m129.02832 62.736816h5.049316c.158203.883301 1.054688 1.397461 2.452148 1.397461 1.50293 0 2.38623-.632812 2.649902-1.898438l.540527-2.491699h-.263672c-.84375 1.252441-2.333496 1.937988-4.192383 1.937988-2.887207 0-4.825195-2.109375-4.825195-5.260254 0-5.049316 3.243164-9.175781 7.211426-9.175781 1.977539 0 3.533203 1.015137 4.020996 2.636719h.237305l.553711-2.425781h5.088867l-3.203613 15.068848c-.672363 3.137695-3.665039 4.983398-8.10791 4.983398-4.521972 0-7.185057-1.766601-7.211425-4.772461zm11.891602-8.95166c0-1.476562-.804199-2.438965-2.030273-2.438965-1.727051 0-3.124512 1.990723-3.124512 4.456055 0 1.463379.804199 2.438965 2.030273 2.438965 1.674317 0 3.124512-2.069824 3.124512-4.456055z" stroke="#fff" stroke-linecap="round" stroke-linejoin="round" stroke-miterlimit="10" stroke-width="5"/><path d="m151.236328 47.457031h5.233887l-3.098145 14.554688h-5.233887zm.883301-3.915527c0-1.371094 1.133789-2.518066 2.570801-2.518066s2.570801 1.146973 2.570801 2.518066-1.133789 2.518066-2.570801 2.518066-2.570801-1.146972-2.570801-2.518066z" stroke="#fff" stroke-linecap="round" stroke-linejoin="round" stroke-miterlimit="10" stroke-width="5"/><path d="m157.733887 55.709961c0-4.983398 3.295898-8.62207 8.25293-8.62207 3.902344 0 6.618164 2.478516 6.618164 6.275391 0 .791016-.079102 1.766602-.263672 2.504883h-9.914062c-.026367.14502-.039551.290039-.039551.421875 0 1.344727.922852 2.399414 2.491699 2.399414 1.146973 0 2.030273-.580078 2.280762-1.423828h4.851562c-.751465 3.058594-3.52002 5.102051-7.395996 5.102051-4.166016-.000001-6.881836-2.465333-6.881836-6.657716zm10.098633-2.689453c.026367-.065918.039551-.276855.039551-.421875 0-1.107422-.870117-1.898438-2.122559-1.898438-1.35791 0-2.504883.936035-2.847656 2.320312h4.930664z" stroke="#fff" stroke-linecap="round" stroke-linejoin="round" stroke-miterlimit="10" stroke-width="5"/><path d="m182.226074 47.087891c3.770508 0 6.433594 2.003906 6.539062 4.904297h-4.666992c-.052734-.870117-.817383-1.476562-1.951172-1.476562-1.001953 0-1.634766.395508-1.634766 1.02832 0 .527344.382324.791016 1.766602 1.265625l1.634766.553711c2.794922.949219 3.849609 2.056641 3.849609 4.007812 0 3.04541-2.702637 5.009766-6.881836 5.009766-4.231934 0-6.947754-1.964355-7.066406-5.088867h4.930664c.052734.975586.936035 1.647949 2.267578 1.647949 1.015137 0 1.582031-.355957 1.582031-.962402 0-.500977-.408691-.791016-1.713867-1.239258l-1.318359-.448242c-2.71582-.922852-3.994629-2.293945-3.994629-4.297852-0-2.979493 2.610352-4.904297 6.657715-4.904297z" stroke="#fff" stroke-linecap="round" stroke-linejoin="round" stroke-miterlimit="10" stroke-width="5"/><path d="m35.945312 22.403809c-1.6875 10.054688-7.921875 15.492188-17.507812 15.492188-9.023438 0-15.117188-5.742188-15.117188-14.554688 0-11.90625 7.875-20.4375 19.125-20.4375 8.671875 0 14.671875 5.390625 14.671875 11.296875 0 .234375-.023438.5625-.046875.75h-9.515625c-.1875-2.390625-2.296875-4.21875-5.390625-4.21875-5.109375 0-8.742188 5.203125-8.742188 12.1875 0 4.40625 2.179688 7.148438 6.1875 7.148438 3.046875 0 5.507812-2.039062 6.1875-4.664062h-5.460938l1.40625-6.609375h14.8125z" stroke="#fff" stroke-linecap="round" stroke-linejoin="round" stroke-miterlimit="10" stroke-width="5"/><path d="m37.108887 37.310059 7.195312-33.820312h9.9375l-7.195312 33.820312z" stroke="#fff" stroke-linecap="round" stroke-linejoin="round" stroke-miterlimit="10" stroke-width="5"/><path d="m62.663574 27.349121c.28125 1.851562 2.507812 3.1875 5.296875 3.1875 2.882812 0 4.6875-1.148438 4.6875-2.835938 0-1.242188-.632812-1.96875-3.820312-2.953125l-3.539062-1.078125c-5.648438-1.710938-8.648438-4.757812-8.648438-9.375 0-6.890625 5.953125-11.390625 14.15625-11.390625 8.71875 0 14.039062 3.984375 14.085938 10.6875h-9.070312c-.070312-2.015625-1.96875-3.351562-4.78125-3.351562-2.601562 0-4.289062 1.171875-4.289062 2.765625 0 1.359375.9375 2.296875 3.65625 3.09375l3.703125 1.078125c6.070312 1.757812 8.695312 4.289062 8.695312 9.164062 0 7.125-6.09375 11.554688-15.023438 11.554688-9.117188 0-14.484375-3.867188-14.507812-10.546875z" stroke="#fff" stroke-linecap="round" stroke-linejoin="round" stroke-miterlimit="10" stroke-width="5"/><path d="m110.864258 16.169434c0-2.976562-2.34375-5.273438-5.390625-5.273438-4.96875 0-8.484375 5.0625-8.484375 12.210938 0 4.148438 2.0625 6.703125 5.4375 6.703125 3.28125 0 5.929688-2.085938 6.914062-5.4375h9.632812c-1.171875 8.085938-8.109375 13.523438-17.25 13.523438-9.070312 0-14.976562-5.578125-14.976562-14.179688 0-12.679688 7.710938-20.8125 19.757812-20.8125 8.179688 0 14.085938 5.320312 14.085938 12.703125 0 .585938-.046875 1.125-.117188 1.5h-9.632812c.023438-.140625.023438-.234375.023438-.9375z" stroke="#fff" stroke-linecap="round" stroke-linejoin="round" stroke-miterlimit="10" stroke-width="5"/><path d="m140.782227 30.583496h-10.265625l-3.304688 6.726562h-10.476562l18.609375-33.820312h12.46875l3.46875 33.820312h-10.195312zm-6.820313-7.007812h6.515625l-.515625-11.789062h-.210938z" stroke="#fff" stroke-linecap="round" stroke-linejoin="round" stroke-miterlimit="10" stroke-width="5"/><path d="m174.931152 3.489746c7.828125 0 13.429688 4.757812 13.429688 12.914062 0 12.164062-7.125 20.90625-17.835938 20.90625h-16.851562l7.195312-33.820312h14.0625zm-9.539062 25.945313h3.703125c5.296875 0 9.046875-4.40625 9.046875-11.765625 0-3.773438-2.0625-6.328125-5.578125-6.328125h-3.351562z" stroke="#fff" stroke-linecap="round" stroke-linejoin="round" stroke-miterlimit="10" stroke-width="5"/></g><path d="m3.928223 90.292969h-1.178223l3.87793-16.634277h1.178223z" fill="#010202"/><path d="m8.642578 90.292969h-1.178223l3.87793-16.634277h1.178223z" fill="#010202"/><path d="m17.334961 77.397461h1.243164l2.161621 8.275391h.027832l2.402832-8.275391h1.243164l2.402832 8.275391h.027832l2.161621-8.275391h1.233887l-2.736816 9.648438h-1.298828l-2.402832-8.006348h-.027832l-2.393555 8.006348h-1.298828z" fill="#010202"/><path d="m31.078125 82.249512v-.009277c0-3.024414 1.707031-5.019043 4.286133-5.019043s4.202637 1.929688 4.202637 4.814941v.482422h-7.245605c.037109 2.300781 1.270996 3.608887 3.172852 3.608887 1.419434 0 2.402832-.714355 2.718262-1.762695l.018555-.083496h1.215332l-.018555.092773c-.333984 1.651367-1.874023 2.848145-3.961426 2.848145-2.708986-.000001-4.388185-1.920411-4.388185-4.972657zm1.261719-.705078h5.993164c-.13916-2.105957-1.32666-3.228516-2.978027-3.228516-1.64209 0-2.8667 1.178223-3.015137 3.228516z" fill="#010202"/><path d="m45.374023 82.249512v-.009277c0-3.024414 1.707031-5.019043 4.286133-5.019043s4.202637 1.929688 4.202637 4.814941v.482422h-7.245605c.037109 2.300781 1.270996 3.608887 3.172852 3.608887 1.419434 0 2.402832-.714355 2.718262-1.762695l.018555-.083496h1.215332l-.018555.092773c-.333984 1.651367-1.874023 2.848145-3.961426 2.848145-2.708985-.000001-4.388185-1.920411-4.388185-4.972657zm1.261719-.705078h5.993164c-.13916-2.105957-1.32666-3.228516-2.978027-3.228516-1.64209 0-2.866699 1.178223-3.015137 3.228516z" fill="#010202"/><path d="m55.852539 77.397461h1.224609v1.64209h.037109c.482422-1.039062 1.567871-1.809082 3.126465-1.809082 2.133789 0 3.395508 1.373047 3.395508 3.636719v6.178711h-1.224609v-5.974609c0-1.790527-.890625-2.746094-2.532715-2.746094-1.679199 0-2.801758 1.206055-2.801758 3.005859v5.714844h-1.224609z" fill="#010202"/><path d="m66.007812 88.010742-.018555-.074219h1.233887l.037109.083496c.324707.779297 1.308105 1.354492 2.783203 1.354492 1.846191 0 2.922363-1.039062 2.922363-2.681152v-1.697754h-.027832c-.510254 1.261719-1.734863 2.161621-3.28418 2.161621-2.430664 0-4.091309-1.966797-4.091309-4.972656v-.009277c0-2.987305 1.679199-4.954102 4.109863-4.954102 1.540039 0 2.736816.937012 3.265625 2.217285h.027832v-2.041016h1.233887v9.397949c0 2.226562-1.595703 3.673828-4.146973 3.673828-2.291502.000001-3.701658-1.094725-4.04492-2.458495zm6.958008-5.826172v-.009277c0-2.310059-1.261719-3.859375-3.070801-3.859375-1.864746 0-3.070801 1.530762-3.070801 3.859375v.009277c0 2.356445 1.206055 3.87793 3.070801 3.87793 1.81836 0 3.070801-1.558594 3.070801-3.87793z" fill="#010202"/><path d="m76.477051 74.836914c0-.45459.361816-.807129.816406-.807129.445312 0 .807129.352539.807129.807129s-.361816.816406-.807129.816406c-.45459 0-.816406-.361816-.816406-.816406zm.194824 2.560547h1.233887v9.648438h-1.233887z" fill="#010202"/><path d="m80.387695 77.397461h1.224609v1.64209h.037109c.482422-1.039062 1.567871-1.809082 3.126465-1.809082 2.133789 0 3.395508 1.373047 3.395508 3.636719v6.178711h-1.224609v-5.974609c0-1.790527-.890625-2.746094-2.532715-2.746094-1.679199 0-2.801758 1.206055-2.801758 3.005859v5.714844h-1.224609z" fill="#010202"/><path d="m90.097656 82.249512v-.009277c0-3.024414 1.707031-5.019043 4.286133-5.019043s4.202637 1.929688 4.202637 4.814941v.482422h-7.245606c.037109 2.300781 1.270996 3.608887 3.172852 3.608887 1.419434 0 2.402832-.714355 2.718262-1.762695l.018555-.083496h1.215332l-.018555.092773c-.333984 1.651367-1.874023 2.848145-3.961426 2.848145-2.708985-.000001-4.388184-1.920411-4.388184-4.972657zm1.261719-.705078h5.993164c-.13916-2.105957-1.32666-3.228516-2.978027-3.228516-1.64209 0-2.8667 1.178223-3.015137 3.228516z" fill="#010202"/><path d="m100.126465 82.249512v-.009277c0-3.024414 1.707031-5.019043 4.286133-5.019043s4.202637 1.929688 4.202637 4.814941v.482422h-7.245605c.037109 2.300781 1.270996 3.608887 3.172852 3.608887 1.419434 0 2.402832-.714355 2.718262-1.762695l.018555-.083496h1.215332l-.018555.092773c-.333984 1.651367-1.874023 2.848145-3.961426 2.848145-2.708986-.000001-4.388185-1.920411-4.388185-4.972657zm1.261719-.705078h5.993164c-.13916-2.105957-1.32666-3.228516-2.978027-3.228516-1.642091 0-2.8667 1.178223-3.015137 3.228516z" fill="#010202"/><path d="m110.60498 77.397461h1.224609v1.734863h.037109c.343262-1.178223 1.196777-1.911133 2.365723-1.911133.324707 0 .612305.064941.760742.111328v1.196777c-.157715-.064941-.500977-.129883-.918457-.129883-1.373047 0-2.245117 1.039062-2.245117 2.671875v5.974609h-1.224609z" fill="#010202"/><path d="m120.493652 84.346191-.009277-.083496h1.224609l.018555.083496c.194824 1.113281 1.094727 1.836914 2.55127 1.836914s2.384277-.667969 2.384277-1.679199v-.009277c0-.834961-.463867-1.289551-1.753418-1.595703l-1.456543-.352539c-1.818359-.436035-2.69043-1.233887-2.69043-2.569824v-.009277c0-1.60498 1.419434-2.746094 3.432617-2.746094 2.05957 0 3.376953 1.196777 3.534668 2.857422l.009277.102051h-1.178223l-.009277-.064941c-.157715-1.122559-1.01123-1.855469-2.356445-1.855469-1.308105 0-2.180176.677246-2.180176 1.660645v.009277c0 .77002.519531 1.261719 1.790527 1.567871l1.456543.343262c1.92041.463867 2.65332 1.215332 2.65332 2.569824v.009277c0 1.64209-1.530762 2.801758-3.645996 2.801758-2.189452-.000001-3.590331-1.168946-3.775878-2.875978z" fill="#010202"/><path d="m129.364258 82.22168v-.018555c0-3.061523 1.771973-4.981934 4.397461-4.981934 2.616211 0 4.397461 1.911133 4.397461 4.981934v.018555c0 3.070801-1.771973 5.000488-4.397461 5.000488-2.634766-.009277-4.397461-1.938965-4.397461-5.000488zm7.54248 0v-.018555c0-2.439941-1.261719-3.887207-3.14502-3.887207s-3.135742 1.456543-3.135742 3.887207v.018555c0 2.449219 1.243164 3.896484 3.14502 3.905762 1.883301-.000001 3.135742-1.465821 3.135742-3.905762z" fill="#010202"/><path d="m140.359375 78.427246h-1.345215v-1.029785h1.345215v-1.36377c0-1.744141.844238-2.55127 2.458496-2.55127.343262 0 .686523.037109.899902.074219v1.01123c-.204102-.037109-.445312-.055664-.695801-.055664-.937012 0-1.447266.473145-1.447266 1.540039v1.345215h2.078125v1.029785h-2.068848v8.618652h-1.224609v-8.618651z" fill="#010202"/><path d="m146.340332 84.782227v-6.35498h-1.419434v-1.029785h1.419434v-2.606934h1.261719v2.606934h1.911133v1.029785h-1.911133v6.336426c0 1.066895.45459 1.428711 1.354492 1.428711.222656 0 .41748-.027832.556641-.046387v1.001953c-.194824.037109-.510254.074219-.807129.074219-1.586426-.000001-2.365723-.751466-2.365723-2.439942z" fill="#010202"/><path d="m150.847656 77.397461h1.243164l2.161621 8.275391h.027832l2.402832-8.275391h1.243164l2.402832 8.275391h.027832l2.161621-8.275391h1.233887l-2.736816 9.648438h-1.298828l-2.402832-8.006348h-.027832l-2.393555 8.006348h-1.298828z" fill="#010202"/><path d="m164.631348 84.374023v-.018555c0-1.64209 1.243164-2.634766 3.460449-2.783203l3.005859-.185547v-.834961c0-1.391602-.881348-2.23584-2.384277-2.23584-1.400879 0-2.319336.677246-2.523438 1.771973l-.018555.092773h-1.1875l.009277-.111328c.185547-1.660645 1.558594-2.848145 3.73877-2.848145 2.208008 0 3.590332 1.243164 3.590332 3.219238v6.605469h-1.224609v-1.762695h-.037109c-.528809 1.150391-1.799805 1.938965-3.228516 1.938965-1.901855.000001-3.200683-1.141112-3.200683-2.848144zm3.451172 1.771973c1.688477 0 3.015137-1.1875 3.015137-2.727539v-1.066895l-2.857422.194824c-1.512207.092773-2.356445.751465-2.356445 1.809082v.018555c-.000001 1.057618.890624 1.771973 2.19873 1.771973z" fill="#010202"/><path d="m174.722168 77.397461h1.224609v1.734863h.037109c.343262-1.178223 1.196777-1.911133 2.365723-1.911133.324707 0 .612305.064941.760742.111328v1.196777c-.157715-.064941-.500977-.129883-.918457-.129883-1.373047 0-2.245117 1.039062-2.245117 2.671875v5.974609h-1.224609z" fill="#010202"/><path d="m179.964355 82.249512v-.009277c0-3.024414 1.707031-5.019043 4.286133-5.019043s4.202637 1.929688 4.202637 4.814941v.482422h-7.245605c.037109 2.300781 1.270996 3.608887 3.172852 3.608887 1.419434 0 2.402832-.714355 2.718262-1.762695l.018555-.083496h1.215332l-.018555.092773c-.333984 1.651367-1.874023 2.848145-3.961426 2.848145-2.708985-.000001-4.388185-1.920411-4.388185-4.972657zm1.261719-.705078h5.993164c-.13916-2.105957-1.32666-3.228516-2.978027-3.228516-1.64209 0-2.866699 1.178223-3.015137 3.228516z" fill="#010202"/><path d="m5.021484 62.011719 3.098145-14.594239h-5.286621l.949219-4.429688h16.163086l-.949219 4.429688h-5.286621l-3.098145 14.594238h-5.589844z" fill="#3366a9"/><path d="m17.947754 55.709961c0-4.983398 3.295898-8.62207 8.25293-8.62207 3.902344 0 6.618164 2.478516 6.618164 6.275391 0 .791016-.079102 1.766602-.263672 2.504883h-9.914062c-.026367.14502-.039551.290039-.039551.421875 0 1.344727.922852 2.399414 2.491699 2.399414 1.146973 0 2.030273-.580078 2.280762-1.423828h4.851562c-.751465 3.058594-3.52002 5.102051-7.395996 5.102051-4.166016-.000001-6.881836-2.465333-6.881836-6.657716zm10.098633-2.689453c.026367-.065918.039551-.276855.039551-.421875 0-1.107422-.870117-1.898438-2.122559-1.898438-1.35791 0-2.504883.936035-2.847656 2.320312h4.930664z" fill="#3366a9"/><path d="m49.556641 52.506348c0 .566895 0 .632812-.013184.711914h-4.983398c0-1.212891-.69873-1.977539-1.819336-1.977539-1.647949 0-2.781738 1.898438-2.781738 4.666992 0 1.397461.725098 2.320312 1.83252 2.320312 1.133789 0 1.951172-.751465 2.228027-2.030273h4.983398c-.435059 3.691406-3.427734 6.183105-7.44873 6.183105-4.139648 0-6.802734-2.452148-6.802734-6.249023 0-5.589844 3.150879-9.043945 8.25293-9.043945 3.770506 0 6.552245 2.307129 6.552245 5.418457z" fill="#3366a9"/><path d="m54.320312 42.987793h5.194336l-1.437012 6.670898h.105469c1.081055-1.582031 2.71582-2.491699 4.73291-2.491699 2.663086 0 4.429688 1.621582 4.429688 4.03418 0 .540527-.065918 1.146973-.197754 1.779785l-1.898438 9.030762h-5.181152l1.727051-8.226562c.065918-.342773.092285-.619629.092285-.896484 0-1.001953-.830566-1.740234-1.977539-1.740234-1.252441 0-2.333496.949219-2.623535 2.320312l-1.806152 8.542969h-5.20752z" fill="#3366a9"/><path d="m71.343262 47.457031h5.049316l-.474609 2.20166h.105469c1.02832-1.661133 2.874023-2.570801 4.812012-2.570801 2.636719 0 4.376953 1.634766 4.376953 4.113281 0 .540527-.065918 1.133789-.197754 1.779785l-1.898438 9.030762h-5.181152l1.727051-8.226562c.065918-.355957.092285-.619629.092285-.896484 0-1.015137-.804199-1.740234-1.937988-1.740234-1.226074 0-2.267578.936035-2.557617 2.320312l-1.819336 8.542969h-5.194336z" fill="#3366a9"/><path d="m102.716309 53.692871c0 5.075684-3.612305 8.687988-8.701172 8.687988-4.192383 0-7.040039-2.663086-7.040039-6.60498 0-5.075684 3.612305-8.687988 8.701172-8.687988 4.192382 0 7.040039 2.663086 7.040039 6.60498zm-5.339356.105469c0-1.634766-.777832-2.71582-1.964355-2.71582-1.806152 0-3.137695 1.951172-3.137695 4.587891 0 1.621582.791016 2.71582 1.977539 2.71582 1.766601-.000001 3.124511-2.003907 3.124511-4.587891z" fill="#3366a9"/><path d="m107.73877 42.987793h5.220703l-4.047363 19.023926h-5.220703z" fill="#3366a9"/><path d="m128.674805 53.692871c0 5.075684-3.612305 8.687988-8.701172 8.687988-4.192383 0-7.040039-2.663086-7.040039-6.60498 0-5.075684 3.612305-8.687988 8.701172-8.687988 4.192382 0 7.040039 2.663086 7.040039 6.60498zm-5.339356.105469c0-1.634766-.777832-2.71582-1.964355-2.71582-1.806152 0-3.137695 1.951172-3.137695 4.587891 0 1.621582.791016 2.71582 1.977539 2.71582 1.766601-.000001 3.124511-2.003907 3.124511-4.587891z" fill="#3366a9"/><path d="m129.02832 62.736816h5.049316c.158203.883301 1.054688 1.397461 2.452148 1.397461 1.50293 0 2.38623-.632812 2.649902-1.898438l.540527-2.491699h-.263672c-.84375 1.252441-2.333496 1.937988-4.192383 1.937988-2.887207 0-4.825195-2.109375-4.825195-5.260254 0-5.049316 3.243164-9.175781 7.211426-9.175781 1.977539 0 3.533203 1.015137 4.020996 2.636719h.237305l.553711-2.425781h5.088867l-3.203613 15.068848c-.672363 3.137695-3.665039 4.983398-8.10791 4.983398-4.521972 0-7.185057-1.766601-7.211425-4.772461zm11.891602-8.95166c0-1.476562-.804199-2.438965-2.030273-2.438965-1.727051 0-3.124512 1.990723-3.124512 4.456055 0 1.463379.804199 2.438965 2.030273 2.438965 1.674317 0 3.124512-2.069824 3.124512-4.456055z" fill="#3366a9"/><path d="m151.236328 47.457031h5.233887l-3.098145 14.554688h-5.233887zm.883301-3.915527c0-1.371094 1.133789-2.518066 2.570801-2.518066s2.570801 1.146973 2.570801 2.518066-1.133789 2.518066-2.570801 2.518066-2.570801-1.146972-2.570801-2.518066z" fill="#3366a9"/><path d="m157.733887 55.709961c0-4.983398 3.295898-8.62207 8.25293-8.62207 3.902344 0 6.618164 2.478516 6.618164 6.275391 0 .791016-.079102 1.766602-.263672 2.504883h-9.914062c-.026367.14502-.039551.290039-.039551.421875 0 1.344727.922852 2.399414 2.491699 2.399414 1.146973 0 2.030273-.580078 2.280762-1.423828h4.851562c-.751465 3.058594-3.52002 5.102051-7.395996 5.102051-4.166016-.000001-6.881836-2.465333-6.881836-6.657716zm10.098633-2.689453c.026367-.065918.039551-.276855.039551-.421875 0-1.107422-.870117-1.898438-2.122559-1.898438-1.35791 0-2.504883.936035-2.847656 2.320312h4.930664z" fill="#3366a9"/><path d="m182.226074 47.087891c3.770508 0 6.433594 2.003906 6.539062 4.904297h-4.666992c-.052734-.870117-.817383-1.476562-1.951172-1.476562-1.001953 0-1.634766.395508-1.634766 1.02832 0 .527344.382324.791016 1.766602 1.265625l1.634766.553711c2.794922.949219 3.849609 2.056641 3.849609 4.007812 0 3.04541-2.702637 5.009766-6.881836 5.009766-4.231934 0-6.947754-1.964355-7.066406-5.088867h4.930664c.052734.975586.936035 1.647949 2.267578 1.647949 1.015137 0 1.582031-.355957 1.582031-.962402 0-.500977-.408691-.791016-1.713867-1.239258l-1.318359-.448242c-2.71582-.922852-3.994629-2.293945-3.994629-4.297852-0-2.979493 2.610352-4.904297 6.657715-4.904297z" fill="#3366a9"/><path d="m35.945312 22.403809c-1.6875 10.054688-7.921875 15.492188-17.507812 15.492188-9.023438 0-15.117188-5.742188-15.117188-14.554688 0-11.90625 7.875-20.4375 19.125-20.4375 8.671875 0 14.671875 5.390625 14.671875 11.296875 0 .234375-.023438.5625-.046875.75h-9.515625c-.1875-2.390625-2.296875-4.21875-5.390625-4.21875-5.109375 0-8.742188 5.203125-8.742188 12.1875 0 4.40625 2.179688 7.148438 6.1875 7.148438 3.046875 0 5.507812-2.039062 6.1875-4.664062h-5.460938l1.40625-6.609375h14.8125z" fill="#3366a9" stroke="#3366a9" stroke-miterlimit="10" stroke-width="1.5"/><path d="m37.108887 37.310059 7.195312-33.820312h9.9375l-7.195312 33.820312z" fill="#3366a9" stroke="#3366a9" stroke-miterlimit="10" stroke-width="1.5"/><path d="m62.663574 27.349121c.28125 1.851562 2.507812 3.1875 5.296875 3.1875 2.882812 0 4.6875-1.148438 4.6875-2.835938 0-1.242188-.632812-1.96875-3.820312-2.953125l-3.539062-1.078125c-5.648438-1.710938-8.648438-4.757812-8.648438-9.375 0-6.890625 5.953125-11.390625 14.15625-11.390625 8.71875 0 14.039062 3.984375 14.085938 10.6875h-9.070312c-.070312-2.015625-1.96875-3.351562-4.78125-3.351562-2.601562 0-4.289062 1.171875-4.289062 2.765625 0 1.359375.9375 2.296875 3.65625 3.09375l3.703125 1.078125c6.070312 1.757812 8.695312 4.289062 8.695312 9.164062 0 7.125-6.09375 11.554688-15.023438 11.554688-9.117188 0-14.484375-3.867188-14.507812-10.546875z" fill="#3366a9" stroke="#3366a9" stroke-miterlimit="10" stroke-width="1.5"/><path d="m110.864258 16.169434c0-2.976562-2.34375-5.273438-5.390625-5.273438-4.96875 0-8.484375 5.0625-8.484375 12.210938 0 4.148438 2.0625 6.703125 5.4375 6.703125 3.28125 0 5.929688-2.085938 6.914062-5.4375h9.632812c-1.171875 8.085938-8.109375 13.523438-17.25 13.523438-9.070312 0-14.976562-5.578125-14.976562-14.179688 0-12.679688 7.710938-20.8125 19.757812-20.8125 8.179688 0 14.085938 5.320312 14.085938 12.703125 0 .585938-.046875 1.125-.117188 1.5h-9.632812c.023438-.140625.023438-.234375.023438-.9375z" fill="#fff" stroke="#3366a9" stroke-miterlimit="10" stroke-width="1.5"/><path d="m140.782227 30.583496h-10.265625l-3.304688 6.726562h-10.476562l18.609375-33.820312h12.46875l3.46875 33.820312h-10.195312zm-6.820313-7.007812h6.515625l-.515625-11.789062h-.210938z" fill="#fff" stroke="#3366a9" stroke-miterlimit="10" stroke-width="1.5"/><path d="m174.931152 3.489746c7.828125 0 13.429688 4.757812 13.429688 12.914062 0 12.164062-7.125 20.90625-17.835938 20.90625h-16.851562l7.195312-33.820312h14.0625zm-9.539062 25.945313h3.703125c5.296875 0 9.046875-4.40625 9.046875-11.765625 0-3.773438-2.0625-6.328125-5.578125-6.328125h-3.351562z" fill="#fff" stroke="#3366a9" stroke-miterlimit="10" stroke-width="1.5"/></svg>