<?xml version="1.0" encoding="UTF-8" standalone="no"?>
<!-- Created with Inkscape (http://www.inkscape.org/) -->

<svg
   xmlns:dc="http://purl.org/dc/elements/1.1/"
   xmlns:cc="http://creativecommons.org/ns#"
   xmlns:rdf="http://www.w3.org/1999/02/22-rdf-syntax-ns#"
   xmlns:svg="http://www.w3.org/2000/svg"
   xmlns="http://www.w3.org/2000/svg"
   xmlns:sodipodi="http://sodipodi.sourceforge.net/DTD/sodipodi-0.dtd"
   xmlns:inkscape="http://www.inkscape.org/namespaces/inkscape"
   width="400"
   height="400"
   id="svg3022"
   version="1.1"
   inkscape:version="0.48.4 r9939"
   sodipodi:docname="Neues Dokument 2">
  <defs
     id="defs3024" />
  <sodipodi:namedview
     id="base"
     pagecolor="#ffffff"
     bordercolor="#666666"
     borderopacity="1.0"
     inkscape:pageopacity="0.0"
     inkscape:pageshadow="2"
     inkscape:zoom="0.35"
     inkscape:cx="350"
     inkscape:cy="634.28571"
     inkscape:document-units="px"
     inkscape:current-layer="layer1"
     showgrid="false"
     inkscape:window-width="1280"
     inkscape:window-height="1000"
     inkscape:window-x="1280"
     inkscape:window-y="24"
     inkscape:window-maximized="1" />
  <metadata
     id="metadata3027">
    <rdf:RDF>
      <cc:Work
         rdf:about="">
        <dc:format>image/svg+xml</dc:format>
        <dc:type
           rdf:resource="http://purl.org/dc/dcmitype/StillImage" />
        <dc:title></dc:title>
      </cc:Work>
    </rdf:RDF>
  </metadata>
  <g
     inkscape:label="Ebene 1"
     inkscape:groupmode="layer"
     id="layer1"
     transform="translate(0,-652.36218)">
    <g
       id="g57"
       transform="matrix(10.648384,0,0,10.648384,-3410.8564,-3241.3611)">
      <path
         d="m 349.534,384.446 h 2.318 c 2.597,0 4.638,2.04 4.638,4.637 v 2.318 c 0,2.505 -2.041,4.638 -4.638,4.638 h -2.318 c -2.504,0 -4.638,-2.133 -4.638,-4.638 v -2.318 c 0,-2.597 -2.041,-4.637 -4.638,-4.637 h -2.319 c -2.503,0 -4.636,2.04 -4.636,4.637 v 2.318 c 0,2.505 -2.041,4.638 -4.638,4.638 h -2.319 c -2.505,0 -4.638,-2.133 -4.638,-4.638 v -2.318 c 0,-2.597 2.133,-4.637 4.638,-4.637 h 2.319 c 2.597,0 4.638,-2.134 4.638,-4.638 v -2.319 c 0,-2.597 2.133,-4.637 4.636,-4.637 h 2.319 c 2.597,0 4.638,2.04 4.638,4.637 v 2.319 c 0,2.504 2.134,4.638 4.638,4.638 z"
         id="path59"
         inkscape:connector-curvature="0"
         style="fill:#1586c4" />
    </g>
  </g>
</svg>
