<?xml version="1.0" encoding="UTF-8" standalone="no"?><!DOCTYPE svg PUBLIC "-//W3C//DTD SVG 1.1//EN" "http://www.w3.org/Graphics/SVG/1.1/DTD/svg11.dtd"><svg width="100%" height="100%" viewBox="0 0 229 58" version="1.1" xmlns="http://www.w3.org/2000/svg" xmlns:xlink="http://www.w3.org/1999/xlink" xml:space="preserve" xmlns:serif="http://www.serif.com/" style="fill-rule:evenodd;clip-rule:evenodd;stroke-linejoin:round;stroke-miterlimit:2;"><rect id="gbd-consult-logo" x="0" y="0" width="229" height="58" style="fill:none;"/><clipPath id="_clip1"><rect x="0" y="0" width="229" height="58"/></clipPath><g clip-path="url(#_clip1)"><g id="Ebene-1" serif:id="Ebene 1"><path d="M20.23,1.353l0.02,0.01c0.612,2.059 1.632,3.974 3,5.63c3.127,-2.621 6.562,-4.851 10.231,-6.64c-1.495,-0.235 -3.003,-0.353 -4.508,-0.353c-2.958,0 -5.907,0.454 -8.743,1.353Zm4.92,7.73c2.482,2.384 5.349,4.332 8.48,5.76l5.63,-13l-1.24,-0.45c-4.676,1.854 -9.022,4.45 -12.87,7.69Zm-18.25,1.09l0.02,0c1.368,3.559 3.336,6.857 5.82,9.75c2.178,-4.128 5.02,-7.872 8.41,-11.08c-1.589,-1.928 -2.797,-4.141 -3.56,-6.52c-4.121,1.756 -7.782,4.443 -10.69,7.85Zm29.25,5.78c10.49,4.12 17.22,1.63 19.11,0.72c-2.795,-5.972 -7.554,-10.809 -13.479,-13.7l-5.631,12.98Zm-21.449,6.16l0.039,0c3.46,3.517 7.526,6.381 12,8.46l5.72,-13.191c-3.499,-1.591 -6.697,-3.777 -9.451,-6.459c-3.405,3.212 -6.219,7.001 -8.308,11.19Zm-12.491,-4.269c-0.719,1.736 -1.271,3.538 -1.65,5.379c1.859,4.311 4.447,8.269 7.65,11.699c0.409,-4.222 1.487,-8.353 3.19,-12.239c-2.663,-2.947 -4.841,-6.298 -6.45,-9.93c-1.078,1.603 -1.995,3.308 -2.74,5.091Zm46.099,3.18l-0.01,0.009c0.007,4.683 -0.76,9.336 -2.268,13.77c4.066,-0.087 8.079,-0.952 11.818,-2.55c0.485,-4.394 -0.041,-8.841 -1.54,-13.001c-2.527,1.101 -5.244,1.703 -8,1.772Zm-37.509,16.479l0.021,0c2.986,2.73 6.355,5.011 10,6.77l4.839,-11.16c-4.483,-2.052 -8.595,-4.833 -12.17,-8.23c-1.632,4.017 -2.541,8.288 -2.69,12.62Zm-10.8,-9.12l0,0.76c0.041,10.976 6.31,21.027 16.15,25.89l3.56,-8.21c-8.303,-3.981 -15.187,-10.419 -19.71,-18.44Zm23.37,17.01c3.577,1.465 7.345,2.415 11.19,2.82c3.096,-3.099 5.61,-6.731 7.42,-10.72c-4.732,-0.363 -9.378,-1.464 -13.77,-3.26l-4.84,11.16Zm21.62,-7.79c-1.661,3.94 -3.939,7.588 -6.75,10.81c4.994,0.102 9.954,-0.845 14.559,-2.781c2.163,-3.045 3.688,-6.499 4.482,-10.149c-3.944,1.414 -8.102,2.131 -12.291,2.12Zm-26.27,18.52c0.66,0.26 1.33,0.51 2,0.71c4.051,-1.353 7.817,-3.442 11.11,-6.161c-3.278,-0.544 -6.485,-1.458 -9.56,-2.72l-3.55,8.171Zm19.93,-4.87c-0.999,0 -1.999,0 -3.06,-0.13c-2.923,2.736 -6.253,5.002 -9.871,6.721c1.069,0.12 2.138,0.181 3.202,0.184l0.15,0c7.48,-0.02 14.724,-2.927 20.16,-8.185c-3.449,0.941 -7.008,1.414 -10.581,1.41Z" style="fill:url(#_Linear2);fill-rule:nonzero;"/><path d="M29.31,31.713c4.41,1.784 9.089,2.812 13.841,3.04c1.622,-4.423 2.448,-9.099 2.439,-13.81c-3.621,-0.264 -7.177,-1.097 -10.54,-2.469l-5.74,13.239Z" style="fill:#8eb724;"/></g><g id="GBD"><path d="M191.15,9.378l7,0c6.69,0 11,0.53 13.46,1.68c5.73,2.5 8.51,8.23 8.51,17.53c0,8.75 -2.59,14.72 -7.72,17.73c-2.86,1.71 -7.68,2.58 -14.33,2.58l-6.92,0l0,-39.52Zm22.71,-6.66c-3.84,-1 -8.82,-1.53 -15.66,-1.53l-15.9,0l0,55.82l14.13,0c8.56,0 12.12,-0.4 16.56,-1.85c10.65,-3.45 16,-12.45 16,-26.73c0,-14.28 -5.26,-23.12 -15.2,-25.71" style="fill:#006fb8;fill-rule:nonzero;"/><path d="M164.81,16.188c0,3.3 -1.42,5.93 -3.88,7.19c-1.6,0.8 -4.4,1 -8.7,1l-8.62,0l0,-15.71l7.76,0c4.27,0 6.46,0.18 8.08,0.68c2.45,0.76 5.36,2.56 5.36,6.84m-3.27,32c-1.94,0.74 -5.37,1.14 -9.94,1.14l-8,0l0,-17.36l8.94,0c4.61,0 7.11,0.31 9.22,1.14c3.067,0.981 5.081,3.958 4.85,7.17c0,3.88 -1.71,6.53 -5.08,7.88m4.52,-20.52c5,-2.29 7.41,-6.39 7.41,-12.48c0,-8 -4.86,-12.87 -13.66,-13.64c-2.77,-0.3 -7.1,-0.32 -8.37,-0.32l-16.56,0l0,55.81l16.34,0c6.31,0 11.06,-0.55 14.12,-1.62c6.24,-2.08 10.11,-7.78 10.11,-14.88c0,-6.65 -3.23,-11.06 -9.38,-12.87" style="fill:#006fb8;fill-rule:nonzero;"/><path d="M103.69,27.068l0,7.71l13.59,0l0,13.5c-3.782,1.069 -7.701,1.571 -11.63,1.49c-11.33,0 -17.07,-7.15 -17.07,-21.26c0,-14.11 5.82,-20.32 18.89,-20.32c4.924,-0.009 9.838,0.436 14.68,1.33l0.68,0.14l1.56,-7.59l-0.63,-0.17c-5.432,-1.344 -11.015,-1.98 -16.61,-1.89c-18.23,0 -27.86,10 -27.86,29.05c0,19.28 8.68,29.01 25.86,29.01c7.071,0.026 14.074,-1.39 20.58,-4.16l0.41,-0.19l0,-26.65l-22.45,0Z" style="fill:#006fb8;fill-rule:nonzero;"/></g></g><defs><linearGradient id="_Linear2" x1="0" y1="0" x2="1" y2="0" gradientUnits="userSpaceOnUse" gradientTransform="matrix(58.0245,0,0,58.0245,0,29.0141)"><stop offset="0" style="stop-color:#0080c6;stop-opacity:1"/><stop offset="0" style="stop-color:#0080c6;stop-opacity:1"/><stop offset="0.01" style="stop-color:#0080c6;stop-opacity:1"/><stop offset="0.14" style="stop-color:#007ac1;stop-opacity:1"/><stop offset="0.46" style="stop-color:#0072ba;stop-opacity:1"/><stop offset="1" style="stop-color:#006fb8;stop-opacity:1"/></linearGradient></defs></svg>