<svg width="1428" height="350" viewBox="0 0 1428 350" fill="none" xmlns="http://www.w3.org/2000/svg">
<path d="M1385.05 60.6982L1357.01 134.513C1355.3 139.083 1352.01 142.893 1347.74 145.262C1343.48 147.631 1338.51 148.404 1333.72 147.443L1312.25 143.101C1308.44 142.346 1304.93 140.53 1302.12 137.864C1299.3 135.198 1297.3 131.79 1296.34 128.034L1284.41 83.6961L1249.72 83.6961C1242 80.6169 1235.39 75.2616 1230.79 68.3413L1213.19 41.2344" stroke="#02EB76" stroke-width="29.1911" stroke-linecap="round" stroke-linejoin="round"/>
<path d="M1375.79 226.035L1357.78 212.653C1352.48 208.714 1346.97 208.824 1334.46 206.827C1317.78 204.166 1301.09 215.168 1301.09 215.168" stroke="#02EB76" stroke-width="29.1911" stroke-linecap="round" stroke-linejoin="round"/>
<path d="M1167.65 117.76C1171.41 95.4543 1181.24 74.6149 1196.06 57.523C1210.88 40.4312 1230.11 27.7462 1251.66 20.8567C1273.2 13.9672 1296.23 13.1389 1318.21 18.4625C1340.2 23.7863 1360.3 35.0565 1376.3 51.0395C1392.31 67.0224 1403.61 87.1017 1408.97 109.079C1414.33 131.056 1413.54 154.084 1406.68 175.641C1399.82 197.198 1387.17 216.451 1370.1 231.296C1353.03 246.14 1332.21 256.002 1309.91 259.801" stroke="#02EB76" stroke-width="29.1911" stroke-linecap="round" stroke-linejoin="round"/>
<path d="M95.9146 349.416C81.9125 349.509 68.9574 346.191 57.0495 339.463C45.3348 332.539 35.9383 323.266 28.8602 311.643C21.9752 299.825 18.4865 286.915 18.394 272.913L17.9836 210.778C17.8911 196.776 21.2097 183.918 27.9392 172.205C34.862 160.296 44.1351 150.899 55.7586 144.016C67.5754 136.936 80.4848 133.35 94.487 133.258C106.739 133.177 118.13 135.338 128.662 139.742C139.192 143.951 148.179 150.212 155.624 158.526C156.8 159.879 157.395 161.528 157.407 163.473C157.42 165.418 156.655 167.368 155.112 169.323L142.366 182.826C140.82 184.392 139.269 185.181 137.714 185.191C135.769 185.204 134.013 184.34 132.445 182.6C122.654 172.357 110.173 167.286 95.0041 167.386C87.6141 167.435 80.7231 169.425 74.3311 173.357C67.9391 177.289 62.8202 182.574 58.9744 189.212C55.323 195.848 53.5224 202.959 53.5725 210.543L53.9829 272.678C54.033 280.262 55.9274 287.349 59.6661 293.936C63.5992 300.523 68.7875 305.74 75.2308 309.587C81.6742 313.434 88.5909 315.333 95.9809 315.284C103.371 315.235 110.263 313.342 116.656 309.605C123.049 305.867 128.072 300.778 131.725 294.336C135.377 287.894 137.179 280.88 137.129 273.296L137.034 259.002L97.9447 259.26C96.1945 259.272 94.732 258.698 93.5575 257.539C92.3829 256.379 91.7899 254.925 91.7783 253.175L91.6396 232.171C91.628 230.421 92.2018 228.959 93.361 227.784C94.5201 226.609 95.9748 226.016 97.7251 226.005L159.276 225.598C162.777 225.575 165.702 226.82 168.053 229.333C170.596 231.65 171.88 234.559 171.903 238.059L172.126 271.898C172.219 285.9 168.804 298.856 161.881 310.765C155.151 322.478 145.878 331.875 134.062 338.954C122.438 345.838 109.722 349.325 95.9146 349.416ZM277.175 348.219C264.534 348.303 252.846 345.365 242.11 339.407C231.567 333.254 223.149 324.946 216.857 314.486C210.564 304.025 207.378 292.669 207.297 280.417L207.044 242.203C206.963 229.951 210 218.554 216.154 208.011C222.308 197.468 230.615 189.148 241.077 183.05C251.732 176.756 263.38 173.567 276.021 173.484C288.662 173.4 300.254 176.435 310.796 182.589C321.532 188.547 330.047 196.757 336.339 207.217C342.632 217.678 345.818 229.034 345.899 241.286L346.152 279.5C346.233 291.752 343.196 303.149 337.042 313.692C330.889 324.235 322.484 332.653 311.829 338.947C301.367 345.045 289.816 348.136 277.175 348.219ZM276.952 314.381C286.481 314.318 294.53 310.958 301.098 304.303C307.86 297.451 311.209 289.261 311.146 279.731L310.894 241.517C310.831 231.988 307.374 223.939 300.524 217.372C293.867 210.609 285.774 207.259 276.244 207.322C266.715 207.385 258.57 210.842 251.808 217.694C245.24 224.35 241.987 232.442 242.05 241.972L242.302 280.186C242.365 289.715 245.725 297.861 252.382 304.624C259.233 311.191 267.422 314.444 276.952 314.381ZM993.272 343.49C979.269 343.582 966.314 340.264 954.406 333.536C942.692 326.612 933.295 317.339 926.217 305.717C919.332 293.899 915.843 280.989 915.751 266.986L915.341 204.852C915.248 190.849 918.567 177.992 925.296 166.278C932.219 154.369 941.492 144.973 953.116 138.089C964.932 131.009 977.842 127.423 991.844 127.331C1004.1 127.25 1015.49 129.411 1026.02 133.815C1036.55 138.024 1045.54 144.285 1052.98 152.599C1054.16 153.953 1054.75 155.602 1054.76 157.547C1054.78 159.491 1054.01 161.441 1052.47 163.396L1039.72 176.9C1038.18 178.466 1036.63 179.254 1035.07 179.264C1033.13 179.277 1031.37 178.414 1029.8 176.674C1020.01 166.431 1007.53 161.359 992.361 161.459C984.971 161.508 978.08 163.499 971.688 167.43C965.296 171.362 960.177 176.647 956.331 183.285C952.68 189.922 950.879 197.032 950.929 204.617L951.34 266.751C951.39 274.336 953.284 281.422 957.023 288.01C960.956 294.596 966.144 299.813 972.588 303.66C979.031 307.507 985.948 309.406 993.338 309.358C1000.73 309.309 1007.62 307.416 1014.01 303.678C1020.41 299.941 1025.43 294.851 1029.08 288.409C1032.73 281.967 1034.54 274.954 1034.49 267.369L1034.39 253.075L995.302 253.333C993.551 253.345 992.089 252.771 990.914 251.612C989.74 250.453 989.147 248.998 989.135 247.248L988.997 226.245C988.985 224.494 989.559 223.032 990.718 221.857C991.877 220.683 993.332 220.09 995.082 220.078L1056.63 219.672C1060.13 219.649 1063.06 220.893 1065.41 223.406C1067.95 225.723 1069.24 228.632 1069.26 232.132L1069.48 265.971C1069.58 279.973 1066.16 292.929 1059.24 304.838C1052.51 316.552 1043.24 325.948 1031.42 333.027C1019.79 339.911 1007.08 343.399 993.272 343.49ZM1174.53 342.293C1161.89 342.376 1150.2 339.439 1139.47 333.481C1128.92 327.327 1120.51 319.02 1114.21 308.559C1107.92 298.099 1104.73 286.742 1104.65 274.491L1104.4 236.276C1104.32 224.024 1107.36 212.627 1113.51 202.084C1119.66 191.541 1127.97 183.221 1138.43 177.123C1149.09 170.829 1160.74 167.641 1173.38 167.557C1186.02 167.474 1197.61 170.509 1208.15 176.663C1218.89 182.621 1227.4 190.83 1233.7 201.29C1239.99 211.751 1243.18 223.107 1243.26 235.359L1243.51 273.573C1243.59 285.825 1240.55 297.223 1234.4 307.765C1228.25 318.308 1219.84 326.726 1209.19 333.02C1198.72 339.118 1187.17 342.209 1174.53 342.293ZM1174.31 308.454C1183.84 308.391 1191.89 305.032 1198.46 298.376C1205.22 291.524 1208.57 283.334 1208.5 273.805L1208.25 235.59C1208.19 226.061 1204.73 218.013 1197.88 211.446C1191.22 204.683 1183.13 201.333 1173.6 201.396C1164.07 201.459 1155.93 204.916 1149.17 211.767C1142.6 218.423 1139.34 226.516 1139.41 236.045L1139.66 274.259C1139.72 283.789 1143.08 291.935 1149.74 298.698C1156.59 305.265 1164.78 308.517 1174.31 308.454Z" fill="#0B152C"/>
<path d="M458.561 347.021C444.559 347.114 431.604 343.796 419.696 337.068C407.981 330.144 398.584 320.87 391.506 309.248C384.621 297.43 381.133 284.52 381.04 270.518L380.63 208.383C380.537 194.381 383.856 181.523 390.585 169.81C397.508 157.901 406.781 148.504 418.405 141.62C430.222 134.541 443.131 130.955 457.133 130.863C469.385 130.782 480.777 132.943 491.308 137.347C501.838 141.556 510.825 147.817 518.271 156.131C519.446 157.484 520.041 159.133 520.054 161.078C520.066 163.023 519.301 164.973 517.758 166.928L505.012 180.431C503.466 181.997 501.916 182.786 500.36 182.796C498.415 182.809 496.659 181.945 495.092 180.205C485.3 169.962 472.819 164.891 457.65 164.991C450.26 165.04 443.369 167.03 436.977 170.962C430.585 174.894 425.466 180.179 421.621 186.817C417.969 193.453 416.169 200.564 416.219 208.148L416.629 270.283C416.679 277.867 418.574 284.954 422.312 291.541C426.245 298.128 431.434 303.344 437.877 307.192C444.32 311.039 451.237 312.938 458.627 312.889C466.017 312.84 472.909 310.947 479.302 307.21C485.695 303.472 490.718 298.383 494.371 291.941C498.024 285.498 499.825 278.485 499.775 270.901L499.68 256.607L460.591 256.865C458.841 256.876 457.378 256.303 456.204 255.144C455.029 253.984 454.436 252.53 454.424 250.779L454.286 229.776C454.274 228.026 454.848 226.563 456.007 225.389C457.166 224.214 458.621 223.621 460.371 223.61L521.923 223.203C525.423 223.18 528.349 224.425 530.699 226.938C533.243 229.255 534.526 232.163 534.549 235.664L534.772 269.503C534.865 283.505 531.45 296.46 524.527 308.37C517.798 320.083 508.524 329.48 496.708 336.559C485.084 343.443 472.369 346.93 458.561 347.021ZM639.796 342.032C627.155 342.115 615.466 339.081 604.729 332.928C594.186 326.774 585.768 318.37 579.474 307.715C573.18 297.06 569.992 285.412 569.908 272.771L569.7 241.266C569.617 228.625 572.651 216.936 578.804 206.199C584.956 195.462 593.263 186.947 603.723 180.655C614.378 174.361 626.026 171.172 638.667 171.089C651.308 171.005 662.9 174.04 673.443 180.194C684.18 186.347 692.695 194.75 698.989 205.405C705.283 216.06 708.472 227.708 708.555 240.349L708.684 259.894C708.707 263.394 707.463 266.417 704.952 268.962C702.633 271.311 699.724 272.497 696.223 272.52L604.918 273.123L604.927 274.582C604.99 284.111 608.35 292.257 615.007 299.02C621.857 305.588 630.047 308.84 639.577 308.777L685.959 308.47C687.709 308.459 689.171 309.033 690.346 310.192C691.521 311.351 692.114 312.806 692.125 314.556L692.264 335.559C692.275 337.309 691.702 338.772 690.543 339.946C689.383 341.121 687.929 341.714 686.178 341.726L639.796 342.032ZM673.554 241.164L673.536 238.538C673.473 229.009 670.017 220.961 663.166 214.394C656.509 207.631 648.416 204.281 638.887 204.344C629.358 204.407 621.212 207.864 614.45 214.716C607.882 221.371 604.629 229.464 604.692 238.993L604.709 241.619L673.554 241.164ZM811.886 344.688C799.245 344.771 787.557 341.834 776.821 335.876C766.278 329.722 757.86 321.415 751.568 310.954C745.275 300.494 742.088 289.138 742.008 276.886L741.755 238.671C741.674 226.419 744.711 215.022 750.865 204.479C757.018 193.937 765.326 185.616 775.788 179.518C786.443 173.224 798.091 170.036 810.732 169.952C823.373 169.869 834.964 172.904 845.507 179.058C856.243 185.016 864.757 193.225 871.05 203.686C877.343 214.146 880.529 225.502 880.61 237.754L880.863 275.969C880.943 288.22 877.907 299.618 871.753 310.161C865.599 320.703 857.195 329.122 846.54 335.415C836.078 341.513 824.527 344.604 811.886 344.688ZM811.662 310.849C821.192 310.786 829.241 307.427 835.809 300.771C842.571 293.919 845.92 285.729 845.857 276.2L845.605 237.985C845.542 228.456 842.085 220.408 835.235 213.841C828.578 207.078 820.485 203.728 810.955 203.791C801.426 203.854 793.281 207.311 786.519 214.163C779.95 220.818 776.698 228.911 776.761 238.44L777.013 276.654C777.076 286.184 780.436 294.33 787.093 301.093C793.943 307.66 802.133 310.912 811.662 310.849Z" fill="#02EB76"/>
</svg>
