<?xml version="1.0" encoding="UTF-8" standalone="no"?>
<svg
   xmlns:dc="http://purl.org/dc/elements/1.1/"
   xmlns:cc="http://creativecommons.org/ns#"
   xmlns:rdf="http://www.w3.org/1999/02/22-rdf-syntax-ns#"
   xmlns:svg="http://www.w3.org/2000/svg"
   xmlns="http://www.w3.org/2000/svg"
   xmlns:sodipodi="http://sodipodi.sourceforge.net/DTD/sodipodi-0.dtd"
   xmlns:inkscape="http://www.inkscape.org/namespaces/inkscape"
   viewBox="0 0 80.720703 80.71875"
   width="80.720703"
   height="80.71875"
   version="1.1"
   id="bigplay"
   sodipodi:docname="media-ccc-de-cat.svg"
   inkscape:version="0.92.4 5da689c313, 2019-01-14">
  <metadata
     id="metadata24">
    <rdf:RDF>
      <cc:Work
         rdf:about="">
        <dc:format>image/svg+xml</dc:format>
        <dc:type
           rdf:resource="http://purl.org/dc/dcmitype/StillImage" />
        <dc:title></dc:title>
      </cc:Work>
    </rdf:RDF>
  </metadata>
  <sodipodi:namedview
     pagecolor="#ffffff"
     bordercolor="#666666"
     borderopacity="1"
     objecttolerance="10"
     gridtolerance="10"
     guidetolerance="10"
     inkscape:pageopacity="0"
     inkscape:pageshadow="2"
     inkscape:window-width="1366"
     inkscape:window-height="713"
     id="namedview22"
     showgrid="false"
     inkscape:zoom="2.36"
     inkscape:cx="50.441053"
     inkscape:cy="79.879185"
     inkscape:window-x="0"
     inkscape:window-y="31"
     inkscape:window-maximized="1"
     inkscape:current-layer="bigplay"
     inkscape:snap-global="false"
     showguides="true"
     inkscape:guide-bbox="true"
     fit-margin-top="0"
     fit-margin-left="0"
     fit-margin-right="0"
     fit-margin-bottom="0" />
  <defs
     id="defs8">
    <filter
       id="a"
       x="-0.113"
       width="1.226"
       y="-0.113"
       height="1.226"
       style="color-interpolation-filters:sRGB">
      <feGaussianBlur
         stdDeviation="3.292"
         id="feGaussianBlur2" />
    </filter>
    <filter
       id="b"
       x="-0.134"
       width="1.2690001"
       y="-0.134"
       height="1.2690001"
       style="color-interpolation-filters:sRGB">
      <feGaussianBlur
         stdDeviation="3.923"
         id="feGaussianBlur5" />
    </filter>
  </defs>
  <g
     id="light "
     style="opacity:0.7"
     transform="translate(-9.8515625,-110.06445)">
    <circle
       style="opacity:1;fill:#000000;fill-opacity:1;fill-rule:nonzero;stroke:none;stroke-width:12.7852354;stroke-linecap:butt;stroke-linejoin:round;stroke-miterlimit:4;stroke-dasharray:none;stroke-dashoffset:0;stroke-opacity:1"
       id="path4519-7"
       cx="50.211864"
       cy="150.42372"
       r="37.006691" />
    <path
       style="opacity:1;fill:#ffffff;fill-opacity:1;fill-rule:nonzero;stroke:none;stroke-width:12.7852354;stroke-linecap:butt;stroke-linejoin:round;stroke-miterlimit:4;stroke-dasharray:none;stroke-dashoffset:0;stroke-opacity:1"
       d="M 50.210938,110.06445 A 40.360172,40.360172 0 0 0 9.8515625,150.42383 40.360172,40.360172 0 0 0 50.210938,190.7832 40.360172,40.360172 0 0 0 90.572266,150.42383 40.360172,40.360172 0 0 0 50.210938,110.06445 Z m 0.214843,5.40625 h 0.002 a 35.026,35.026 0 0 1 35.023438,35.02539 35.026,35.026 0 0 1 -17.296875,30.15821 35.026,35.026 0 0 1 -2.009766,1.05273 35.002,35.002 0 0 1 -1.998047,0.97266 35.026,35.026 0 0 0 1.998047,-0.97266 35.002,35.002 0 0 0 2.009766,-1.05273 47.526,47.526 0 0 0 0.363281,-5.74024 c 0,-4.662 -0.678516,-9.25906 -1.978516,-13.41406 a 19.043,19.043 0 0 0 4.285157,-1.75391 c 2.007,-1.132 3.868015,-2.70636 4.791015,-4.81836 0.718,-1.645 0.819235,-3.49015 0.865235,-5.28515 0.058,-2.056 0.06317,-4.11397 -0.04883,-6.16797 -0.032,-0.587 -0.07531,-1.17495 -0.195313,-1.75195 -0.118,-0.577 -0.314672,-1.14282 -0.638672,-1.63282 -0.574,-0.862 -1.534547,-1.45156 -2.560547,-1.60156 -0.478,-0.07 -0.96464,-0.0439 -1.43164,0.0801 -0.466,0.124 -0.89786,0.35855 -1.25586,0.68555 -0.53,0.495 -0.849765,1.18848 -1.009765,1.89648 -0.24,1.047 -0.166219,2.13508 -0.07422,3.20508 0.136,1.648 0.319719,3.30812 0.136719,4.95312 -0.07,0.646 -0.199532,1.29247 -0.519532,1.85547 -0.263999,0.454 -0.632218,0.84086 -1.074218,1.13086 -0.44,0.286 -0.928406,0.49238 -1.441406,0.60938 a 5.28,5.28 0 0 1 -2.830079,-0.11524 c -0.81,-0.272 -1.760781,-0.9082 -2.425781,-1.6582 0.088,-0.133 0.19525,-0.25853 0.28125,-0.39453 a 13.11,13.11 0 0 0 1.900391,-5.87891 c 0.159,-2.096 -0.176406,-4.19297 -0.316407,-6.29297 -0.098,-1.462 -0.106406,-2.92953 -0.191406,-4.39453 -0.1,-1.691 -0.306297,-3.38762 -0.779297,-5.01562 -0.174,-0.592 -0.385703,-1.17641 -0.720703,-1.69141 a 3.787,3.787 0 0 0 -1.603515,-1.39648 3.424,3.424 0 0 0 -2.107422,-0.23438 c -0.598,0.127 -1.14686,0.42288 -1.63086,0.79688 -0.484,0.373 -0.905781,0.82306 -1.300781,1.28906 a 19.676,19.676 0 0 0 -2.802734,4.36328 9.643,9.643 0 0 0 -2.949219,0 19.706,19.706 0 0 0 -2.800781,-4.36328 c -0.397,-0.467 -0.812875,-0.91711 -1.296875,-1.28711 -0.484,-0.373 -1.036813,-0.66888 -1.632813,-0.79688 -0.714,-0.12 -1.35375,-0.0576 -2.09375,0.23438 -0.657,0.301 -1.213515,0.78258 -1.603515,1.39258 -0.335,0.515 -0.547703,1.10531 -0.720703,1.69531 -0.474001,1.628 -0.679297,3.32262 -0.779297,5.01563 -0.086,1.46299 -0.09336,2.92957 -0.19336,4.39257 -0.138,2.098 -0.46664,4.19697 -0.30664,6.29297 a 13.103,13.103 0 0 0 1.892578,5.88086 c 0.073,0.1 0.15814,0.22185 0.24414,0.33984 a 21.15,21.15 0 0 0 -7.658203,6.00196 c -1.233,1.552 -2.259359,3.31595 -2.693359,5.25195 -0.435,1.935 -0.231781,4.06024 0.824219,5.74024 0.593,0.942 1.427609,1.68336 2.349609,2.31835 a 48.23,48.23 0 0 0 -0.230469,4.52344 47.615,47.615 0 0 0 0.34375,5.64453 47.615,47.615 0 0 1 0,0.002 35.026,35.026 0 0 1 -9.77539,-8.61914 c -0.017,-0.185 -0.04359,-0.36774 -0.05859,-0.55274 -0.125,-2.279 0.138781,-4.61312 1.050781,-6.70312 1.118,-2.56 3.151563,-4.63875 4.226563,-7.21875 0.6,-1.438 0.885187,-3.02222 0.742187,-4.57422 -0.143,-1.554 -0.726797,-3.0753 -1.716797,-4.2793 -0.8,-0.968 -1.879515,-1.73134 -3.103515,-2.02734 -0.304,-0.075 -0.615688,-0.11886 -0.929688,-0.13086 -0.946,-0.036 -1.904109,0.21539 -2.662109,0.77539 -0.85,0.628 -1.414453,1.61901 -1.564453,2.66601 -0.149,1.046 0.1155,2.1393 0.6875,3.0293 0.225,0.35 0.495187,0.667 0.742187,1 0.245,0.335 0.47375,0.69385 0.59375,1.08984 0.213,0.7 0.08664,1.46168 -0.193359,2.13868 -0.276,0.674 -0.692313,1.2822 -1.070313,1.9082 -0.73,1.215 -1.312312,2.50808 -1.820312,3.83008 a 35.026,35.026 0 0 1 -2.283203,-12.39453 35.026,35.026 0 0 1 35.02539,-35.02735 z m -9.833984,43.21094 20.962891,11.35547 -20.960938,11.36523 v -10.07617 a 4.694,4.694 0 0 0 2.126953,-0.33008 4.447,4.447 0 0 0 1.714844,-1.23632 4.032,4.032 0 0 0 0.896484,-1.91211 4.08,4.08 0 0 0 -0.3125,-2.3418 4.693,4.693 0 0 0 -1.501953,-1.83789 5.077,5.077 0 0 0 -2.925781,-0.98047 z m -5.916016,23.05274 a 35.026,35.026 0 0 0 1.769531,0.78124 35.023,35.023 0 0 0 1.798829,0.77149 35.026,35.026 0 0 1 -1.798829,-0.77149 35.023,35.023 0 0 1 -1.769531,-0.78124 z m 29.283203,1.02929 v 0.002 a 35.026,35.026 0 0 1 -1.83789,0.70704 35.01,35.01 0 0 0 1.83789,-0.70899 z"
       id="circle4536"
       inkscape:connector-curvature="0" />
  </g>
</svg>
