<?xml version="1.0" encoding="UTF-8" standalone="no"?>
<svg
   xmlns:dc="http://purl.org/dc/elements/1.1/"
   xmlns:cc="http://creativecommons.org/ns#"
   xmlns:rdf="http://www.w3.org/1999/02/22-rdf-syntax-ns#"
   xmlns:svg="http://www.w3.org/2000/svg"
   xmlns="http://www.w3.org/2000/svg"
   xmlns:sodipodi="http://sodipodi.sourceforge.net/DTD/sodipodi-0.dtd"
   xmlns:inkscape="http://www.inkscape.org/namespaces/inkscape"
   viewBox="0 0 350 87.5"
   height="87.5"
   width="350"
   xml:space="preserve"
   version="1.1"
   id="svg2"
   sodipodi:docname="meggsimum-logo-s-RGB-fett.svg"
   inkscape:version="0.92.3 (2405546, 2018-03-11)"><sodipodi:namedview
     pagecolor="#ffffff"
     bordercolor="#666666"
     borderopacity="1"
     objecttolerance="10"
     gridtolerance="10"
     guidetolerance="10"
     inkscape:pageopacity="0"
     inkscape:pageshadow="2"
     inkscape:window-width="1920"
     inkscape:window-height="1028"
     id="namedview12"
     showgrid="false"
     inkscape:zoom="2.2061732"
     inkscape:cx="83.17137"
     inkscape:cy="7.7339853"
     inkscape:window-x="0"
     inkscape:window-y="0"
     inkscape:window-maximized="1"
     inkscape:current-layer="g12" /><metadata
     id="metadata8"><rdf:RDF><cc:Work
         rdf:about=""><dc:format>image/svg+xml</dc:format><dc:type
           rdf:resource="http://purl.org/dc/dcmitype/StillImage" /><dc:title /></cc:Work></rdf:RDF></metadata><defs
     id="defs6" /><g
     transform="matrix(1.25,0,0,-1.25,0,87.5)"
     id="g10"><g
       transform="scale(0.1,0.1)"
       id="g12"><path
         id="path14"
         style="fill:#da193b;fill-opacity:1;fill-rule:nonzero;stroke:none"
         d="m 2663.56,520.352 8.56,0 0,34.836 36.11,-34.836 13.01,0 -37.98,35.695 33.98,30.121 -12.57,0 -32.55,-29.84 0,71.957 -8.56,0 0,-107.933 z m -36.7,92.089 c 0,-3.562 2.85,-6.414 6.41,-6.414 3.57,0 6.42,2.852 6.42,6.414 0,3.571 -2.85,6.422 -6.42,6.422 -3.56,0 -6.41,-2.851 -6.41,-6.422 l 0,0 z m 2.13,-92.089 8.56,0 0,65.953 -8.56,0 0,-65.953 z m -19.16,65.953 -18.84,0 0,18.988 -8.55,0 0,-18.988 -14.29,0 0,-7.692 14.29,0 0,-43 c 0,-9.422 4.7,-16.968 16.96,-16.968 3.3,0 8.01,1.136 11.15,2.273 l -0.72,7.699 c -2.99,-1.281 -6.42,-2.285 -9.7,-2.285 -5.73,0 -9.14,3.43 -9.14,9.281 l 0,43 18.84,0 0,7.692 z m -65.17,-32.825 0,-4.425 c 0,-11.008 -4.72,-22.723 -23,-22.723 -7.15,0 -15,4.148 -15,12.293 0,11.281 14.28,14.855 28.56,14.855 l 9.44,0 0,0 z m 7.68,10.696 c 0,16.719 -10.26,23.844 -26.27,23.844 -8.56,0 -18.84,-3.278 -25.11,-9.266 l 4.98,-5.859 c 5.86,5 12.43,7.433 20.13,7.433 10.59,0 18.59,-4.574 18.59,-16.012 l 0,-4 -10,0 c -13,0 -36.55,-1.992 -36.55,-22.125 0,-13.996 11.97,-19.546 23.26,-19.546 11.14,0 18.29,3.984 23.14,12.406 l 0.28,0 c 0,-3.715 0.29,-7.422 0.85,-10.699 l 7.98,0 c -0.99,7.554 -1.28,14.839 -1.28,27.699 l 0,16.125 z m -174.5,-43.824 8.55,0 0,32.988 c 0,18.137 10.13,26.988 22.85,26.988 9.29,0 13.72,-8.14 13.72,-20.277 l 0,-39.699 8.54,0 0,37.128 c 0,9.422 4.14,22.848 20,22.848 13.58,0 16.58,-10.426 16.58,-21.133 l 0,-38.843 8.55,0 0,39.265 c 0,14.426 -4.56,28.403 -25.13,28.403 -9.15,0 -18.29,-4.415 -22.41,-14.266 -3.14,9.992 -11.13,14.266 -19.85,14.266 -10.71,0 -19.14,-5.985 -22.57,-13.262 l -0.43,0 c -0.28,1.281 -0.42,6.707 -0.58,11.547 l -8.54,0 c 0,-3.418 0.72,-13.692 0.72,-18.547 l 0,-47.406 z m -51.79,0 8.56,0 0,35.988 c 0,12.848 6.71,23.129 21.55,23.129 0.87,0 2,-0.145 3.29,-0.574 l 1.01,8.41 c -1.72,0.429 -3.29,0.715 -5,0.715 -9.85,0 -16.71,-5.559 -21,-13.262 -0.28,1.281 -0.43,6.703 -0.56,11.547 l -8.55,0 c 0,-3.418 0.7,-13.692 0.7,-18.547 l 0,-47.406 z m -82.42,32.976 c 0,14.856 10,27 26.15,27 16.14,0 26.14,-12.144 26.14,-27 0,-14.851 -10,-26.996 -26.14,-26.996 -16.15,0 -26.15,12.145 -26.15,26.996 l 0,0 z m -8.54,0 c 0,-20.14 14.41,-34.683 34.69,-34.683 20.28,0 34.68,14.543 34.68,34.683 0,20.141 -14.4,34.692 -34.68,34.692 -20.28,0 -34.69,-14.551 -34.69,-34.692 l 0,0 z m -34.86,-32.976 8.56,0 0,58.261 15.42,0 0,7.692 -15.42,0 0,18.425 c 0,11.864 3.71,17.575 11.56,17.575 3.28,0 5.71,-0.43 7.71,-1.426 l 1.72,7.422 c -2.57,1.129 -5.72,1.699 -9.85,1.699 -8.44,0 -19.7,-5.133 -19.7,-22.125 l 0,-21.57 -13.71,0 0,-7.692 13.71,0 0,-58.261 z m -85.97,0 8.54,0 0,32.988 c 0,18.137 10.16,26.988 22.86,26.988 13.58,0 16.58,-10.426 16.58,-21.133 l 0,-38.843 8.55,0 0,39.265 c 0,14.426 -4.56,28.403 -25.13,28.403 -10.7,0 -19.14,-5.985 -22.56,-13.262 l -0.43,0 c -0.29,1.281 -0.43,6.707 -0.57,11.547 l -8.56,0 c 0,-3.418 0.72,-13.692 0.72,-18.547 l 0,-47.406 z m -36.9,92.089 c 0,-3.562 2.85,-6.414 6.43,-6.414 3.55,0 6.41,2.852 6.41,6.414 0,3.571 -2.86,6.422 -6.41,6.422 -3.58,0 -6.43,-2.851 -6.43,-6.422 l 0,0 z m 2.15,-92.089 8.55,0 0,65.953 -8.55,0 0,-65.953 z m -83.03,32.976 c 0,14.856 10,27 26.15,27 16.14,0 26.14,-12.144 26.14,-27 0,-14.851 -10,-26.996 -26.14,-26.996 -16.15,0 -26.15,12.145 -26.15,26.996 l 0,0 z m -8.54,0 c 0,-20.14 14.4,-34.683 34.69,-34.683 20.28,0 34.68,14.543 34.68,34.683 0,20.141 -14.4,34.692 -34.68,34.692 -20.29,0 -34.69,-14.551 -34.69,-34.692 l 0,0 z m -73.64,5.559 c 0,3.433 5.29,21.441 24,21.441 12.71,0 22.84,-9.723 22.84,-21.441 l -46.84,0 0,0 z m 47.14,-20.836 c -4.29,-7.149 -13.43,-11.719 -22.14,-11.719 -20,0 -25,17.723 -25,24.863 l 55.4,0 0,5.985 c 0,15.285 -10.7,30.84 -30.97,30.84 -19.3,0 -32.98,-14.84 -32.98,-34.543 0,-20.43 13.26,-34.832 33.41,-34.832 11.71,0 21.85,4.128 28.55,14.121 l -6.27,5.285 0,0 z m -79.28,36.832 -33.69,0 0,-8.551 24.27,0 0,-33.996 c -7.7,-4.57 -17.42,-6.004 -28.28,-6.004 -26.41,0 -42.83,19.43 -42.83,44.563 0,25.128 16.42,44.554 42.83,44.554 11.01,0 23.44,-5.14 29.57,-12.566 l 6.85,7.14 c -9.27,9.422 -21.42,13.977 -36.42,13.977 -30.85,0 -52.24,-22.262 -52.24,-53.105 0,-30.844 21.39,-53.114 52.24,-53.114 13.15,0 26.01,2.422 37.7,9.121 l 0,47.981 z m -176.18,-54.531 8.55,0 0,35.988 c 0,12.848 6.71,23.129 21.55,23.129 0.85,0 2.01,-0.145 3.29,-0.574 l 1,8.41 c -1.72,0.429 -3.28,0.715 -5,0.715 -9.85,0 -16.71,-5.559 -20.99,-13.262 -0.28,1.281 -0.42,6.703 -0.57,11.547 l -8.56,0 c 0,-3.418 0.73,-13.692 0.73,-18.547 l 0,-47.406 z m -46.76,93.089 c 0,-3.847 3,-6.843 6.85,-6.843 3.86,0 6.86,2.996 6.86,6.843 0,3.856 -3,6.848 -6.86,6.848 -3.85,0 -6.85,-2.992 -6.85,-6.848 l 0,0 z m -27.11,0 c 0,-3.847 3,-6.843 6.85,-6.843 3.84,0 6.84,2.996 6.84,6.843 0,3.856 -3,6.848 -6.84,6.848 -3.85,0 -6.85,-2.992 -6.85,-6.848 l 0,0 z m 47.96,-27.136 -8.56,0 0,-32.985 c 0,-18.132 -10.13,-26.988 -22.85,-26.988 -13.57,0 -16.57,10.426 -16.57,21.133 l 0,38.84 -8.55,0 0,-39.27 c 0,-14.418 4.56,-28.39 25.12,-28.39 10.72,0 19.14,5.98 22.58,13.253 l 0.42,0 c 0.28,-1.285 0.43,-6.703 0.57,-11.546 l 8.56,0 c 0,3.418 -0.72,13.691 -0.72,18.543 l 0,47.41 z m -97.26,-65.953 8.56,0 0,58.261 15.42,0 0,7.692 -15.42,0 0,18.425 c 0,11.864 3.71,17.575 11.57,17.575 3.28,0 5.7,-0.43 7.7,-1.426 l 1.71,7.422 c -2.56,1.129 -5.7,1.699 -9.84,1.699 -8.44,0 -19.7,-5.133 -19.7,-22.125 l 0,-21.57 -13.7,0 0,-7.692 13.7,0 0,-58.261 z m -127.66,32.976 c 0,14.856 10,27 26.14,27 16.14,0 26.14,-12.144 26.14,-27 0,-14.851 -10,-26.996 -26.14,-26.996 -16.14,0 -26.14,12.145 -26.14,26.996 l 0,0 z m -8.55,0 c 0,-20.14 14.41,-34.683 34.69,-34.683 20.27,0 34.69,14.543 34.69,34.683 0,20.141 -14.42,34.692 -34.69,34.692 -20.28,0 -34.69,-14.551 -34.69,-34.692 l 0,0 z m -44.76,-32.976 8.55,0 0,35.988 c 0,12.848 6.71,23.129 21.55,23.129 0.86,0 2.01,-0.145 3.28,-0.574 l 1.01,8.41 c -1.71,0.429 -3.28,0.715 -4.99,0.715 -9.86,0 -16.71,-5.559 -21,-13.262 -0.28,1.281 -0.43,6.703 -0.56,11.547 l -8.56,0 c 0,-3.418 0.72,-13.692 0.72,-18.547 l 0,-47.406 z m -46.74,93.089 c 0,-3.847 2.99,-6.843 6.84,-6.843 3.86,0 6.85,2.996 6.85,6.843 0,3.856 -2.99,6.848 -6.85,6.848 -3.85,0 -6.84,-2.992 -6.84,-6.848 l 0,0 z m -27.13,0 c 0,-3.847 3.01,-6.843 6.85,-6.843 3.85,0 6.84,2.996 6.84,6.843 0,3.856 -2.99,6.848 -6.84,6.848 -3.84,0 -6.85,-2.992 -6.85,-6.848 l 0,0 z m 47.97,-27.136 -8.56,0 0,-32.985 c 0,-18.132 -10.13,-26.988 -22.85,-26.988 -13.57,0 -16.56,10.426 -16.56,21.133 l 0,38.84 -8.56,0 0,-39.27 c 0,-14.418 4.55,-28.39 25.12,-28.39 10.71,0 19.14,5.98 22.57,13.253 l 0.44,0 c 0.27,-1.285 0.41,-6.703 0.57,-11.546 l 8.54,0 c 0,3.418 -0.71,13.691 -0.71,18.543 l 0,47.41 z m -135.82,-17.117 22.99,0 c 12.01,0 24.29,-5.86 24.29,-20.86 0,-7.14 -3.57,-19.426 -25.72,-19.426 l -21.56,0 0,40.286 z m 0,43.695 20.86,0 c 11.99,0 21.99,-4 21.99,-18.149 0,-6.281 -3.71,-16.996 -23.28,-16.996 l -19.57,0 0,35.145 z m -9.41,-92.531 32.26,0 c 13.71,0 33.83,4.992 33.83,28.265 0,14.141 -9.26,23.848 -22.54,24.844 l 0,0.285 c 11.99,2.426 18.12,10.707 18.12,20.988 0,22.848 -17.13,26.696 -32.55,26.696 l -29.12,0 0,-101.078" /><path
         id="path18"
         style="fill:#000000;fill-opacity:1;stroke:#0a1f20;stroke-width:14.39999962;stroke-linecap:butt;stroke-linejoin:miter;stroke-miterlimit:4;stroke-dasharray:none;stroke-opacity:1"
         d="m 2599.692,358.04801 10.08,9.722 c 8.28,9 17.99,15.481 29.16,20.516 l 3.6,1.441 c 5.76,1.083 11.87,1.442 17.64,1.442 5.4,0 10.44,-0.359 15.84,-1.442 7.19,-1.441 12.59,-5.398 16.2,-11.515 5.4,-9.004 8.28,-19.082 8.28,-29.524 v -25.554 c 0,-4.692 0.36,-9.004 0.36,-13.684 0,-5.762 -0.36,-11.523 -1.08,-18 0,-1.082 0.36,-2.168 0.36,-3.238 0,-1.445 0.36,-3.242 0.36,-4.68 v -15.84 c 0,-5.398 0,-10.437 -0.72,-15.488 0,-0.715 0,-1.797 0.36,-2.871 0,-2.883 0.36,-5.762 0.36,-9.004 v -3.242 c 0,-1.074 0,-2.156 0.36,-2.879 0.71,-3.957 2.52,-7.199 6.47,-8.645 3.25,-0.711 6.85,-2.16 10.44,-2.16 1.09,0 1.81,0 2.88,0.364 1.45,0.363 3.25,0.722 4.68,0.722 1.09,0 2.17,-0.359 3.24,-0.359 h 1.45 c 1.07,0 2.16,0 3.24,0.359 1.44,0.363 2.16,0.723 2.16,2.156 0,0.723 -0.36,1.797 -0.72,2.883 -0.73,0 -1.8,0.364 -2.88,0.364 h -15.12 c -3.24,0 -5.76,0.359 -7.92,3.953 0,2.882 0,6.484 -0.72,9.726 -0.36,1.074 -0.36,2.52 -0.36,3.953 0,1.45 0,2.524 0.36,3.965 0.36,1.801 0.36,3.598 0.36,5.403 0,4.675 0.36,8.996 0.36,13.32 0,5.398 -0.36,10.801 -1.08,16.914 0,1.086 0.36,2.156 0.36,3.242 0,1.797 0.36,3.242 0.36,4.68 0,5.398 0.36,11.16 0.36,16.558 0,4.68 -0.36,9.004 -1.08,13.684 v 3.242 c 0.72,5.403 1.08,10.801 1.08,16.192 0,5.406 -0.36,11.164 -1.45,16.562 -1.79,9.004 -4.31,17.281 -10.8,24.481 -6.11,6.843 -13.67,10.8 -23.03,11.519 -4.32,0.363 -8.65,0.723 -12.96,0.723 -3.24,0 -6.13,-0.36 -9.37,-0.36 -5.39,0 -10.79,-1.441 -16.19,-3.597 -7.92,-3.242 -14.76,-7.567 -21.24,-13.684 -2.88,-3.242 -6.48,-6.117 -9.36,-9.723 -1.44,-1.796 -3.25,-2.875 -5.41,-4.316 -0.71,1.441 -1.43,2.52 -1.79,3.961 -2.52,11.156 -10.08,18.359 -19.81,23.762 -3.23,2.156 -6.83,3.234 -10.44,3.234 -7.55,0 -15.11,0.363 -22.31,0.363 -1.81,0 -3.97,-0.363 -5.76,-0.718 -10.08,-1.801 -18.36,-7.918 -26.28,-14.043 -5.4,-4.676 -11.16,-9.36 -15.12,-15.118 -1.81,-2.523 -3.6,-4.683 -5.76,-6.839 -0.36,-0.364 -0.72,-1.442 -1.81,-1.442 -0.35,0 -1.07,0.363 -1.79,0.719 v 9.723 c 0,2.156 0,4.675 -0.37,7.195 -0.72,5.043 -1.07,9.723 -1.07,14.402 0,1.082 -0.72,2.524 -1.08,3.602 -1.44,0.359 -2.52,0.719 -3.61,0.719 h -26.99 c -0.36,0 -1.08,-0.719 -1.81,-1.082 0,-0.36 -0.36,-0.715 -0.36,-1.442 0,-0.715 0.36,-1.797 1.45,-2.879 4.68,-1.078 9.35,-1.078 14.39,-1.078 3.61,0 7.21,0 10.8,-1.082 0,-2.156 0.73,-3.957 0.73,-5.762 v -10.078 c 0,-3.238 -0.37,-6.476 -1.08,-9.719 v -3.96 c 0.35,-7.559 1.08,-14.754 1.08,-22.317 0,-4.683 -0.37,-9.723 -1.08,-14.402 v -3.242 c 0.71,-6.836 1.08,-13.68 1.08,-20.879 0,-5.039 0,-10.442 -1.08,-16.563 0,-1.074 0,-1.797 0.35,-2.871 0,-6.848 0.73,-14.043 0.73,-20.891 0,-3.953 0,-7.917 -0.37,-11.875 -0.36,-1.792 -0.36,-3.601 -0.36,-5.398 v -2.519 c 0.36,-1.083 0.36,-2.161 0.36,-3.243 0,-1.433 -0.36,-2.882 -1.79,-4.316 -1.09,-0.359 -1.8,-0.359 -2.88,-0.359 -2.16,0 -4.32,0.359 -6.13,0.359 -1.07,0 -2.15,0 -3.23,-0.359 h -1.44 c -2.16,0 -4.32,0.359 -6.48,0.359 -1.81,0 -3.24,-0.359 -4.69,-1.445 0,-0.711 -0.36,-1.075 -0.36,-1.797 0,-0.723 0.36,-1.797 1.45,-2.879 1.43,0.359 3.6,0.359 5.4,0.359 h 2.16 c 1.79,-0.359 3.96,-0.359 5.76,-0.359 1.43,0 2.88,0 4.31,0.359 1.09,0 2.16,0 3.25,-0.359 1.43,-0.363 2.88,-0.727 4.67,-0.727 1.45,0 3.25,0.364 5.04,0.727 h 9.37 c 1.8,0.359 3.59,0.359 5.4,0.359 1.8,0 3.95,0 5.76,-0.359 h 1.8 c 1.79,0 3.6,0.359 5.4,1.082 0.36,0.715 0.72,1.433 0.72,2.156 0,0.727 -0.36,1.438 -1.08,2.16 h -5.76 c -1.8,0 -3.96,0 -5.77,0.723 -1.07,0.359 -1.79,0.359 -2.88,0.359 -2.16,0 -4.31,-0.359 -6.11,-0.359 -1.08,0 -2.52,0.359 -3.6,0.715 -0.37,2.168 -0.73,4.683 -0.73,6.844 v 1.796 c 0.73,3.606 0.73,7.559 0.73,11.161 0,1.085 0.36,2.523 0.36,3.605 0,5.039 -1.09,9.719 -1.09,14.758 0,1.797 0,3.601 0.36,5.398 0.37,2.157 0.37,4.317 0.37,6.485 0,3.593 0.36,7.199 0.36,11.152 0,2.883 -0.36,5.762 -0.73,8.645 v 11.882 c 0,1.797 0,3.235 -0.36,4.676 0.73,4.317 1.09,8.281 1.09,12.602 0,4.675 -0.36,9.715 -1.45,14.402 v 1.797 c 0,3.242 1.45,5.762 4.33,7.558 3.6,2.161 6.12,5.04 8.64,8.282 6.84,8.281 15.12,15.117 24.12,21.242 7.2,5.035 14.76,7.918 23.4,7.918 1.44,0 2.88,-0.359 4.32,-0.359 h 4.67 c 1.09,0 1.81,0.359 2.89,0.359 3.24,0 6.48,-1.078 9.72,-1.801 7.56,-1.797 12.6,-6.48 16.55,-12.961 5.77,-9.359 6.13,-18.359 6.13,-28.805 -0.36,-1.433 -0.36,-2.515 -0.36,-3.953 v -8.281 c 0,-1.086 -0.37,-2.519 -0.37,-3.965 0.73,-4.316 1.09,-8.269 1.09,-12.597 0,-4.317 -0.36,-8.633 -0.72,-12.598 v -10.441 c 0,-1.082 -0.37,-2.157 -0.37,-3.961 0.73,-4.321 1.09,-8.633 1.09,-12.961 0,-5.039 -0.36,-10.442 -0.36,-15.481 v -5.039 c 0,-1.797 -0.73,-3.601 -0.73,-6.121 0.73,-2.871 0.73,-5.398 0.73,-8.269 v -5.403 c 0,-3.242 0.36,-6.484 1.79,-9.363 1.81,-2.883 4.33,-4.68 7.56,-4.68 3.25,-0.359 6.49,-0.722 9.73,-0.722 l 14.03,1.085 c 0.36,0.711 0.36,1.434 0.36,2.157 0,0.722 -0.71,2.519 -1.07,2.519 -3.24,0.364 -6.48,1.082 -10.08,1.082 -1.44,0 -3.24,0 -4.69,-0.359 -0.71,0 -1.07,-0.359 -1.79,-0.359 -2.52,0 -4.68,1.074 -6.84,2.515 -0.36,0.727 -0.72,1.086 -0.72,1.801 -0.72,9.363 0,19.082 -1.09,28.434 0,1.085 0.37,2.168 0.73,3.246 v 4.675 c 0,6.122 -0.36,12.247 -0.36,18.372 v 5.75 c 0,1.804 0,3.964 -0.37,7.207 0,0.71 0,1.433 0.37,2.16 0,2.879 0.36,5.758 0.36,8.64 v 11.153 c 0,5.761 0,11.164 -0.73,16.922 0,1.085 0.37,2.16 0.37,2.882 0.36,2.52 0.36,5.039 0.36,7.2 z m -242.88,-98.996 c -2.88,-3.965 -7.2,-5.762 -10.08,-9.004 -6.12,-6.477 -12.96,-11.875 -20.52,-16.203 -6.12,-3.594 -12.61,-5.75 -19.8,-5.75 -7.2,0.347 -14.41,0.347 -21.24,1.074 -7.92,0.723 -14.76,3.238 -19.8,9.004 -6.48,7.195 -9.36,15.476 -10.44,24.832 v 15.129 c 0,15.84 -0.36,31.316 -0.36,47.156 v 66.238 c 0,1.082 0,1.797 -0.36,2.879 -0.72,0.36 -1.45,1.082 -2.16,1.082 h -28.8 c -0.72,0 -0.72,-0.722 -1.44,-0.722 -0.36,-0.715 -0.73,-1.442 -0.73,-2.157 0,-0.722 0.37,-1.441 1.45,-2.519 2.88,-1.078 6.11,-1.078 8.99,-1.078 h 7.21 c 2.52,0 5.04,0 7.56,-0.727 0.36,-0.715 0.36,-1.437 0.36,-1.801 v -35.996 c 0,-9.722 0.35,-19.801 0.35,-29.523 0,-16.555 0,-33.117 -0.35,-49.68 0,-6.836 1.07,-13.684 2.88,-20.156 2.16,-8.281 7.2,-14.766 13.32,-20.52 7.56,-6.843 16.92,-8.277 26.63,-9.004 h 21.97 c 2.51,0 5.4,0.727 8.28,1.797 7.92,2.883 15.11,7.207 21.6,12.961 6.83,6.121 12.96,12.246 19.44,18.723 1.44,1.082 2.16,2.515 3.23,3.601 l 2.52,2.52 c 0,-5.039 0.73,-9.004 0.73,-13.32 0,-1.438 0,-3.243 -0.37,-5.039 -0.36,-0.723 -0.36,-1.797 -0.36,-2.52 0,-1.797 0.36,-3.602 0.73,-5.398 1.79,-6.489 7.92,-11.164 15.47,-11.164 1.81,0 3.61,0 5.41,-0.364 1.08,-0.359 2.51,-0.359 3.6,-0.359 2.88,0 5.76,0.723 8.28,1.445 0.71,0 1.07,0.723 1.44,1.074 0.36,0.364 0.36,1.082 0.36,1.446 0,0.722 -0.36,1.433 -1.44,2.16 -1.44,0.359 -3.24,0.359 -5.05,0.359 h -2.52 c -3.59,0 -6.83,0.364 -10.08,1.082 -5.4,1.075 -7.92,3.957 -7.92,9.36 v 54.004 c 0,4.316 -0.36,8.628 -0.36,12.957 v 38.156 c 0.36,5.043 0.36,10.082 0.36,15.121 0,10.082 -0.36,20.16 -0.36,30.602 0,1.437 -0.71,2.878 -1.07,4.679 h -9 c -7.2,0 -14.4,0 -21.24,-0.359 -0.73,-1.442 -1.44,-2.52 -1.44,-3.242 0,-1.442 1.07,-2.161 2.52,-2.161 l 8.64,-0.714 h 11.15 c 0.73,0 1.09,-0.727 2.16,-1.086 l 1.45,-20.879 c 0,-0.719 0,-1.078 -0.36,-1.801 -0.73,-4.316 -1.09,-8.641 -1.09,-13.316 0,-2.52 0.36,-5.403 0.36,-7.918 0.36,-4.328 1.09,-8.645 1.09,-12.961 0,-1.446 -0.36,-2.52 -0.36,-3.965 -0.37,-5.402 -0.73,-11.16 -0.73,-16.563 0,-3.593 0,-6.836 0.36,-10.437 0,-3.957 0.73,-7.922 0.73,-11.875 -0.36,-5.766 -1.09,-11.527 -1.8,-18.36 z m -298.52,98.996 10.08,9.722 c 8.28,9 18,15.481 29.16,20.516 l 3.59,1.441 c 5.76,1.083 11.89,1.442 17.65,1.442 5.4,0 10.44,-0.359 15.84,-1.442 7.2,-1.441 12.6,-5.398 16.2,-11.515 5.4,-9.004 8.28,-19.082 8.28,-29.524 v -25.554 c 0,-4.692 0.35,-9.004 0.35,-13.684 0,-5.762 -0.35,-11.523 -1.07,-18 0,-1.082 0.36,-2.168 0.36,-3.238 0,-1.445 0.36,-3.242 0.36,-4.68 v -15.84 c 0,-5.398 0,-10.437 -0.72,-15.488 0,-0.715 0,-1.797 0.36,-2.871 0,-2.883 0.36,-5.762 0.36,-9.004 v -3.242 c 0,-1.074 0,-2.156 0.35,-2.879 0.73,-3.957 2.52,-7.199 6.49,-8.645 3.24,-0.711 6.83,-2.16 10.44,-2.16 1.08,0 1.79,0 2.88,0.364 1.43,0.363 3.24,0.722 4.68,0.722 1.08,0 2.15,-0.359 3.24,-0.359 h 1.43 c 1.09,0 2.17,0 3.25,0.359 1.44,0.363 2.15,0.723 2.15,2.156 0,0.723 -0.36,1.797 -0.71,2.883 -0.72,0 -1.81,0.364 -2.88,0.364 h -15.13 c -3.23,0 -5.75,0.359 -7.92,3.953 0,2.882 0,6.484 -0.71,9.726 -0.36,1.074 -0.36,2.52 -0.36,3.953 0,1.45 0,2.524 0.36,3.965 0.35,1.801 0.35,3.598 0.35,5.403 0,4.675 0.36,8.996 0.36,13.32 0,5.398 -0.36,10.801 -1.07,16.914 0,1.086 0.36,2.156 0.36,3.242 0,1.797 0.35,3.242 0.35,4.68 0,5.398 0.36,11.16 0.36,16.558 0,4.68 -0.36,9.004 -1.07,13.684 v 3.242 c 0.71,5.403 1.07,10.801 1.07,16.192 0,5.406 -0.36,11.164 -1.43,16.562 -1.8,9.004 -4.32,17.281 -10.8,24.481 -6.13,6.843 -13.68,10.8 -23.04,11.519 -4.33,0.363 -8.64,0.723 -12.96,0.723 -3.24,0 -6.12,-0.36 -9.36,-0.36 -5.4,0 -10.81,-1.441 -16.21,-3.597 -7.92,-3.242 -14.75,-7.567 -21.24,-13.684 -2.88,-3.242 -6.47,-6.117 -9.35,-9.723 -1.45,-1.796 -3.24,-2.875 -5.4,-4.316 -0.72,1.441 -1.45,2.52 -1.8,3.961 -2.52,11.156 -10.09,18.359 -19.8,23.762 -3.25,2.156 -6.84,3.234 -10.44,3.234 -7.56,0 -15.12,0.363 -22.33,0.363 -1.79,0 -3.95,-0.363 -5.75,-0.718 -10.09,-1.801 -18.36,-7.918 -26.29,-14.043 -5.39,-4.676 -11.15,-9.36 -15.12,-15.118 -1.79,-2.523 -3.59,-4.683 -5.76,-6.839 -0.35,-0.364 -0.71,-1.442 -1.79,-1.442 -0.36,0 -1.09,0.363 -1.8,0.719 v 9.723 c 0,2.156 0,4.675 -0.36,7.195 -0.72,5.043 -1.09,9.723 -1.09,14.402 0,1.082 -0.71,2.524 -1.07,3.602 -1.45,0.359 -2.52,0.719 -3.6,0.719 h -27.01 c -0.36,0 -1.07,-0.719 -1.79,-1.082 0,-0.36 -0.36,-0.715 -0.36,-1.442 0,-0.715 0.36,-1.797 1.44,-2.879 4.68,-1.078 9.36,-1.078 14.4,-1.078 3.6,0 7.19,0 10.8,-1.082 0,-2.156 0.72,-3.957 0.72,-5.762 v -10.078 c 0,-3.238 -0.36,-6.476 -1.08,-9.719 v -3.96 c 0.36,-7.559 1.08,-14.754 1.08,-22.317 0,-4.683 -0.36,-9.723 -1.08,-14.402 v -3.242 c 0.72,-6.836 1.08,-13.68 1.08,-20.879 0,-5.039 0,-10.442 -1.08,-16.563 0,-1.074 0,-1.797 0.36,-2.871 0,-6.848 0.72,-14.043 0.72,-20.891 0,-3.953 0,-7.917 -0.36,-11.875 -0.36,-1.792 -0.36,-3.601 -0.36,-5.398 v -2.519 c 0.36,-1.083 0.36,-2.161 0.36,-3.243 0,-1.433 -0.36,-2.882 -1.8,-4.316 -1.08,-0.359 -1.81,-0.359 -2.88,-0.359 -2.17,0 -4.33,0.359 -6.12,0.359 -1.09,0 -2.16,0 -3.24,-0.359 h -1.44 c -2.16,0 -4.33,0.359 -6.48,0.359 -1.8,0 -3.25,-0.359 -4.68,-1.445 0,-0.711 -0.36,-1.075 -0.36,-1.797 0,-0.723 0.36,-1.797 1.44,-2.879 1.44,0.359 3.6,0.359 5.4,0.359 h 2.16 c 1.8,-0.359 3.96,-0.359 5.75,-0.359 1.45,0 2.88,0 4.33,0.359 1.07,0 2.16,0 3.24,-0.359 1.44,-0.363 2.88,-0.727 4.68,-0.727 1.43,0 3.24,0.364 5.04,0.727 h 9.35 c 1.81,0.359 3.61,0.359 5.4,0.359 1.81,0 3.97,0 5.76,-0.359 h 1.81 c 1.8,0 3.6,0.359 5.39,1.082 0.36,0.715 0.72,1.433 0.72,2.156 0,0.727 -0.36,1.438 -1.07,2.16 h -5.76 c -1.8,0 -3.97,0 -5.76,0.723 -1.09,0.359 -1.8,0.359 -2.88,0.359 -2.16,0 -4.32,-0.359 -6.13,-0.359 -1.07,0 -2.52,0.359 -3.59,0.715 -0.36,2.168 -0.72,4.683 -0.72,6.844 v 1.796 c 0.72,3.606 0.72,7.559 0.72,11.161 0,1.085 0.36,2.523 0.36,3.605 0,5.039 -1.08,9.719 -1.08,14.758 0,1.797 0,3.601 0.36,5.398 0.36,2.157 0.36,4.317 0.36,6.485 0,3.593 0.36,7.199 0.36,11.152 0,2.883 -0.36,5.762 -0.72,8.645 v 11.882 c 0,1.797 0,3.235 -0.36,4.676 0.72,4.317 1.08,8.281 1.08,12.602 0,4.675 -0.36,9.715 -1.44,14.402 v 1.797 c 0,3.242 1.44,5.762 4.32,7.558 3.6,2.161 6.11,5.04 8.63,8.282 6.85,8.281 15.13,15.117 24.13,21.242 7.19,5.035 14.76,7.918 23.39,7.918 1.45,0 2.88,-0.359 4.33,-0.359 h 4.68 c 1.07,0 1.79,0.359 2.88,0.359 3.24,0 6.47,-1.078 9.72,-1.801 7.55,-1.797 12.59,-6.48 16.56,-12.961 5.76,-9.359 6.12,-18.359 6.12,-28.805 -0.36,-1.433 -0.36,-2.515 -0.36,-3.953 v -8.281 c 0,-1.086 -0.36,-2.519 -0.36,-3.965 0.72,-4.316 1.07,-8.269 1.07,-12.597 0,-4.317 -0.35,-8.633 -0.71,-12.598 v -10.441 c 0,-1.082 -0.36,-2.157 -0.36,-3.961 0.72,-4.321 1.07,-8.633 1.07,-12.961 0,-5.039 -0.35,-10.442 -0.35,-15.481 v -5.039 c 0,-1.797 -0.72,-3.601 -0.72,-6.121 0.72,-2.871 0.72,-5.398 0.72,-8.269 v -5.403 c 0,-3.242 0.35,-6.484 1.8,-9.363 1.79,-2.883 4.31,-4.68 7.56,-4.68 3.24,-0.359 6.48,-0.722 9.71,-0.722 l 14.05,1.085 c 0.36,0.711 0.36,1.434 0.36,2.157 0,0.722 -0.72,2.519 -1.09,2.519 -3.23,0.364 -6.47,1.082 -10.07,1.082 -1.44,0 -3.25,0 -4.68,-0.359 -0.72,0 -1.09,-0.359 -1.8,-0.359 -2.52,0 -4.69,1.074 -6.84,2.515 -0.37,0.727 -0.73,1.086 -0.73,1.801 -0.71,9.363 0,19.082 -1.07,28.434 0,1.085 0.36,2.168 0.72,3.246 v 4.675 c 0,6.122 -0.36,12.247 -0.36,18.372 v 5.75 c 0,1.804 0,3.964 -0.36,7.207 0,0.71 0,1.433 0.36,2.16 0,2.879 0.36,5.758 0.36,8.64 v 11.153 c 0,5.761 0,11.164 -0.72,16.922 0,1.085 0.36,2.16 0.36,2.882 0.36,2.52 0.36,5.039 0.36,7.2 z m -222.54,94.32 c -0.36,4.317 -2.17,5.758 -6.12,6.121 -1.09,0 -2.16,0 -3.24,-0.363 -2.88,-0.356 -4.68,-2.52 -4.68,-5.039 l 1.43,-6.117 c 1.81,-1.082 3.97,-1.801 5.77,-1.801 2.15,0 4.31,1.078 6.84,2.879 z m -10.09,-220.32 c -4.31,-1.797 -8.63,-2.156 -12.95,-2.156 -3.96,0 -8.29,-0.364 -12.24,-0.364 -0.36,-1.086 -0.36,-1.797 -0.36,-2.883 v -1.433 c 2.52,-1.082 4.68,-1.809 7.56,-1.809 1.08,0 2.15,0 3.24,0.364 2.16,0.363 4.68,0.363 6.83,0.363 h 25.57 c 1.44,-0.363 2.88,-0.727 4.68,-0.727 l 6.12,1.086 c 2.16,0 4.32,-0.359 6.11,-0.359 0.37,0.722 0.73,1.797 0.73,2.515 0,0.723 -0.36,1.45 -0.73,2.524 -2.51,0.723 -5.03,0.723 -7.55,0.723 h -7.56 c -3.61,0 -7.2,0 -10.44,1.793 v 6.125 c -0.72,5.402 -0.72,10.8 -0.72,16.203 0,5.398 0,10.797 0.36,16.199 v 11.152 c 0,6.121 -0.36,12.61 -0.36,18.723 0,4.683 0,9.363 1.08,14.043 v 2.156 c -1.08,5.399 -1.08,10.441 -1.08,15.84 v 8.281 c 0,5.039 0,10.082 1.08,14.762 -1.08,3.598 -1.08,7.199 -1.08,10.801 v 5.398 c 0,1.442 -0.37,2.883 -0.37,4.32 0,5.399 1.09,11.161 1.09,16.559 0,1.078 -0.72,2.16 -1.09,2.883 -6.47,0.719 -12.95,0.719 -18.72,0.719 -7.92,0 -14.39,-0.36 -15.48,-1.442 -0.36,-0.719 -0.36,-1.441 -0.36,-1.797 0,-1.082 0.73,-1.8 1.81,-2.883 1.8,-0.359 3.59,-0.359 5.4,-0.359 3.59,0 7.2,0.359 11.15,0.359 2.52,0 5.4,-0.359 8.28,-0.714 0.37,-2.164 0.37,-3.965 0.37,-5.762 v -8.281 c 0,-5.403 1.08,-10.801 1.08,-16.559 0,-2.883 -0.36,-5.762 -1.08,-8.641 v -1.445 c 0,-3.238 -0.37,-6.121 -0.37,-9.351 0,-6.125 0.37,-12.61 1.45,-19.446 0,-1.086 -0.36,-2.519 -0.36,-3.965 -0.36,-1.796 -0.72,-3.593 -0.72,-5.39 v -9.727 c 0,-6.472 0,-13.32 1.08,-20.879 0,-0.722 0,-1.797 -0.36,-2.882 -0.72,-4.676 -1.09,-9.715 -1.09,-14.391 0,-6.125 0.37,-11.887 1.09,-18.012 v -3.23 c 0,-3.242 -0.36,-6.485 -1.09,-9.004 z m -79.66,111.242 c 0.36,0.359 0.72,1.434 0.72,2.156 0,7.563 1.43,15.121 1.43,23.043 -0.36,5.399 -1.79,9.723 -5.4,13.68 -6.11,7.558 -14.39,11.883 -23.39,14.398 -3.25,0.719 -6.84,1.442 -10.44,1.442 h -2.16 c -7.56,-0.723 -15.48,-0.36 -23.04,-0.723 -4.69,0 -9,0.363 -13.68,0.363 -3.24,0 -6.49,0 -9.37,-0.718 -9.71,-1.442 -17.99,-5.762 -25.55,-11.883 -1.09,-0.719 -1.8,-2.16 -2.16,-3.238 -4.68,-7.922 -7.92,-16.204 -8.28,-25.563 0,-2.156 -0.36,-3.961 -0.36,-5.758 v -1.437 c 0.36,-3.606 1.43,-7.2 2.52,-10.801 0.72,-3.242 2.52,-6.484 5.04,-9.008 4.67,-4.676 10.43,-8.277 16.56,-10.437 5.04,-1.797 10.08,-3.594 15.48,-4.317 8.28,-1.445 16.2,-4.679 24.48,-7.195 7.92,-2.524 16.2,-4.328 24.48,-6.848 5.04,-1.797 10.08,-3.242 15.12,-5.398 10.08,-3.598 14.75,-11.164 15.84,-21.606 v -5.75 c 0,-1.804 -0.36,-3.601 -0.36,-5.398 0,-1.086 0.36,-1.809 0.36,-2.883 0,-3.242 -1.09,-6.484 -1.8,-9.726 -2.17,-7.2 -6.48,-12.239 -12.97,-15.84 -6.11,-3.594 -13.32,-3.953 -20.15,-4.676 -0.73,0 -1.44,-0.363 -2.16,-0.363 -0.72,0 -1.45,-0.364 -2.16,-0.364 -2.88,-0.347 -5.76,-0.347 -8.64,-0.347 h -7.56 c -3.97,0 -7.56,0 -11.52,0.711 h -1.44 c -1.81,0 -3.6,-0.364 -5.76,-0.364 -5.04,0 -10.08,0 -15.12,0.364 -5.76,0.722 -10.8,3.601 -15.84,6.843 -4.33,3.235 -7.21,7.2 -7.92,12.602 -0.36,3.238 -0.72,6.473 -0.72,9.351 -0.36,3.247 -1.09,6.489 -1.09,9.731 -0.71,9.352 -1.07,9.352 -1.07,9.352 -1.08,0.363 -1.81,0.722 -2.52,0.722 -0.72,0 -1.08,0 -1.81,-0.722 -1.07,-1.075 -1.43,-2.516 -1.43,-3.954 0,-0.722 0.36,-1.445 0.36,-2.168 0.71,-3.957 1.07,-7.921 1.07,-11.875 0,-4.675 -0.36,-9.003 -0.71,-13.32 l 0.71,-2.519 1.09,-2.161 c 8.28,-12.593 20.52,-19.082 35.63,-19.082 h 36.01 c 7.2,0 14.39,0 21.24,1.086 9.35,1.438 17.27,5.403 23.76,11.875 5.76,5.403 10.08,12.598 10.08,20.879 v 20.164 c 0,3.957 -1.44,7.563 -3.61,11.157 -4.67,7.918 -11.51,13.32 -20.15,16.558 -5.4,2.16 -11.53,3.969 -17.28,5.402 -8.64,2.161 -16.92,4.676 -25.2,7.2 -6.84,2.168 -13.32,4.324 -19.8,6.121 -6.12,1.797 -12.61,3.242 -18.36,5.398 -10.45,3.957 -15.12,14.043 -15.12,26.645 0.72,4.676 1.44,10.078 2.88,14.398 1.44,6.117 4.31,10.801 9.36,14.399 2.88,1.8 5.4,3.242 8.63,4.683 6.85,2.875 14.41,3.239 21.61,3.239 h 34.19 c 4.68,0 9.37,-1.083 13.69,-2.161 11.16,-3.961 18.36,-13.32 18.36,-25.922 0.36,-1.796 0.36,-3.597 0.36,-5.757 0,-3.961 -0.36,-8.282 -0.36,-12.246 0,-1.075 0.72,-2.161 1.79,-2.872 0.36,0 0.73,-0.363 1.09,-0.363 1.08,0 1.79,1.074 2.52,1.801 z m -250.2,47.879 c 10.44,-0.359 19.8,0 29.16,-1.078 17.64,-2.52 30.96,-14.762 32.75,-32.766 1.09,-9 1.81,-17.992 2.16,-26.996 v -1.445 c 0,-6.477 -1.79,-12.598 -3.23,-18.711 -0.36,-1.809 -1.44,-3.606 -1.81,-5.403 -1.07,-7.566 -6.11,-12.246 -12.23,-15.835 -1.8,-1.45 -3.97,-2.532 -6.13,-3.606 -5.03,-2.883 -10.43,-4.68 -16.56,-4.68 h -14.39 c -2.16,0 -4.68,0 -8.28,-0.359 -3.25,-0.359 -6.13,-0.723 -9.01,-0.723 -10.44,0 -20.88,2.52 -30.59,7.559 -5.76,2.883 -10.08,7.207 -12.6,12.961 -2.88,5.762 -4.68,11.519 -5.76,18.008 -0.73,6.113 -1.09,12.234 -1.09,18.355 0,11.152 1.09,22.317 5.77,32.758 2.88,6.48 7.19,11.519 13.68,14.758 9.71,5.047 19.8,7.203 30.59,7.203 z m -64.8,-194.766 c -0.37,-0.715 -0.73,-1.074 -0.73,-1.433 l -0.71,-24.121 c 0,-1.797 0.36,-3.594 0.71,-5.403 3.25,-7.922 7.92,-14.043 15.49,-17.636 7.2,-2.879 14.4,-5.762 22.32,-6.125 3.6,-0.36 7.19,-0.36 11.88,-0.36 h 19.43 c 4.33,0 8.65,0 14.05,-0.715 0.72,0 1.43,0 2.16,0.356 2.88,0 5.76,0.359 8.64,0.359 7.56,0.36 15.12,0 22.31,2.168 1.81,0.715 3.97,1.074 5.76,2.156 5.77,3.957 10.81,8.633 15.48,13.684 0.73,0.715 1.45,1.797 1.81,2.871 1.8,5.051 3.95,9.727 4.32,15.129 v 5.762 c 0,2.871 0,5.75 0.72,8.632 0.36,1.446 0.36,2.516 0.36,3.961 0,3.247 -0.72,6.477 -1.45,9.36 -2.88,11.883 -10.8,19.804 -21.6,25.203 -5.04,2.519 -10.79,4.68 -16.91,4.68 h -1.45 c -1.43,0 -2.88,0.359 -4.67,0.718 h -6.13 c -3.95,-0.718 -8.27,-1.082 -12.23,-1.082 -3.61,0 -6.84,0.364 -10.08,1.082 h -2.52 c -1.8,-0.359 -3.24,-0.359 -5.04,-0.359 -3.24,0 -6.48,0.359 -9.73,0.359 h -2.52 c -2.88,0 -5.4,1.078 -7.55,2.883 -1.8,1.797 -2.89,4.317 -2.89,7.918 0.37,2.883 0.37,5.754 1.09,8.637 1.43,7.207 4.31,13.68 10.44,17.644 1.79,-0.363 3.95,-0.722 5.76,-0.722 6.84,0 13.68,2.16 19.79,2.16 0.37,0 0.73,-0.363 1.09,-0.363 1.43,-0.364 2.52,-0.364 3.95,-0.364 3.61,0 7.21,0.727 10.8,0.727 h 3.25 c 1.08,0 2.88,0.359 3.96,0.723 8.27,2.156 14.76,7.195 21.59,11.875 4.33,2.878 7.21,7.207 9.01,11.882 1.08,3.243 2.52,6.121 3.24,8.993 1.43,4.328 2.88,8.644 3.24,13.324 v 7.207 c 0,3.23 -0.36,6.109 -0.36,9.351 0,1.086 -0.36,2.161 -0.36,3.965 0.36,1.801 0.72,3.235 0.72,5.039 0,4.68 -1.44,9.36 -1.44,14.039 0,0.719 -0.37,1.442 -0.37,2.16 -3.24,7.918 -6.47,15.122 -13.32,20.524 -4.31,3.598 -8.63,7.195 -13.68,9.715 -1.07,0.359 -2.16,1.441 -3.59,2.164 1.8,5.758 3.59,10.801 5.04,16.199 1.43,6.117 4.68,11.883 5.4,18.359 1.07,5.403 5.4,9 12.6,9 2.15,0 3.96,-0.363 6.12,-0.363 2.88,0 5.76,0.363 8.99,0.727 1.81,0 3.61,0.355 5.04,0.355 0.36,0.723 1.45,2.879 1.45,4.32 0,1.079 -0.36,1.442 -1.45,1.801 -8.27,0 -16.55,0 -24.47,-0.359 -6.85,-0.363 -11.88,-3.602 -13.68,-10.442 -0.72,-2.878 -1.09,-5.761 -2.16,-8.281 -2.88,-7.918 -5.76,-16.199 -7.56,-24.476 -0.36,-1.801 -1.08,-3.243 -1.81,-5.039 -3.59,0.355 -6.83,0.355 -10.43,0.355 -10.08,0.363 -20.16,0.363 -30.24,0.363 h -2.52 c -11.16,0 -21.96,-2.16 -32.04,-7.922 -5.4,-3.242 -9.73,-7.558 -13.32,-12.242 -4.69,-7.195 -7.92,-15.117 -8.64,-23.758 -0.36,-6.835 -1.09,-13.32 -1.09,-19.792 0,-5.403 0.73,-10.09 1.09,-15.129 1.08,-12.239 4.68,-23.039 14.4,-30.957 1.44,-1.446 2.87,-2.52 3.96,-3.965 3.96,-2.871 7.92,-5.391 12.96,-6.477 3.6,-0.722 7.55,-2.156 11.16,-3.238 -2.16,-2.524 -3.97,-5.039 -5.4,-7.563 l -4.68,-8.281 -1.08,-8.64 c 0,-1.075 -0.37,-2.161 -0.37,-3.235 0,-7.918 4.69,-14.402 12.25,-16.558 3.23,-0.723 6.11,-1.797 9.36,-1.797 0.72,0 1.79,0.347 2.52,0.347 h 6.48 c 10.08,-0.347 20.16,-0.347 30.23,-0.347 h 11.89 c 8.64,0 15.84,-3.965 21.96,-9.004 6.48,-5.766 10.08,-13.684 10.08,-22.688 0,-7.195 -0.36,-14.394 -1.45,-21.23 -0.36,-4.324 -1.43,-8.645 -4.31,-11.883 l -8.64,-8.281 c -5.4,-4.68 -11.88,-6.125 -18.36,-6.836 h -57.6 c -5.4,0 -11.16,0 -16.56,1.797 -7.56,2.515 -14.05,6.48 -19.45,12.234 -2.87,2.52 -4.31,5.762 -4.31,10.09 v 18.719 c 0,1.797 0,3.593 -0.73,5.39 -1.07,0.723 -1.79,1.082 -2.52,1.082 -0.71,0 -1.43,-0.359 -2.15,-1.082 z m -131.29,194.766 c 10.45,-0.359 19.8,0 29.16,-1.078 17.64,-2.52 30.96,-14.762 32.76,-32.766 1.08,-9 1.81,-17.992 2.16,-26.996 v -1.445 c 0,-6.477 -1.8,-12.598 -3.24,-18.711 -0.35,-1.809 -1.44,-3.606 -1.8,-5.403 -1.07,-7.566 -6.11,-12.246 -12.24,-15.835 -1.8,-1.45 -3.95,-2.532 -6.12,-3.606 -5.04,-2.883 -10.44,-4.68 -16.56,-4.68 h -14.4 c -2.16,0 -4.68,0 -8.28,-0.359 -3.24,-0.359 -6.11,-0.723 -9,-0.723 -10.43,0 -20.88,2.52 -30.6,7.559 -5.76,2.883 -10.09,7.207 -12.6,12.961 -2.88,5.762 -4.67,11.519 -5.76,18.008 -0.72,6.113 -1.08,12.234 -1.08,18.355 0,11.152 1.08,22.317 5.76,32.758 2.88,6.48 7.21,11.519 13.68,14.758 9.72,5.047 19.8,7.203 30.6,7.203 z m -64.8,-194.766 c -0.36,-0.715 -0.71,-1.074 -0.71,-1.433 l -0.72,-24.121 c 0,-1.797 0.35,-3.594 0.72,-5.403 3.23,-7.922 7.91,-14.043 15.47,-17.636 7.21,-2.879 14.4,-5.762 22.32,-6.125 3.6,-0.36 7.2,-0.36 11.88,-0.36 h 19.44 c 4.33,0 8.64,0 14.04,-0.715 0.72,0 1.44,0 2.16,0.356 2.88,0 5.76,0.359 8.64,0.359 7.56,0.36 15.12,0 22.32,2.168 1.8,0.715 3.96,1.074 5.76,2.156 5.76,3.957 10.8,8.633 15.49,13.684 0.71,0.715 1.43,1.797 1.8,2.871 1.79,5.051 3.95,9.727 4.31,15.129 v 5.762 c 0,2.871 0,5.75 0.72,8.632 0.36,1.446 0.36,2.516 0.36,3.961 0,3.247 -0.72,6.477 -1.44,9.36 -2.88,11.883 -10.8,19.804 -21.59,25.203 -5.05,2.519 -10.8,4.68 -16.93,4.68 h -1.44 c -1.44,0 -2.88,0.359 -4.68,0.718 h -6.11 c -3.97,-0.718 -8.28,-1.082 -12.25,-1.082 -3.59,0 -6.83,0.364 -10.08,1.082 h -2.51 c -1.8,-0.359 -3.25,-0.359 -5.04,-0.359 -3.25,0 -6.49,0.359 -9.73,0.359 h -2.52 c -2.87,0 -5.4,1.078 -7.56,2.883 -1.8,1.797 -2.88,4.317 -2.88,7.918 0.36,2.883 0.36,5.754 1.08,8.637 1.44,7.207 4.32,13.68 10.44,17.644 1.8,-0.363 3.96,-0.722 5.76,-0.722 6.84,0 13.69,2.16 19.8,2.16 0.36,0 0.72,-0.363 1.07,-0.363 1.45,-0.364 2.53,-0.364 3.97,-0.364 3.6,0 7.21,0.727 10.8,0.727 h 3.24 c 1.08,0 2.88,0.359 3.97,0.723 8.28,2.156 14.75,7.195 21.6,11.875 4.32,2.878 7.19,7.207 8.99,11.882 1.09,3.243 2.52,6.121 3.24,8.993 1.44,4.328 2.89,8.644 3.24,13.324 v 7.207 c 0,3.23 -0.35,6.109 -0.35,9.351 0,1.086 -0.37,2.161 -0.37,3.965 0.37,1.801 0.72,3.235 0.72,5.039 0,4.68 -1.44,9.36 -1.44,14.039 0,0.719 -0.36,1.442 -0.36,2.16 -3.24,7.918 -6.48,15.122 -13.32,20.524 -4.32,3.598 -8.63,7.195 -13.67,9.715 -1.1,0.359 -2.17,1.441 -3.61,2.164 1.8,5.758 3.61,10.801 5.04,16.199 1.44,6.117 4.68,11.883 5.4,18.359 1.08,5.403 5.4,9 12.6,9 2.16,0 3.97,-0.363 6.12,-0.363 2.89,0 5.76,0.363 9,0.727 1.8,0 3.6,0.355 5.04,0.355 0.36,0.723 1.44,2.879 1.44,4.32 0,1.079 -0.36,1.442 -1.44,1.801 -8.28,0 -16.56,0 -24.47,-0.359 -6.85,-0.363 -11.89,-3.602 -13.69,-10.442 -0.72,-2.878 -1.08,-5.761 -2.15,-8.281 -2.89,-7.918 -5.77,-16.199 -7.56,-24.476 -0.37,-1.801 -1.09,-3.243 -1.81,-5.039 -3.6,0.355 -6.84,0.355 -10.44,0.355 -10.08,0.363 -20.15,0.363 -30.23,0.363 h -2.52 c -11.17,0 -21.98,-2.16 -32.05,-7.922 -5.39,-3.242 -9.72,-7.558 -13.32,-12.242 -4.67,-7.195 -7.91,-15.117 -8.64,-23.758 -0.36,-6.835 -1.07,-13.32 -1.07,-19.792 0,-5.403 0.71,-10.09 1.07,-15.129 1.08,-12.239 4.68,-23.039 14.4,-30.957 1.44,-1.446 2.89,-2.52 3.96,-3.965 3.97,-2.871 7.92,-5.391 12.96,-6.477 3.61,-0.722 7.56,-2.156 11.16,-3.238 -2.16,-2.524 -3.96,-5.039 -5.4,-7.563 l -4.67,-8.281 -1.09,-8.64 c 0,-1.075 -0.36,-2.161 -0.36,-3.235 0,-7.918 4.69,-14.402 12.25,-16.558 3.24,-0.723 6.11,-1.797 9.35,-1.797 0.72,0 1.8,0.347 2.52,0.347 h 6.49 c 10.07,-0.347 20.15,-0.347 30.23,-0.347 h 11.88 c 8.65,0 15.84,-3.965 21.97,-9.004 6.47,-5.766 10.08,-13.684 10.08,-22.688 0,-7.195 -0.37,-14.394 -1.45,-21.23 -0.36,-4.324 -1.44,-8.645 -4.32,-11.883 l -8.64,-8.281 c -5.4,-4.68 -11.88,-6.125 -18.36,-6.836 h -57.6 c -5.4,0 -11.16,0 -16.56,1.797 -7.56,2.515 -14.03,6.48 -19.44,12.234 -2.87,2.52 -4.32,5.762 -4.32,10.09 v 18.719 c 0,1.797 0,3.593 -0.72,5.39 -1.07,0.723 -1.8,1.082 -2.52,1.082 -0.72,0 -1.44,-0.359 -2.16,-1.082 z m -179.67,121.328 c -1.8,1.075 -1.8,2.52 -1.8,3.954 l -1.08,15.121 c 0,2.168 0,4.324 0.35,6.121 1.81,7.562 5.05,14.043 7.93,20.883 2.52,5.757 7.2,10.078 11.88,13.675 8.28,6.125 16.56,10.442 26.64,12.242 5.76,1.083 11.88,1.442 17.64,1.442 4.68,0 9,-0.359 13.32,-0.723 14.04,-1.433 25.56,-9 34.2,-20.156 3.6,-5.043 5.76,-11.16 7.56,-17.641 1.44,-4.683 1.8,-12.601 1.8,-20.523 0,-5.399 0,-10.441 -0.71,-14.395 z m 126,-2.879 c 0,1.434 0.72,3.243 0.72,5.04 0,6.121 -0.36,12.234 -0.36,18.359 0,6.836 -1.07,13.316 -2.88,19.797 -3.23,10.441 -8.99,19.078 -16.92,26.64 -1.44,1.442 -3.6,2.883 -5.76,3.961 -2.15,1.442 -4.67,2.52 -7.19,3.598 -7.21,3.961 -15.49,5.402 -23.77,5.402 h -7.91 c -5.76,0 -11.89,0 -17.65,-0.363 -6.12,-0.719 -12.23,-3.234 -18,-5.758 -7.92,-3.601 -15.11,-9.004 -21.6,-14.758 l -1.07,-1.082 -9.73,-18.363 c -2.52,-5.039 -3.96,-10.07 -3.96,-16.195 v -2.156 c 0,-3.606 0.37,-7.207 0.37,-10.442 0,-3.601 -0.37,-6.847 -0.73,-10.09 -0.72,-2.879 -0.72,-5.398 -0.72,-8.269 0,-2.879 0,-5.762 0.36,-8.281 0.36,-3.602 1.09,-6.844 1.09,-10.442 -0.37,-5.047 -0.37,-10.086 -0.37,-15.125 0.72,-12.234 6.13,-22.676 12.97,-32.043 5.03,-6.472 10.8,-11.875 17.99,-15.476 9,-4.676 18.72,-6.473 28.44,-6.836 3.96,-0.364 7.57,-0.364 11.52,-0.364 7.2,0 14.76,0.364 21.97,2.161 5.39,1.085 10.8,1.796 16.19,3.601 6.48,1.801 12.97,4.317 19.08,7.563 l 1.07,1.082 c 0.38,0.714 0.38,1.433 0.38,1.797 0,1.074 -0.73,2.16 -2.52,2.878 -1.09,-0.359 -2.89,-0.359 -4.33,-1.082 -7.92,-3.957 -16.2,-6.472 -24.83,-7.921 -7.93,-1.434 -16.21,-2.879 -24.49,-3.243 h -2.15 c -4.32,0 -8.65,0.727 -12.97,0.727 -5.77,0 -10.8,1.797 -16.56,2.879 -1.8,0.359 -3.95,1.797 -5.76,2.519 -8.28,4.317 -14.4,10.442 -19.79,17.996 -5.04,7.563 -6.85,15.84 -7.56,24.844 l -1.45,19.082 c 0,1.801 -0.36,3.957 -0.36,5.766 0,2.871 0.36,5.75 0.71,8.633 1.45,0 2.17,0.359 3.25,0.359 h 118.81 c 2.87,0 4.67,1.086 6.47,3.605 z m -311.943,43.196 10.078,9.722 c 8.281,9 18.008,15.481 29.16,20.516 l 3.606,1.441 c 5.757,1.083 11.882,1.442 17.644,1.442 5.391,0 10.43,-0.359 15.84,-1.442 7.188,-1.441 12.598,-5.398 16.191,-11.515 5.403,-9.004 8.282,-19.082 8.282,-29.524 v -25.554 c 0,-4.692 0.363,-9.004 0.363,-13.684 0,-5.762 -0.363,-11.523 -1.086,-18 0,-1.082 0.371,-2.168 0.371,-3.238 0,-1.445 0.352,-3.242 0.352,-4.68 v -15.84 c 0,-5.398 0,-10.437 -0.723,-15.488 0,-0.715 0,-1.797 0.371,-2.871 0,-2.883 0.352,-5.762 0.352,-9.004 v -3.242 c 0,-1.074 0,-2.156 0.363,-2.879 0.711,-3.957 2.519,-7.199 6.473,-8.645 3.242,-0.711 6.855,-2.16 10.449,-2.16 1.074,0 1.797,0 2.883,0.364 1.433,0.363 3.23,0.722 4.675,0.722 1.075,0 2.161,-0.359 3.243,-0.359 h 1.445 c 1.071,0 2.151,0 3.231,0.359 1.44,0.363 2.16,0.723 2.16,2.156 0,0.723 -0.35,1.797 -0.72,2.883 -0.72,0 -1.8,0.364 -2.87,0.364 h -15.121 c -3.243,0 -5.774,0.359 -7.93,3.953 0,2.882 0,6.484 -0.723,9.726 -0.351,1.074 -0.351,2.52 -0.351,3.953 0,1.45 0,2.524 0.351,3.965 0.364,1.801 0.364,3.598 0.364,5.403 0,4.675 0.359,8.996 0.359,13.32 0,5.398 -0.359,10.801 -1.074,16.914 0,1.086 0.351,2.156 0.351,3.242 0,1.797 0.364,3.242 0.364,4.68 0,5.398 0.359,11.16 0.359,16.558 0,4.68 -0.359,9.004 -1.074,13.684 v 3.242 c 0.715,5.403 1.074,10.801 1.074,16.192 0,5.406 -0.359,11.164 -1.445,16.562 -1.797,9.004 -4.317,17.281 -10.801,24.481 -6.113,6.843 -13.672,10.8 -23.028,11.519 -4.328,0.363 -8.652,0.723 -12.968,0.723 -3.242,0 -6.114,-0.36 -9.356,-0.36 -5.398,0 -10.801,-1.441 -16.203,-3.597 -7.918,-3.242 -14.754,-7.567 -21.238,-13.684 -2.879,-3.242 -6.485,-6.117 -9.356,-9.723 -1.445,-1.796 -3.242,-2.875 -5.41,-4.316 -0.722,1.441 -1.433,2.52 -1.797,3.961 -2.519,11.156 -10.078,18.359 -19.804,23.762 -3.235,2.156 -6.836,3.234 -10.43,3.234 -7.559,0 -15.117,0.363 -22.324,0.363 -1.797,0 -3.965,-0.363 -5.762,-0.718 -10.078,-1.801 -18.359,-7.918 -26.277,-14.043 -5.403,-4.676 -11.164,-9.36 -15.117,-15.118 -1.809,-2.523 -3.606,-4.683 -5.762,-6.839 -0.363,-0.364 -0.715,-1.442 -1.809,-1.442 -0.351,0 -1.074,0.363 -1.797,0.719 v 9.723 c 0,2.156 0,4.675 -0.351,7.195 -0.723,5.043 -1.082,9.723 -1.082,14.402 0,1.082 -0.727,2.524 -1.086,3.602 -1.438,0.359 -2.52,0.719 -3.594,0.719 H 724.58 c -0.359,0 -1.082,-0.719 -1.805,-1.082 0,-0.36 -0.351,-0.715 -0.351,-1.442 0,-0.715 0.351,-1.797 1.433,-2.879 4.68,-1.078 9.368,-1.078 14.407,-1.078 3.593,0 7.199,0 10.801,-1.082 0,-2.156 0.722,-3.957 0.722,-5.762 v -10.078 c 0,-3.238 -0.371,-6.476 -1.086,-9.719 v -3.96 c 0.364,-7.559 1.086,-14.754 1.086,-22.317 0,-4.683 -0.371,-9.723 -1.086,-14.402 v -3.242 c 0.715,-6.836 1.086,-13.68 1.086,-20.879 0,-5.039 0,-10.442 -1.086,-16.563 0,-1.074 0,-1.797 0.364,-2.871 0,-6.848 0.722,-14.043 0.722,-20.891 0,-3.953 0,-7.917 -0.371,-11.875 -0.351,-1.792 -0.351,-3.601 -0.351,-5.398 v -2.519 c 0.351,-1.083 0.351,-2.161 0.351,-3.243 0,-1.433 -0.351,-2.882 -1.797,-4.316 -1.074,-0.359 -1.797,-0.359 -2.871,-0.359 -2.168,0 -4.324,0.359 -6.133,0.359 -1.074,0 -2.148,0 -3.23,-0.359 h -1.438 c -2.168,0 -4.328,0.359 -6.484,0.359 -1.797,0 -3.242,-0.359 -4.688,-1.445 0,-0.711 -0.351,-1.075 -0.351,-1.797 0,-0.723 0.351,-1.797 1.433,-2.879 1.438,0.359 3.606,0.359 5.403,0.359 h 2.168 c 1.797,-0.359 3.957,-0.359 5.754,-0.359 1.433,0 2.879,0 4.324,0.359 1.074,0 2.148,0 3.242,-0.359 1.426,-0.363 2.871,-0.727 4.668,-0.727 1.445,0 3.242,0.364 5.039,0.727 h 9.363 c 1.809,0.359 3.606,0.359 5.403,0.359 1.797,0 3.965,0 5.761,-0.359 h 1.797 c 1.797,0 3.606,0.359 5.403,1.082 0.359,0.715 0.718,1.433 0.718,2.156 0,0.727 -0.359,1.438 -1.082,2.16 h -5.761 c -1.797,0 -3.953,0 -5.762,0.723 -1.074,0.359 -1.797,0.359 -2.871,0.359 -2.168,0 -4.317,-0.359 -6.121,-0.359 -1.086,0 -2.524,0.359 -3.606,0.715 -0.351,2.168 -0.722,4.683 -0.722,6.844 v 1.796 c 0.722,3.606 0.722,7.559 0.722,11.161 0,1.085 0.364,2.523 0.364,3.605 0,5.039 -1.086,9.719 -1.086,14.758 0,1.797 0,3.601 0.371,5.398 0.351,2.157 0.351,4.317 0.351,6.485 0,3.593 0.364,7.199 0.364,11.152 0,2.883 -0.364,5.762 -0.715,8.645 v 11.882 c 0,1.797 0,3.235 -0.371,4.676 0.722,4.317 1.086,8.281 1.086,12.602 0,4.675 -0.364,9.715 -1.438,14.402 v 1.797 c 0,3.242 1.438,5.762 4.317,7.558 3.605,2.161 6.125,5.04 8.64,8.282 6.848,8.281 15.117,15.117 24.121,21.242 7.199,5.035 14.758,7.918 23.403,7.918 1.433,0 2.878,-0.359 4.324,-0.359 h 4.668 c 1.086,0 1.804,0.359 2.89,0.359 3.235,0 6.477,-1.078 9.715,-1.801 7.563,-1.797 12.602,-6.48 16.555,-12.961 5.762,-9.359 6.125,-18.359 6.125,-28.805 -0.363,-1.433 -0.363,-2.515 -0.363,-3.953 v -8.281 c 0,-1.086 -0.352,-2.519 -0.352,-3.965 0.715,-4.316 1.074,-8.269 1.074,-12.597 0,-4.317 -0.359,-8.633 -0.722,-12.598 v -10.441 c 0,-1.082 -0.352,-2.157 -0.352,-3.961 0.715,-4.321 1.074,-8.633 1.074,-12.961 0,-5.039 -0.359,-10.442 -0.359,-15.481 v -5.039 c 0,-1.797 -0.715,-3.601 -0.715,-6.121 0.715,-2.871 0.715,-5.398 0.715,-8.269 v -5.403 c 0,-3.242 0.359,-6.484 1.805,-9.363 1.796,-2.883 4.316,-4.68 7.558,-4.68 3.242,-0.359 6.477,-0.722 9.719,-0.722 l 14.031,1.085 c 0.371,0.711 0.371,1.434 0.371,2.157 0,0.722 -0.722,2.519 -1.086,2.519 -3.242,0.364 -6.472,1.082 -10.078,1.082 -1.433,0 -3.238,0 -4.676,-0.359 -0.722,0 -1.085,-0.359 -1.804,-0.359 -2.524,0 -4.68,1.074 -6.836,2.515 -0.363,0.727 -0.727,1.086 -0.727,1.801 -0.711,9.363 0,19.082 -1.082,28.434 0,1.085 0.371,2.168 0.723,3.246 v 4.675 c 0,6.122 -0.352,12.247 -0.352,18.372 v 5.75 c 0,1.804 0,3.964 -0.371,7.207 0,0.71 0,1.433 0.371,2.16 0,2.879 0.352,5.758 0.352,8.64 v 11.153 c 0,5.761 0,11.164 -0.723,16.922 0,1.085 0.371,2.16 0.371,2.882 0.352,2.52 0.352,5.039 0.352,7.2 z"
         inkscape:connector-curvature="0" /><path
         id="path20"
         style="fill:#231f20;fill-opacity:1;fill-rule:nonzero;stroke:none"
         d="m 245.359,220.969 0,124.148 c 0,21.266 9.778,33.168 29.77,33.168 19.988,0 29.754,-11.902 29.754,-33.168 l 0,-124.148 56.98,0 0,138.179 c 7.649,14.036 19.563,18.711 29.77,19.137 19.976,0 29.754,-11.902 29.754,-33.168 l 0,-124.148 56.972,0 0,142.859 c 0,45.074 -37.402,68.883 -78.222,68.883 -25.52,0 -47.625,-10.207 -65.489,-31.465 -15.3,17.43 -39.531,31.465 -61.64,31.465 -50.606,0 -84.617,-23.809 -84.617,-68.883 l 0,-142.859 56.968,0 0,0" /><path
         id="path22"
         style="fill:#231f20;fill-opacity:1;fill-rule:nonzero;stroke:none"
         d="M 587.043,368.441 C 600.742,299.023 590.566,233.223 545.273,173.113 503.555,117.766 434.941,83.2305 366.309,81.1719 l 0.566,-12.6641 c 73.215,-2.4726 146.523,35.4692 191.301,94.8902 48.367,64.18 59.07,139.153 41.199,207.993 l -12.332,-2.95 0,0 z M 297.168,599.125 C 226.074,597.336 156.953,566.363 108.586,502.188 63.8086,442.758 47.5469,361.84 70.0977,292.141 l 12.332,2.949 c -16.9414,66.543 -2.6445,142.019 39.0543,197.371 45.293,60.105 105.743,88.031 176.25,93.992 l -0.566,12.672 0,0" /></g></g></svg>